<svg xmlns="http://www.w3.org/2000/svg" xmlns:svg="http://www.w3.org/2000/svg" xmlns:xlink="http://www.w3.org/1999/xlink" id="svg8" version="1.1" viewBox="-0.04 -0.04 128.65 133.37"><defs xmlns="http://www.w3.org/2000/svg" xmlns:xlink="http://www.w3.org/1999/xlink" id="defs2"><linearGradient id="linearGradient2294"><stop id="stop2288" offset="0" style="stop-color:#8ebf6a;stop-opacity:1"/><stop id="stop2296" offset=".642" style="stop-color:#48982f;stop-opacity:1"/><stop id="stop2290" offset=".65" style="stop-color:#0f730d;stop-opacity:1"/><stop id="stop2292" offset="1" style="stop-color:#0b6e09;stop-opacity:1"/></linearGradient><linearGradient id="linearGradient2053"><stop id="stop2049" offset="0" style="stop-color:#f6f608;stop-opacity:0"/><stop id="stop2077" offset=".147" style="stop-color:#f6f509;stop-opacity:0"/><stop id="stop2059" offset=".368" style="stop-color:#f7f50b;stop-opacity:1"/><stop id="stop2051" offset="1" style="stop-color:#f7f608;stop-opacity:1"/></linearGradient><rect id="rect1026" width="649.741" height="299.357" x="9.721" y="67.157"/><linearGradient id="linearGradient958"><stop id="stop954" offset="0" style="stop-color:#0d1414;stop-opacity:1"/><stop id="stop970" offset=".335" style="stop-color:#120f14;stop-opacity:1"/><stop id="stop972" offset=".527" style="stop-color:#14100d;stop-opacity:1"/><stop id="stop974" offset=".782" style="stop-color:#12140a;stop-opacity:1"/><stop id="stop956" offset="1" style="stop-color:#0f140d;stop-opacity:1"/></linearGradient><linearGradient id="linearGradient960" x1="94.916" x2="136.32" y1="6.69" y2="48.095" gradientTransform="matrix(1.6268397,0,0,1.6268397,-486.22132,359.3229)" gradientUnits="userSpaceOnUse" xlink:href="#linearGradient958"/><rect id="rect1026-8" width="649.741" height="299.357" x="9.721" y="67.157"/><rect id="rect1026-5" width="649.741" height="299.357" x="9.721" y="67.157"/><clipPath id="clipPath2520" clipPathUnits="userSpaceOnUse"><path id="path2522" d="M 0.06,651 H 476.1 V 0 H 0.06 Z"/></clipPath><clipPath id="clipPath2512" clipPathUnits="userSpaceOnUse"><path id="path2514" d="M 0,651 H 476 V 0 H 0 Z"/></clipPath><clipPath id="clipPath2452" clipPathUnits="userSpaceOnUse"><path id="path2454" d="M 0.06,651 H 476.1 V 0 H 0.06 Z"/></clipPath><clipPath id="clipPath2444" clipPathUnits="userSpaceOnUse"><path id="path2446" d="M 0,651 H 476 V 0 H 0 Z"/></clipPath><clipPath id="clipPath2436" clipPathUnits="userSpaceOnUse"><path style="clip-rule:evenodd" id="path2438" d="M 260.55,378.32 H 375.6 V 355.9 H 260.55 Z"/></clipPath><clipPath id="clipPath2426" clipPathUnits="userSpaceOnUse"><path id="path2428" d="M 0.06,651 H 476.1 V 0 H 0.06 Z"/></clipPath><clipPath id="clipPath2418" clipPathUnits="userSpaceOnUse"><path id="path2420" d="M 0,651 H 476 V 0 H 0 Z"/></clipPath><radialGradient id="radialGradient2057" cx="500.772" cy="163.383" r="37.11" fx="500.772" fy="163.383" gradientTransform="matrix(3.1473262,0,-1.3593042e-7,3.3006668,-1077.6647,-377.08254)" gradientUnits="userSpaceOnUse" xlink:href="#linearGradient2053"/><filter id="filter2107" width="1.041" height="1.075" x="-.021" y="-.038" style="color-interpolation-filters:sRGB"><feGaussianBlur id="feGaussianBlur2109" stdDeviation=".745"/></filter><linearGradient id="linearGradient2286" x1="646.94" x2="646.94" y1="170.388" y2="211.794" gradientTransform="translate(48.955516,98.740786)" gradientUnits="userSpaceOnUse" xlink:href="#linearGradient2294"/><linearGradient id="linearGradient2480" x1="651.756" x2="651.756" y1="180.154" y2="205.877" gradientTransform="translate(48.955516,98.740786)" gradientUnits="userSpaceOnUse" xlink:href="#linearGradient2294"/><linearGradient id="linearGradient2482" x1="646.94" x2="646.94" y1="170.388" y2="211.794" gradientTransform="translate(48.955516,98.740786)" gradientUnits="userSpaceOnUse" xlink:href="#linearGradient2294"/><linearGradient id="linearGradient2486" x1="645.533" x2="645.533" y1="229.94" y2="265.204" gradientTransform="translate(48.955516,98.740786)" gradientUnits="userSpaceOnUse" xlink:href="#linearGradient2294"/><linearGradient id="linearGradient2488" x1="645.533" x2="645.533" y1="229.94" y2="265.204" gradientTransform="translate(48.955516,98.740786)" gradientUnits="userSpaceOnUse" xlink:href="#linearGradient2294"/><linearGradient id="linearGradient2570" x1="651.756" x2="651.756" y1="180.154" y2="205.877" gradientTransform="translate(48.955516,98.740786)" gradientUnits="userSpaceOnUse" xlink:href="#linearGradient2294"/><linearGradient id="linearGradient2572" x1="646.94" x2="646.94" y1="170.388" y2="211.794" gradientTransform="translate(48.955516,98.740786)" gradientUnits="userSpaceOnUse" xlink:href="#linearGradient2294"/><linearGradient id="linearGradient2576" x1="645.533" x2="645.533" y1="229.94" y2="265.204" gradientTransform="translate(48.955516,98.740786)" gradientUnits="userSpaceOnUse" xlink:href="#linearGradient2294"/><linearGradient id="linearGradient2578" x1="645.533" x2="645.533" y1="229.94" y2="265.204" gradientTransform="translate(48.955516,98.740786)" gradientUnits="userSpaceOnUse" xlink:href="#linearGradient2294"/><linearGradient id="linearGradient2609" x1="651.756" x2="651.756" y1="180.154" y2="205.877" gradientTransform="translate(48.955516,98.740786)" gradientUnits="userSpaceOnUse" xlink:href="#linearGradient2294"/><linearGradient id="linearGradient2611" x1="645.533" x2="645.533" y1="229.94" y2="265.204" gradientTransform="translate(48.955516,98.740786)" gradientUnits="userSpaceOnUse" xlink:href="#linearGradient2294"/><linearGradient id="linearGradient2613" x1="645.533" x2="645.533" y1="229.94" y2="265.204" gradientTransform="translate(48.955516,98.740786)" gradientUnits="userSpaceOnUse" xlink:href="#linearGradient2294"/></defs><metadata xmlns="http://www.w3.org/2000/svg" xmlns:cc="http://creativecommons.org/ns#" xmlns:dc="http://purl.org/dc/elements/1.1/" xmlns:rdf="http://www.w3.org/1999/02/22-rdf-syntax-ns#" id="metadata5"/><g xmlns="http://www.w3.org/2000/svg" id="layer1" transform="translate(32.707948,-151.00857)"><g id="g1283" transform="translate(-704.19299,-105.5052)"><g id="g1752"><g id="g2681"><g id="g2653" transform="translate(11.616563,-3.1115794)"><path id="path2125-5" d="m 742.99897,309.45489 c -0.63091,-2.09152 -1.89283,-6.27486 -2.68806,-11.21024 -0.79522,-4.93539 -1.12366,-10.62255 -0.83845,-15.15171 0.2852,-4.52916 1.18409,-7.89998 2.15876,-10.53257 0.97467,-2.6326 2.03319,-4.54142 3.13962,-5.76019 1.10643,-1.21878 2.26461,-1.75465 3.25868,-2.02257 0.99406,-0.26791 1.82379,-0.26791 2.85238,0.0433 1.0286,0.31124 2.2559,0.93354 3.66474,2.1091 1.40884,1.17557 2.99918,2.90418 4.0709,4.34764 1.07173,1.44346 1.62489,2.60163 1.9014,3.18058 0.27651,0.57894 0.27651,0.57894 0.27651,0.57894 0,0 0,0 0.17286,-0.24201 0.17286,-0.242 0.51859,-0.72602 0.92481,-1.20139 0.40622,-0.47538 0.87298,-0.94213 1.78062,-1.36569 0.90764,-0.42355 2.25596,-0.80384 3.75134,-0.77785 1.49537,0.026 3.13756,0.45815 4.6069,1.39174 1.46935,0.93359 2.76581,2.36834 3.7597,4.38227 0.9939,2.01393 1.68535,4.60686 1.8668,7.11339 0.18145,2.50653 -0.14699,4.9266 -1.50401,7.75289 -1.35702,2.8263 -3.74251,6.05881 -7.33808,8.83327 -3.59558,2.77447 -8.40115,5.09083 -12.80057,6.78492 -4.39943,1.6941 -8.39253,2.76584 -10.38923,3.30175 -1.9967,0.53591 -1.9967,0.53591 -1.9967,0.53591 0,0 0,0 0,0 0,0 0,0 -0.63092,-2.09152 z" style="fill:url(#linearGradient2570);fill-opacity:1;stroke:#036106;stroke-width:10;stroke-linecap:butt;stroke-linejoin:miter;stroke-miterlimit:4;stroke-dasharray:none;stroke-opacity:1"/><path id="path2125-8" d="m 742.99897,309.45489 c -0.63091,-2.09152 -1.89283,-6.27486 -2.68806,-11.21024 -0.79522,-4.93539 -1.12366,-10.62255 -0.83845,-15.15171 0.2852,-4.52916 1.18409,-7.89998 2.15876,-10.53257 0.97467,-2.6326 2.03319,-4.54142 3.13962,-5.76019 1.10643,-1.21878 2.26461,-1.75465 3.25868,-2.02257 0.99406,-0.26791 1.82379,-0.26791 2.85238,0.0433 1.0286,0.31124 2.2559,0.93354 3.66474,2.1091 1.40884,1.17557 2.99918,2.90418 4.0709,4.34764 1.07173,1.44346 1.62489,2.60163 1.9014,3.18058 0.27651,0.57894 0.27651,0.57894 0.27651,0.57894 0,0 0,0 0.17286,-0.24201 0.17286,-0.242 0.51859,-0.72602 0.92481,-1.20139 0.40622,-0.47538 0.87298,-0.94213 1.78062,-1.36569 0.90764,-0.42355 2.25596,-0.80384 3.75134,-0.77785 1.49537,0.026 3.13756,0.45815 4.6069,1.39174 1.46935,0.93359 2.76581,2.36834 3.7597,4.38227 0.9939,2.01393 1.68535,4.60686 1.8668,7.11339 0.18145,2.50653 -0.14699,4.9266 -1.50401,7.75289 -1.35702,2.8263 -3.74251,6.05881 -7.33808,8.83327 -3.59558,2.77447 -8.40115,5.09083 -12.80057,6.78492 -4.39943,1.6941 -8.39253,2.76584 -10.38923,3.30175 -1.9967,0.53591 -1.9967,0.53591 -1.9967,0.53591 0,0 0,0 0,0 0,0 0,0 -0.63092,-2.09152 z" style="fill:url(#linearGradient2480);fill-opacity:1;stroke:#97c580;stroke-width:3;stroke-linecap:butt;stroke-linejoin:miter;stroke-miterlimit:4;stroke-dasharray:none;stroke-opacity:1"/><path id="path2125" d="m 742.99897,309.45489 c -0.63091,-2.09152 -1.89283,-6.27486 -2.68806,-11.21024 -0.79522,-4.93539 -1.12366,-10.62255 -0.83845,-15.15171 0.2852,-4.52916 1.18409,-7.89998 2.15876,-10.53257 0.97467,-2.6326 2.03319,-4.54142 3.13962,-5.76019 1.10643,-1.21878 2.26461,-1.75465 3.25868,-2.02257 0.99406,-0.26791 1.82379,-0.26791 2.85238,0.0433 1.0286,0.31124 2.2559,0.93354 3.66474,2.1091 1.40884,1.17557 2.99918,2.90418 4.0709,4.34764 1.07173,1.44346 1.62489,2.60163 1.9014,3.18058 0.27651,0.57894 0.27651,0.57894 0.27651,0.57894 0,0 0,0 0.17286,-0.24201 0.17286,-0.242 0.51859,-0.72602 0.92481,-1.20139 0.40622,-0.47538 0.87298,-0.94213 1.78062,-1.36569 0.90764,-0.42355 2.25596,-0.80384 3.75134,-0.77785 1.49537,0.026 3.13756,0.45815 4.6069,1.39174 1.46935,0.93359 2.76581,2.36834 3.7597,4.38227 0.9939,2.01393 1.68535,4.60686 1.8668,7.11339 0.18145,2.50653 -0.14699,4.9266 -1.50401,7.75289 -1.35702,2.8263 -3.74251,6.05881 -7.33808,8.83327 -3.59558,2.77447 -8.40115,5.09083 -12.80057,6.78492 -4.39943,1.6941 -8.39253,2.76584 -10.38923,3.30175 -1.9967,0.53591 -1.9967,0.53591 -1.9967,0.53591 0,0 0,0 0,0 0,0 0,0 -0.63092,-2.09152 z" style="fill:url(#linearGradient2609);fill-opacity:1;stroke:none;stroke-width:.264583px;stroke-linecap:butt;stroke-linejoin:miter;stroke-opacity:1"/></g><g id="g2648" transform="translate(-3.319018,-1.2446318)"><path id="path2125-1-1" d="m 724.6336,303.65746 c -2.09152,0.63091 -6.27486,1.89283 -11.21024,2.68806 -4.93539,0.79522 -10.62255,1.12366 -15.15171,0.83845 -4.52916,-0.2852 -7.89998,-1.18409 -10.53257,-2.15876 -2.6326,-0.97467 -4.54142,-2.03319 -5.76019,-3.13962 -1.21878,-1.10643 -1.75465,-2.26461 -2.02257,-3.25868 -0.26791,-0.99406 -0.26791,-1.82379 0.0433,-2.85238 0.31124,-1.0286 0.93354,-2.2559 2.1091,-3.66474 1.17557,-1.40884 2.90418,-2.99918 4.34764,-4.0709 1.44346,-1.07173 2.60163,-1.62489 3.18058,-1.9014 0.57894,-0.27651 0.57894,-0.27651 0.57894,-0.27651 0,0 0,0 -0.24201,-0.17286 -0.242,-0.17286 -0.72602,-0.51859 -1.20139,-0.92481 -0.47538,-0.40622 -0.94213,-0.87298 -1.36569,-1.78062 -0.42355,-0.90764 -0.80384,-2.25596 -0.77785,-3.75134 0.026,-1.49537 0.45815,-3.13756 1.39174,-4.6069 0.93359,-1.46935 2.36834,-2.76581 4.38227,-3.7597 2.01393,-0.9939 4.60686,-1.68535 7.11339,-1.8668 2.50653,-0.18145 4.9266,0.14699 7.75289,1.50401 2.8263,1.35702 6.05881,3.74251 8.83327,7.33808 2.77447,3.59558 5.09083,8.40115 6.78492,12.80057 1.6941,4.39943 2.76584,8.39253 3.30175,10.38923 0.53591,1.9967 0.53591,1.9967 0.53591,1.9967 0,0 0,0 0,0 0,0 0,0 -2.09152,0.63092 z" style="fill:url(#linearGradient2572);fill-opacity:1;stroke:#036106;stroke-width:10;stroke-linecap:butt;stroke-linejoin:miter;stroke-miterlimit:4;stroke-dasharray:none;stroke-opacity:1"/><path id="path2125-1-4" d="m 724.6336,303.65746 c -2.09152,0.63091 -6.27486,1.89283 -11.21024,2.68806 -4.93539,0.79522 -10.62255,1.12366 -15.15171,0.83845 -4.52916,-0.2852 -7.89998,-1.18409 -10.53257,-2.15876 -2.6326,-0.97467 -4.54142,-2.03319 -5.76019,-3.13962 -1.21878,-1.10643 -1.75465,-2.26461 -2.02257,-3.25868 -0.26791,-0.99406 -0.26791,-1.82379 0.0433,-2.85238 0.31124,-1.0286 0.93354,-2.2559 2.1091,-3.66474 1.17557,-1.40884 2.90418,-2.99918 4.34764,-4.0709 1.44346,-1.07173 2.60163,-1.62489 3.18058,-1.9014 0.57894,-0.27651 0.57894,-0.27651 0.57894,-0.27651 0,0 0,0 -0.24201,-0.17286 -0.242,-0.17286 -0.72602,-0.51859 -1.20139,-0.92481 -0.47538,-0.40622 -0.94213,-0.87298 -1.36569,-1.78062 -0.42355,-0.90764 -0.80384,-2.25596 -0.77785,-3.75134 0.026,-1.49537 0.45815,-3.13756 1.39174,-4.6069 0.93359,-1.46935 2.36834,-2.76581 4.38227,-3.7597 2.01393,-0.9939 4.60686,-1.68535 7.11339,-1.8668 2.50653,-0.18145 4.9266,0.14699 7.75289,1.50401 2.8263,1.35702 6.05881,3.74251 8.83327,7.33808 2.77447,3.59558 5.09083,8.40115 6.78492,12.80057 1.6941,4.39943 2.76584,8.39253 3.30175,10.38923 0.53591,1.9967 0.53591,1.9967 0.53591,1.9967 0,0 0,0 0,0 0,0 0,0 -2.09152,0.63092 z" style="fill:url(#linearGradient2482);fill-opacity:1;stroke:#97c580;stroke-width:3;stroke-linecap:butt;stroke-linejoin:miter;stroke-miterlimit:4;stroke-dasharray:none;stroke-opacity:1"/><path id="path2125-1" d="m 724.6336,303.65746 c -2.09152,0.63091 -6.27486,1.89283 -11.21024,2.68806 -4.93539,0.79522 -10.62255,1.12366 -15.15171,0.83845 -4.52916,-0.2852 -7.89998,-1.18409 -10.53257,-2.15876 -2.6326,-0.97467 -4.54142,-2.03319 -5.76019,-3.13962 -1.21878,-1.10643 -1.75465,-2.26461 -2.02257,-3.25868 -0.26791,-0.99406 -0.26791,-1.82379 0.0433,-2.85238 0.31124,-1.0286 0.93354,-2.2559 2.1091,-3.66474 1.17557,-1.40884 2.90418,-2.99918 4.34764,-4.0709 1.44346,-1.07173 2.60163,-1.62489 3.18058,-1.9014 0.57894,-0.27651 0.57894,-0.27651 0.57894,-0.27651 0,0 0,0 -0.24201,-0.17286 -0.242,-0.17286 -0.72602,-0.51859 -1.20139,-0.92481 -0.47538,-0.40622 -0.94213,-0.87298 -1.36569,-1.78062 -0.42355,-0.90764 -0.80384,-2.25596 -0.77785,-3.75134 0.026,-1.49537 0.45815,-3.13756 1.39174,-4.6069 0.93359,-1.46935 2.36834,-2.76581 4.38227,-3.7597 2.01393,-0.9939 4.60686,-1.68535 7.11339,-1.8668 2.50653,-0.18145 4.9266,0.14699 7.75289,1.50401 2.8263,1.35702 6.05881,3.74251 8.83327,7.33808 2.77447,3.59558 5.09083,8.40115 6.78492,12.80057 1.6941,4.39943 2.76584,8.39253 3.30175,10.38923 0.53591,1.9967 0.53591,1.9967 0.53591,1.9967 0,0 0,0 0,0 0,0 0,0 -2.09152,0.63092 z" style="fill:url(#linearGradient2286);fill-opacity:1;stroke:none;stroke-width:.264583px;stroke-linecap:butt;stroke-linejoin:miter;stroke-opacity:1"/></g><g id="g2663" transform="translate(-1.4520704,14.313265)"><path id="path2125-0-0" d="m 719.43072,325.23451 c 0.8262,2.02235 2.47871,6.06734 3.73786,10.90521 1.25915,4.83786 2.12483,10.46835 2.26993,15.00416 0.14509,4.5358 -0.43045,7.97661 -1.15137,10.6897 -0.72091,2.71308 -1.59387,4.71358 -2.57987,6.03168 -0.986,1.3181 -2.08821,1.96128 -3.05243,2.32215 -0.96422,0.36087 -1.79021,0.43947 -2.84367,0.22705 -1.05345,-0.21241 -2.33418,-0.71565 -3.84804,-1.75248 -1.51387,-1.03683 -3.26079,-2.60703 -4.46442,-3.94248 -1.20364,-1.33545 -1.86402,-2.43601 -2.19413,-2.98616 -0.33011,-0.55015 -0.33011,-0.55015 -0.33011,-0.55015 0,0 0,0 -0.14916,0.2573 -0.14916,0.25729 -0.44748,0.77188 -0.80685,1.28359 -0.35937,0.51172 -0.77981,1.02059 -1.64325,1.52821 -0.86344,0.50763 -2.16967,1.01393 -3.66079,1.1297 -1.49111,0.11577 -3.16685,-0.15889 -4.71802,-0.94909 -1.55117,-0.79021 -2.97771,-2.0957 -4.15791,-4.00643 -1.1802,-1.91073 -2.11415,-4.42649 -2.53221,-6.90457 -0.41807,-2.47808 -0.32034,-4.91837 0.76286,-7.8605 1.0832,-2.94213 3.15176,-6.38607 6.46836,-9.48865 3.31659,-3.10258 7.88113,-5.86373 12.10031,-7.96694 4.21917,-2.10321 8.0928,-3.54838 10.02976,-4.27101 1.93695,-0.72264 1.93695,-0.72264 1.93695,-0.72264 0,0 0,0 0,0 0,0 0,0 0.8262,2.02235 z" style="fill:url(#linearGradient2576);fill-opacity:1;stroke:#036106;stroke-width:10;stroke-linecap:butt;stroke-linejoin:miter;stroke-miterlimit:4;stroke-dasharray:none;stroke-opacity:1"/><path id="path2125-0-8" d="m 719.43072,325.23451 c 0.8262,2.02235 2.47871,6.06734 3.73786,10.90521 1.25915,4.83786 2.12483,10.46835 2.26993,15.00416 0.14509,4.5358 -0.43045,7.97661 -1.15137,10.6897 -0.72091,2.71308 -1.59387,4.71358 -2.57987,6.03168 -0.986,1.3181 -2.08821,1.96128 -3.05243,2.32215 -0.96422,0.36087 -1.79021,0.43947 -2.84367,0.22705 -1.05345,-0.21241 -2.33418,-0.71565 -3.84804,-1.75248 -1.51387,-1.03683 -3.26079,-2.60703 -4.46442,-3.94248 -1.20364,-1.33545 -1.86402,-2.43601 -2.19413,-2.98616 -0.33011,-0.55015 -0.33011,-0.55015 -0.33011,-0.55015 0,0 0,0 -0.14916,0.2573 -0.14916,0.25729 -0.44748,0.77188 -0.80685,1.28359 -0.35937,0.51172 -0.77981,1.02059 -1.64325,1.52821 -0.86344,0.50763 -2.16967,1.01393 -3.66079,1.1297 -1.49111,0.11577 -3.16685,-0.15889 -4.71802,-0.94909 -1.55117,-0.79021 -2.97771,-2.0957 -4.15791,-4.00643 -1.1802,-1.91073 -2.11415,-4.42649 -2.53221,-6.90457 -0.41807,-2.47808 -0.32034,-4.91837 0.76286,-7.8605 1.0832,-2.94213 3.15176,-6.38607 6.46836,-9.48865 3.31659,-3.10258 7.88113,-5.86373 12.10031,-7.96694 4.21917,-2.10321 8.0928,-3.54838 10.02976,-4.27101 1.93695,-0.72264 1.93695,-0.72264 1.93695,-0.72264 0,0 0,0 0,0 0,0 0,0 0.8262,2.02235 z" style="fill:url(#linearGradient2486);fill-opacity:1;stroke:#97c580;stroke-width:3;stroke-linecap:butt;stroke-linejoin:miter;stroke-miterlimit:4;stroke-dasharray:none;stroke-opacity:1"/><path id="path2125-0" d="m 719.43072,325.23451 c 0.8262,2.02235 2.47871,6.06734 3.73786,10.90521 1.25915,4.83786 2.12483,10.46835 2.26993,15.00416 0.14509,4.5358 -0.43045,7.97661 -1.15137,10.6897 -0.72091,2.71308 -1.59387,4.71358 -2.57987,6.03168 -0.986,1.3181 -2.08821,1.96128 -3.05243,2.32215 -0.96422,0.36087 -1.79021,0.43947 -2.84367,0.22705 -1.05345,-0.21241 -2.33418,-0.71565 -3.84804,-1.75248 -1.51387,-1.03683 -3.26079,-2.60703 -4.46442,-3.94248 -1.20364,-1.33545 -1.86402,-2.43601 -2.19413,-2.98616 -0.33011,-0.55015 -0.33011,-0.55015 -0.33011,-0.55015 0,0 0,0 -0.14916,0.2573 -0.14916,0.25729 -0.44748,0.77188 -0.80685,1.28359 -0.35937,0.51172 -0.77981,1.02059 -1.64325,1.52821 -0.86344,0.50763 -2.16967,1.01393 -3.66079,1.1297 -1.49111,0.11577 -3.16685,-0.15889 -4.71802,-0.94909 -1.55117,-0.79021 -2.97771,-2.0957 -4.15791,-4.00643 -1.1802,-1.91073 -2.11415,-4.42649 -2.53221,-6.90457 -0.41807,-2.47808 -0.32034,-4.91837 0.76286,-7.8605 1.0832,-2.94213 3.15176,-6.38607 6.46836,-9.48865 3.31659,-3.10258 7.88113,-5.86373 12.10031,-7.96694 4.21917,-2.10321 8.0928,-3.54838 10.02976,-4.27101 1.93695,-0.72264 1.93695,-0.72264 1.93695,-0.72264 0,0 0,0 0,0 0,0 0,0 0.8262,2.02235 z" style="fill:url(#linearGradient2611);fill-opacity:1;stroke:none;stroke-width:.264583px;stroke-linecap:butt;stroke-linejoin:miter;stroke-opacity:1"/></g><g id="g2658" transform="translate(13.068633,15.557897)"><path id="path2125-1-0-7" d="m 737.774,327.64152 c 2.13446,-0.46536 6.40371,-1.39613 11.38618,-1.80281 4.98248,-0.40667 10.67791,-0.28917 15.17087,0.3495 4.49297,0.63867 7.78312,1.79851 10.3314,2.97615 2.54827,1.17764 4.36842,2.38226 5.4969,3.58065 1.12848,1.19839 1.57211,2.39495 1.76143,3.40693 0.18932,1.01198 0.12441,1.83916 -0.26635,2.84025 -0.39076,1.00108 -1.10717,2.17593 -2.38935,3.48849 -1.28218,1.31256 -3.12991,2.76278 -4.6528,3.71829 -1.52288,0.95551 -2.72078,1.41637 -3.31958,1.64674 -0.5988,0.23037 -0.5988,0.23037 -0.5988,0.23037 0,0 0,0 0.22774,0.19126 0.22774,0.19126 0.68323,0.5738 1.12537,1.01597 0.44214,0.44217 0.87095,0.94401 1.22219,1.88201 0.35124,0.938 0.62488,2.31194 0.48198,3.8007 -0.14291,1.48875 -0.70221,3.0921 -1.74789,4.4839 -1.04568,1.3918 -2.57746,2.57203 -4.66298,3.40533 -2.08551,0.83329 -4.72458,1.31976 -7.23763,1.30456 -2.51304,-0.0152 -4.9,-0.53197 -7.61147,-2.10594 -2.71146,-1.57397 -5.74744,-4.20505 -8.2321,-8.00665 -2.48466,-3.80161 -4.41796,-8.77367 -5.76268,-13.29215 -1.34472,-4.51848 -2.10078,-8.58319 -2.47884,-10.61569 -0.37806,-2.03251 -0.37806,-2.03251 -0.37806,-2.03251 0,0 0,0 0,0 0,0 0,0 2.13447,-0.46535 z" style="fill:url(#linearGradient2578);fill-opacity:1;stroke:#036106;stroke-width:10;stroke-linecap:butt;stroke-linejoin:miter;stroke-miterlimit:4;stroke-dasharray:none;stroke-opacity:1"/><path id="path2125-1-0-4" d="m 737.774,327.64152 c 2.13446,-0.46536 6.40371,-1.39613 11.38618,-1.80281 4.98248,-0.40667 10.67791,-0.28917 15.17087,0.3495 4.49297,0.63867 7.78312,1.79851 10.3314,2.97615 2.54827,1.17764 4.36842,2.38226 5.4969,3.58065 1.12848,1.19839 1.57211,2.39495 1.76143,3.40693 0.18932,1.01198 0.12441,1.83916 -0.26635,2.84025 -0.39076,1.00108 -1.10717,2.17593 -2.38935,3.48849 -1.28218,1.31256 -3.12991,2.76278 -4.6528,3.71829 -1.52288,0.95551 -2.72078,1.41637 -3.31958,1.64674 -0.5988,0.23037 -0.5988,0.23037 -0.5988,0.23037 0,0 0,0 0.22774,0.19126 0.22774,0.19126 0.68323,0.5738 1.12537,1.01597 0.44214,0.44217 0.87095,0.94401 1.22219,1.88201 0.35124,0.938 0.62488,2.31194 0.48198,3.8007 -0.14291,1.48875 -0.70221,3.0921 -1.74789,4.4839 -1.04568,1.3918 -2.57746,2.57203 -4.66298,3.40533 -2.08551,0.83329 -4.72458,1.31976 -7.23763,1.30456 -2.51304,-0.0152 -4.9,-0.53197 -7.61147,-2.10594 -2.71146,-1.57397 -5.74744,-4.20505 -8.2321,-8.00665 -2.48466,-3.80161 -4.41796,-8.77367 -5.76268,-13.29215 -1.34472,-4.51848 -2.10078,-8.58319 -2.47884,-10.61569 -0.37806,-2.03251 -0.37806,-2.03251 -0.37806,-2.03251 0,0 0,0 0,0 0,0 0,0 2.13447,-0.46535 z" style="fill:url(#linearGradient2488);fill-opacity:1;stroke:#97c580;stroke-width:3;stroke-linecap:butt;stroke-linejoin:miter;stroke-miterlimit:4;stroke-dasharray:none;stroke-opacity:1"/><path id="path2125-1-0" d="m 737.774,327.64152 c 2.13446,-0.46536 6.40371,-1.39613 11.38618,-1.80281 4.98248,-0.40667 10.67791,-0.28917 15.17087,0.3495 4.49297,0.63867 7.78312,1.79851 10.3314,2.97615 2.54827,1.17764 4.36842,2.38226 5.4969,3.58065 1.12848,1.19839 1.57211,2.39495 1.76143,3.40693 0.18932,1.01198 0.12441,1.83916 -0.26635,2.84025 -0.39076,1.00108 -1.10717,2.17593 -2.38935,3.48849 -1.28218,1.31256 -3.12991,2.76278 -4.6528,3.71829 -1.52288,0.95551 -2.72078,1.41637 -3.31958,1.64674 -0.5988,0.23037 -0.5988,0.23037 -0.5988,0.23037 0,0 0,0 0.22774,0.19126 0.22774,0.19126 0.68323,0.5738 1.12537,1.01597 0.44214,0.44217 0.87095,0.94401 1.22219,1.88201 0.35124,0.938 0.62488,2.31194 0.48198,3.8007 -0.14291,1.48875 -0.70221,3.0921 -1.74789,4.4839 -1.04568,1.3918 -2.57746,2.57203 -4.66298,3.40533 -2.08551,0.83329 -4.72458,1.31976 -7.23763,1.30456 -2.51304,-0.0152 -4.9,-0.53197 -7.61147,-2.10594 -2.71146,-1.57397 -5.74744,-4.20505 -8.2321,-8.00665 -2.48466,-3.80161 -4.41796,-8.77367 -5.76268,-13.29215 -1.34472,-4.51848 -2.10078,-8.58319 -2.47884,-10.61569 -0.37806,-2.03251 -0.37806,-2.03251 -0.37806,-2.03251 0,0 0,0 0,0 0,0 0,0 2.13447,-0.46535 z" style="fill:url(#linearGradient2613);fill-opacity:1;stroke:none;stroke-width:.264583px;stroke-linecap:butt;stroke-linejoin:miter;stroke-opacity:1"/></g></g></g></g></g><style xmlns="http://www.w3.org/2000/svg" id="style1770" type="text/css"/></svg>