<svg xmlns="http://www.w3.org/2000/svg" id="master-artboard" x="0" y="0" version="1.1" viewBox="65.31 28.33 841.2 854.41" style="enable-background:new 0 0 336 235.2"><defs><linearGradient id="gradient-0" x1="241.237" x2="241.237" y1="675.871" y2="775.871" gradientTransform="matrix(-0.0012654108336507082, -0.9999988372294004, 0.006346425990591944, -0.000008110346212444417, 229.71793987454365, 776.5607023864759)" gradientUnits="userSpaceOnUse"><stop offset="0" style="stop-color:#f79c00"/><stop offset="1" style="stop-color:#ffa90a"/></linearGradient><linearGradient id="gradient-1" x1="234" x2="234" y1="471" y2="571" gradientTransform="matrix(0.8571050687018336, -0.5151431077287489, 0.008199151115054091, 0.013641669454558211, 45.24361297460119, 624.6304983465637)" gradientUnits="userSpaceOnUse"><stop offset="0" style="stop-color:#d9d9d9"/><stop offset="1" style="stop-color:#cbcbcb"/></linearGradient><linearGradient id="gradient-2" x1="234" x2="234" y1="471" y2="571" gradientTransform="matrix(0.8687092020762066, 0.49532353673751117, -0.006038381628750358, 0.010590204001014172, 18.555517463961007, 390.18394190077277)" gradientUnits="userSpaceOnUse"><stop offset="0" style="stop-color:#333"/><stop offset="1" style="stop-color:#292929"/></linearGradient></defs><g transform="matrix(-4.8999924659729, 0.008858803659677505, -0.008858803659677505, -4.8999924659729, 1846.5793449325784, 3187.4970451598238)"><g id="g-1" transform="matrix(1, 0, 0, 1, 0, 0)"><g id="g-2"><path d="M277,546l-43,25l-43-25v-50l43-25l43,25V546z" class="st0" style="fill:#fff"/></g></g></g><g transform="matrix(-4.182153701782227, 0.007560909725725653, -0.007560909725725653, -4.182153701782227, 1677.7490226669538, 2814.728490472323)"><g id="g-3" transform="matrix(1, 0, 0, 1, 0, 0)"><g id="g-4"><path d="M277,546l-43,25l-43-25v-50l43-25l43,25V546z" class="st0" style="fill:url(#gradient-2)"/></g></g></g><g transform="matrix(-4.8999924659729, 0.008858803659677505, -0.008858803659677505, -4.8999924659729, 1635.6136466903913, 2824.5324455504488)"><g id="g-5" transform="matrix(1, 0, 0, 1, 0, 0)"><g id="g-6"><path d="M277,546l-43,25l-43-25v-50l43-25l43,25V546z" class="st0" style="fill:#fff"/></g></g></g><g transform="matrix(-4.182153701782227, 0.007560910191386938, -0.007560910191386938, -4.182153701782227, 1466.783203125, 2451.7641601562505)"><g id="g-7" transform="matrix(1, 0, 0, 1, 0, 0)"><g id="g-8"><path d="M277,546l-43,25l-43-25v-50l43-25l43,25V546z" class="st0" style="fill:url(#gradient-0)"/><path d="M 231.05662536621094 540.0606079101562" style="fill:#f79c01;fill-opacity:1;stroke:#000;stroke-opacity:1;stroke-width:0;paint-order:fill"/></g></g></g><g transform="matrix(-4.8999924659729, 0.008858803659677505, -0.008858803659677505, -4.8999924659729, 1427.6663810653913, 3188.1803947691988)"><g id="g-9" transform="matrix(1, 0, 0, 1, 0, 0)"><g id="g-10"><path d="M277,546l-43,25l-43-25v-50l43-25l43,25V546z" class="st0" style="fill:#fff"/></g></g></g><g transform="matrix(-4.182153701782227, 0.007560909725725653, -0.007560909725725653, -4.182153701782227, 1258.8360587997663, 2815.412572503573)"><g id="g-11" transform="matrix(1, 0, 0, 1, 0, 0)"><g id="g-12"><path d="M277,546l-43,25l-43-25v-50l43-25l43,25V546z" class="st0" style="fill:url(#gradient-1)"/></g></g></g><g transform="matrix(-4.8999924659729, 0.008858803659677505, -0.008858803659677505, -4.8999924659729, 1634.0981437607038, 3067.1901603941988)"><g id="g-13" transform="matrix(1, 0, 0, 1, 0, 0)"><g id="g-14"><path d="M277,546l-43,25l-43-25v-50l43-25l43,25V546z" class="st0" style="fill:#fff"/></g></g></g><g transform="matrix(-4.182153701782227, 0.007560909725725653, -0.007560909725725653, -4.182153701782227, 1465.2679435653918, 2694.4216057066988)"><g id="g-15" transform="matrix(1, 0, 0, 1, 0, 0)"><g id="g-16"><path d="M277,546l-43,25l-43-25v-50l43-25l43,25V546z" class="st0" style="fill:#333"/></g></g></g></svg>