<svg xmlns="http://www.w3.org/2000/svg" xmlns:xlink="http://www.w3.org/1999/xlink" id="Layer_1" x="0" y="0" version="1.1" viewBox="1.2 0 53.7 56.2" xml:space="preserve" style="enable-background:new 0 0 56 56"><style type="text/css">.st0{fill:url(#SVGID_1_)}.st1{fill:url(#SVGID_2_)}.st2{fill:url(#SVGID_3_)}.st3{fill:url(#SVGID_4_)}.st4{fill:url(#SVGID_5_)}.st5{fill:url(#SVGID_6_)}.st6{fill:url(#SVGID_7_)}.st7{fill:url(#SVGID_8_)}.st8{fill:url(#SVGID_9_)}.st9{fill:url(#SVGID_10_)}.st10{fill:url(#SVGID_11_)}.st11{fill:url(#SVGID_12_)}.st12{fill:url(#SVGID_13_)}.st13{fill:url(#SVGID_14_)}.st14{fill:url(#SVGID_15_)}</style><g><linearGradient id="SVGID_1_" x1="41.141" x2="47.841" y1="-11.836" y2="76.225" gradientUnits="userSpaceOnUse"><stop offset="0" style="stop-color:#f43f27"/><stop offset=".238" style="stop-color:#a80b2d"/><stop offset=".49" style="stop-color:#8e0939"/><stop offset=".731" style="stop-color:#6d0861"/><stop offset=".976" style="stop-color:#4c0783"/></linearGradient><path d="M42.5,6.8c-0.2,0-0.5,0-0.8,0c-0.5,0-1.1,0-1.6,0c-3.3,0.1-6.5,0.7-9.5,1.7l10,3.7l2.3,0.9l2.1,0.8l-3.5,15.6 c-1.4,6.9-3.9,13.4-7.3,19.4l6.5-7.4l2.3-2.6h0l0,0l0.3-0.3l3.4-3.9c0.5-0.6,0.9-1.2,1.1-2l1.2-4l0,0l5.9-19.6 C51,7.7,46.8,6.9,42.5,6.8z" class="st0"/><linearGradient id="SVGID_2_" x1="42.431" x2="-29.445" y1="9.017" y2="52.351" gradientUnits="userSpaceOnUse"><stop offset="0" style="stop-color:red"/><stop offset="1" style="stop-color:#3b36ff"/></linearGradient><path d="M42.5,6.8c-0.2,0-0.5,0-0.8,0c-0.5,0-1.1,0-1.6,0c-3.3,0.1-6.5,0.7-9.5,1.7l10,3.7l2.3,0.9l2.1,0.8l9.7-4.6 C51,7.7,46.8,6.9,42.5,6.8z" class="st1"/><linearGradient id="SVGID_3_" x1="35.298" x2="-36.578" y1="1.69" y2="45.024" gradientUnits="userSpaceOnUse"><stop offset="0" style="stop-color:red"/><stop offset="1" style="stop-color:#3b36ff"/></linearGradient><path d="M9.2,22.8c0.5,0.5,0.9,1.1,1.4,1.6c1.1,1.1,2.2,2.2,3.3,3.2l-1.4-6.1L12,18.9l-1.1-5L28,7.5l0,0 c3.7-1.3,7.8-2.1,11.9-2.1c0.1,0,0.1,0,0.2,0c0.7,0,1.5,0,2.2,0.1c1,0.1,2,0.2,2.9,0.3l-3-1.1l-2.5-0.9l-5.6-2l-4.3-1.5 c-1.1-0.4-2.4-0.4-3.5,0L21.4,2L5.9,7.5h0L1.2,9.2C3.1,14.2,5.8,18.8,9.2,22.8z" class="st2"/><linearGradient id="SVGID_4_" x1="64.4" x2=".008" y1="-1.643" y2="21.069" gradientUnits="userSpaceOnUse"><stop offset="0" style="stop-color:#f43f27"/><stop offset=".238" style="stop-color:#a80b2d"/><stop offset=".49" style="stop-color:#8e0939"/><stop offset=".731" style="stop-color:#6d0861"/><stop offset=".976" style="stop-color:#4c0783"/></linearGradient><path d="M9.2,22.8c0.5,0.5,0.9,1.1,1.4,1.6c1.1,1.1,2.2,2.2,3.3,3.2l-1.4-6.1L12,18.9l-1.1-5L1.2,9.2 C3.1,14.2,5.8,18.8,9.2,22.8z" class="st3"/><linearGradient id="SVGID_5_" x1="67.203" x2="2.81" y1="18.726" y2="41.437" gradientUnits="userSpaceOnUse"><stop offset="0" style="stop-color:#f43f27"/><stop offset=".238" style="stop-color:#a80b2d"/><stop offset=".49" style="stop-color:#8e0939"/><stop offset=".731" style="stop-color:#6d0861"/><stop offset=".976" style="stop-color:#4c0783"/></linearGradient><path d="M33.6,37.5l-2.7,2.3L28,42.1L14.9,31.4c-1.9-1.5-3.6-3.2-5.3-5.1c-0.5-0.5-1-1.1-1.4-1.7 c-1.7-2.2-3.2-4.5-4.5-6.9l2.7,9.1l0,0l0.3,1.1l0.9,3.1l0.6,1.9c0.2,0.7,0.6,1.4,1.1,2c0.5,0.5,1.1,1.3,1.9,2.2 c0.5,0.6,1.1,1.3,1.7,2h0c5.7,6.5,14.7,16.8,15,17.1c4.8-6.7,8.5-14.4,10.6-22.6L33.6,37.5z" class="st4"/><linearGradient id="SVGID_6_" x1="29.686" x2="36.386" y1="-2.43" y2="85.631" gradientUnits="userSpaceOnUse"><stop offset="0" style="stop-color:#f43f27"/><stop offset=".238" style="stop-color:#a80b2d"/><stop offset=".49" style="stop-color:#8e0939"/><stop offset=".731" style="stop-color:#6d0861"/><stop offset=".976" style="stop-color:#4c0783"/></linearGradient><path d="M33.6,37.5l-2.7,2.3L28,42.1c0,0,0,11.5,0,13.9c4.8-6.7,8.5-14.4,10.6-22.6L33.6,37.5z" class="st5"/><linearGradient id="SVGID_7_" x1="1.134" x2="10.946" y1="11.557" y2="11.557" gradientUnits="userSpaceOnUse"><stop offset="0" style="stop-color:#8133bd"/><stop offset="1" style="stop-color:#ff4f00"/></linearGradient><polygon points="10.8 14 1.2 9.2 10.9 13.7" class="st6"/><linearGradient id="SVGID_8_" x1="10.829" x2="25.467" y1="11.211" y2="11.211" gradientUnits="userSpaceOnUse"><stop offset="0" style="stop-color:#da3347"/><stop offset="1" style="stop-color:#ff4f00"/></linearGradient><polygon points="10.8 13.7 25.4 8.5 10.9 14" class="st7"/><linearGradient id="SVGID_9_" x1="27.974" x2="27.974" y1="55.124" y2="42.115" gradientUnits="userSpaceOnUse"><stop offset="0" style="stop-color:#8e0939"/><stop offset="1" style="stop-color:#da3c13"/></linearGradient><polygon points="28.1 42.1 28 55.1 27.8 42.1" class="st8"/><linearGradient id="SVGID_10_" x1="54.866" x2="44.943" y1="11.629" y2="11.629" gradientUnits="userSpaceOnUse"><stop offset="0" style="stop-color:#da3347"/><stop offset="1" style="stop-color:#ff4f00"/></linearGradient><polygon points="44.9 13.8 54.8 9.2 45.1 14.1" class="st9"/><linearGradient id="SVGID_11_" x1="10.735" x2="14.137" y1="20.713" y2="20.713" gradientUnits="userSpaceOnUse"><stop offset="0" style="stop-color:#ff4f00"/><stop offset="1" style="stop-color:#4c00ec"/></linearGradient><polygon points="11 13.8 14 27.6 10.7 13.9" class="st10"/><linearGradient id="SVGID_12_" x1="38.669" x2="27.879" y1="37.812" y2="37.812" gradientUnits="userSpaceOnUse"><stop offset="0" style="stop-color:#8e0939"/><stop offset="1" style="stop-color:#da3c13"/></linearGradient><polygon points="27.9 42 38.6 33.4 28.1 42.2" class="st11"/><linearGradient id="SVGID_13_" x1="21.553" x2="21.553" y1="31.354" y2="42.231" gradientUnits="userSpaceOnUse"><stop offset="0" style="stop-color:#5e09b8"/><stop offset="1" style="stop-color:#da3c13"/></linearGradient><polygon points="27.9 42.2 15 31.5 28.1 42" class="st12"/><linearGradient id="SVGID_14_" x1="43.072" x2="43.072" y1="32.429" y2="13.745" gradientUnits="userSpaceOnUse"><stop offset="0" style="stop-color:#da3347"/><stop offset="1" style="stop-color:#ff4f00"/></linearGradient><polygon points="45.2 13.8 40.9 32.4 44.9 13.7" class="st13"/><linearGradient id="SVGID_15_" x1="37.887" x2="37.887" y1="8.35" y2="13.999" gradientUnits="userSpaceOnUse"><stop offset="0" style="stop-color:#da3347"/><stop offset="1" style="stop-color:#ff4f00"/></linearGradient><polygon points="45 14 30.6 8.5 45.1 13.7" class="st14"/></g></svg>