<svg style="max-height: 500px" xml:space="preserve" xmlns:xlink="http://www.w3.org/1999/xlink" xmlns="http://www.w3.org/2000/svg" version="1.1" viewBox="0 0 127.635 144.07762557077626" class="main-logo" width="127.635" height="144.07762557077626"><g transform="matrix(1,0,0,1,-241.103,-448)"><g transform="matrix(2.01087,0,0,0.436444,-396.636,420.751)"><g transform="matrix(0.497297,0,0,2.29124,200.877,-183.962)"><path style="fill:rgb(220, 53, 34);fill-rule:nonzero;" d="M443.857,179.805C443.341,185.266 441.325,189.525 437.81,192.584C434.294,195.643 429.618,197.172 423.782,197.172C419.704,197.172 416.113,196.205 413.007,194.271C409.902,192.338 407.505,189.59 405.818,186.027C404.13,182.465 403.251,178.328 403.181,173.617L403.181,168.836C403.181,164.008 404.036,159.754 405.747,156.074C407.458,152.394 409.913,149.559 413.113,147.566C416.312,145.574 420.009,144.578 424.204,144.578C429.853,144.578 434.4,146.107 437.845,149.166C441.29,152.225 443.294,156.555 443.857,162.156L434.997,162.156C434.575,158.477 433.503,155.822 431.781,154.193C430.058,152.564 427.532,151.75 424.204,151.75C420.337,151.75 417.366,153.163 415.292,155.99C413.218,158.817 412.157,162.963 412.111,168.429L412.111,172.969C412.111,178.505 413.101,182.727 415.081,185.636C417.062,188.545 419.962,190 423.782,190C427.275,190 429.9,189.215 431.657,187.644C433.415,186.074 434.529,183.461 434.997,179.805L443.857,179.805Z"/></g><g transform="matrix(0.497297,0,0,2.29124,200.877,-183.962)"><path style="fill:rgb(220, 53, 34);fill-rule:nonzero;" d="M449.376,177.098C449.376,173.371 450.115,170.014 451.591,167.025C453.068,164.037 455.142,161.74 457.814,160.135C460.486,158.529 463.556,157.727 467.025,157.727C472.157,157.727 476.323,159.379 479.523,162.684C482.722,165.988 484.45,170.371 484.708,175.832L484.743,177.836C484.743,181.586 484.023,184.937 482.581,187.891C481.14,190.844 479.077,193.129 476.394,194.746C473.71,196.363 470.611,197.172 467.095,197.172C461.728,197.172 457.433,195.385 454.21,191.81C450.988,188.236 449.376,183.473 449.376,177.519L449.376,177.098ZM457.919,177.836C457.919,181.75 458.728,184.814 460.345,187.029C461.962,189.244 464.212,190.352 467.095,190.352C469.978,190.352 472.222,189.227 473.827,186.977C475.433,184.727 476.236,181.434 476.236,177.098C476.236,173.254 475.409,170.207 473.757,167.957C472.105,165.707 469.861,164.582 467.025,164.582C464.236,164.582 462.021,165.689 460.38,167.904C458.74,170.119 457.919,173.43 457.919,177.836Z"/></g><g transform="matrix(0.497297,0,0,2.29124,200.877,-183.962)"><rect style="fill:rgb(220, 53, 34);fill-rule:nonzero;" height="54" width="8.543" y="142.469" x="492.513"/></g><g transform="matrix(0.497297,0,0,2.29124,200.877,-183.962)"><path style="fill:rgb(220, 53, 34);fill-rule:nonzero;" d="M508.755,177.098C508.755,173.371 509.493,170.014 510.97,167.025C512.447,164.037 514.521,161.74 517.193,160.135C519.865,158.529 522.935,157.727 526.404,157.727C531.536,157.727 535.702,159.379 538.902,162.684C542.101,165.988 543.829,170.371 544.087,175.832L544.122,177.836C544.122,181.586 543.402,184.937 541.96,187.891C540.519,190.844 538.456,193.129 535.773,194.746C533.089,196.363 529.99,197.172 526.474,197.172C521.107,197.172 516.812,195.385 513.589,191.81C510.366,188.236 508.755,183.473 508.755,177.519L508.755,177.098ZM517.298,177.836C517.298,181.75 518.107,184.814 519.724,187.029C521.341,189.244 523.591,190.352 526.474,190.352C529.357,190.352 531.601,189.227 533.206,186.977C534.812,184.727 535.615,181.434 535.615,177.098C535.615,173.254 534.788,170.207 533.136,167.957C531.484,165.707 529.24,164.582 526.404,164.582C523.615,164.582 521.4,165.689 519.759,167.904C518.118,170.119 517.298,173.43 517.298,177.836Z"/></g><g transform="matrix(0.497297,0,0,2.29124,200.877,-183.962)"><path style="fill:rgb(220, 53, 34);fill-rule:nonzero;" d="M571.263,166.234C570.138,166.047 568.978,165.953 567.782,165.953C563.868,165.953 561.232,167.453 559.872,170.453L559.872,196.469L551.329,196.469L551.329,158.43L559.486,158.43L559.697,162.684C561.759,159.379 564.618,157.727 568.275,157.727C569.493,157.727 570.501,157.891 571.298,158.219L571.263,166.234Z"/></g><g class="main-logo__text-designer"><g transform="matrix(0.497297,0,0,2.29124,206.348,-183.962)"><path style="fill:white;fill-rule:nonzero;" d="M577.486,196.469L577.486,145.281L592.603,145.281C597.126,145.281 601.14,146.289 604.644,148.305C608.148,150.32 610.861,153.18 612.782,156.883C614.704,160.586 615.665,164.828 615.665,169.609L615.665,172.176C615.665,177.027 614.698,181.293 612.765,184.973C610.831,188.652 608.077,191.488 604.503,193.48C600.929,195.473 596.833,196.469 592.216,196.469L577.486,196.469ZM586.38,152.453L586.38,189.367L592.181,189.367C596.845,189.367 600.425,187.908 602.921,184.99C605.417,182.072 606.689,177.883 606.736,172.422L606.736,169.574C606.736,164.019 605.529,159.777 603.115,156.848C600.7,153.918 597.197,152.453 592.603,152.453L586.38,152.453Z"/></g><g transform="matrix(0.497297,0,0,2.29124,206.348,-183.962)"><path style="fill:white;fill-rule:nonzero;" d="M640.45,197.172C635.036,197.172 630.648,195.467 627.284,192.057C623.921,188.646 622.24,184.105 622.24,178.434L622.24,177.379C622.24,173.582 622.972,170.189 624.437,167.201C625.902,164.213 627.958,161.887 630.607,160.223C633.255,158.559 636.208,157.727 639.466,157.727C644.646,157.727 648.648,159.379 651.472,162.684C654.296,165.988 655.708,170.664 655.708,176.711L655.708,180.156L630.853,180.156C631.111,183.297 632.159,185.781 633.999,187.609C635.839,189.437 638.154,190.352 640.943,190.352C644.857,190.352 648.044,188.769 650.505,185.605L655.111,190C653.587,192.273 651.554,194.037 649.011,195.291C646.468,196.545 643.615,197.172 640.45,197.172ZM639.431,164.582C637.087,164.582 635.195,165.402 633.753,167.043C632.312,168.684 631.392,170.969 630.993,173.898L647.271,173.898L647.271,173.266C647.083,170.406 646.322,168.244 644.986,166.779C643.65,165.314 641.798,164.582 639.431,164.582Z"/></g><g transform="matrix(0.497297,0,0,2.29124,206.348,-183.962)"><path style="fill:white;fill-rule:nonzero;" d="M683.657,186.133C683.657,184.609 683.031,183.449 681.777,182.652C680.523,181.855 678.443,181.152 675.536,180.543C672.63,179.934 670.204,179.16 668.259,178.223C663.993,176.16 661.861,173.172 661.861,169.258C661.861,165.977 663.243,163.234 666.009,161.031C668.775,158.828 672.29,157.727 676.556,157.727C681.103,157.727 684.777,158.852 687.577,161.102C690.378,163.352 691.779,166.269 691.779,169.855L683.236,169.855C683.236,168.215 682.626,166.85 681.407,165.76C680.189,164.67 678.572,164.125 676.556,164.125C674.681,164.125 673.152,164.559 671.968,165.426C670.784,166.293 670.193,167.453 670.193,168.906C670.193,170.219 670.743,171.238 671.845,171.965C672.947,172.691 675.173,173.424 678.525,174.162C681.876,174.9 684.507,175.779 686.417,176.799C688.327,177.818 689.745,179.043 690.671,180.473C691.597,181.902 692.06,183.637 692.06,185.676C692.06,189.098 690.642,191.869 687.806,193.99C684.97,196.111 681.255,197.172 676.661,197.172C673.544,197.172 670.767,196.609 668.329,195.484C665.892,194.359 663.993,192.812 662.634,190.844C661.275,188.875 660.595,186.754 660.595,184.48L668.892,184.48C669.009,186.496 669.771,188.049 671.177,189.139C672.583,190.228 674.447,190.773 676.767,190.773C679.017,190.773 680.728,190.346 681.9,189.49C683.072,188.635 683.657,187.516 683.657,186.133Z"/></g><g transform="matrix(0.497297,0,0,2.29124,206.348,-183.962)"><path style="fill:white;fill-rule:nonzero;" d="M708.583,196.469L700.04,196.469L700.04,158.43L708.583,158.43L708.583,196.469ZM699.513,148.551C699.513,147.238 699.929,146.148 700.761,145.281C701.593,144.414 702.782,143.98 704.329,143.98C705.876,143.98 707.072,144.414 707.915,145.281C708.759,146.148 709.181,147.238 709.181,148.551C709.181,149.84 708.759,150.912 707.915,151.768C707.072,152.623 705.876,153.051 704.329,153.051C702.782,153.051 701.593,152.623 700.761,151.768C699.929,150.912 699.513,149.84 699.513,148.551Z"/></g><g transform="matrix(0.497297,0,0,2.29124,206.348,-183.962)"><path style="fill:white;fill-rule:nonzero;" d="M716.388,177.168C716.388,171.262 717.777,166.545 720.554,163.018C723.331,159.49 727.017,157.727 731.611,157.727C735.947,157.727 739.357,159.238 741.841,162.262L742.228,158.43L749.927,158.43L749.927,195.309C749.927,200.301 748.374,204.238 745.269,207.121C742.163,210.004 737.974,211.445 732.7,211.445C729.911,211.445 727.187,210.865 724.527,209.705C721.866,208.545 719.845,207.027 718.462,205.152L722.505,200.019C725.13,203.137 728.365,204.695 732.208,204.695C735.044,204.695 737.282,203.928 738.923,202.393C740.564,200.857 741.384,198.602 741.384,195.625L741.384,193.059C738.923,195.801 735.642,197.172 731.54,197.172C727.087,197.172 723.449,195.402 720.624,191.863C717.8,188.324 716.388,183.426 716.388,177.168ZM724.896,177.906C724.896,181.727 725.675,184.732 727.234,186.924C728.792,189.115 730.954,190.211 733.72,190.211C737.165,190.211 739.72,188.734 741.384,185.781L741.384,169.047C739.767,166.164 737.236,164.723 733.79,164.723C730.978,164.723 728.792,165.836 727.234,168.062C725.675,170.289 724.896,173.57 724.896,177.906Z"/></g><g transform="matrix(0.497297,0,0,2.29124,206.348,-183.962)"><path style="fill:white;fill-rule:nonzero;" d="M766.626,158.43L766.872,162.824C769.685,159.426 773.376,157.727 777.947,157.727C785.868,157.727 789.9,162.262 790.04,171.332L790.04,196.469L781.497,196.469L781.497,171.824C781.497,169.41 780.976,167.623 779.933,166.463C778.89,165.303 777.185,164.723 774.818,164.723C771.372,164.723 768.806,166.281 767.118,169.398L767.118,196.469L758.575,196.469L758.575,158.43L766.626,158.43Z"/></g><g transform="matrix(0.497297,0,0,2.29124,206.348,-183.962)"><path style="fill:white;fill-rule:nonzero;" d="M815.493,197.172C810.079,197.172 805.691,195.467 802.327,192.057C798.964,188.646 797.282,184.105 797.282,178.434L797.282,177.379C797.282,173.582 798.015,170.189 799.48,167.201C800.945,164.213 803.001,161.887 805.65,160.223C808.298,158.559 811.251,157.727 814.509,157.727C819.689,157.727 823.691,159.379 826.515,162.684C829.339,165.988 830.751,170.664 830.751,176.711L830.751,180.156L805.896,180.156C806.154,183.297 807.202,185.781 809.042,187.609C810.882,189.437 813.197,190.352 815.986,190.352C819.9,190.352 823.087,188.769 825.548,185.605L830.154,190C828.63,192.273 826.597,194.037 824.054,195.291C821.511,196.545 818.657,197.172 815.493,197.172ZM814.474,164.582C812.13,164.582 810.238,165.402 808.796,167.043C807.355,168.684 806.435,170.969 806.036,173.898L822.314,173.898L822.314,173.266C822.126,170.406 821.365,168.244 820.029,166.779C818.693,165.314 816.841,164.582 814.474,164.582Z"/></g><g transform="matrix(0.497297,0,0,2.29124,206.348,-183.962)"><path style="fill:white;fill-rule:nonzero;" d="M857.294,166.234C856.169,166.047 855.009,165.953 853.814,165.953C849.9,165.953 847.263,167.453 845.904,170.453L845.904,196.469L837.361,196.469L837.361,158.43L845.517,158.43L845.728,162.684C847.79,159.379 850.65,157.727 854.306,157.727C855.525,157.727 856.532,157.891 857.329,158.219L857.294,166.234Z"/></g></g></g><g transform="matrix(1,0,0,1,-138.236,0)" class="main-logo__icon"><g transform="matrix(1,0,0,1,-2.28326,0)" class="main-logo__top"><path style="fill:#dc3522;" d="M387.979,480L443.405,448L498.831,480L443.405,512L387.979,480Z"/><path style="fill:#e77164;" d="M387.979,480L443.405,448L498.831,480L443.405,512L387.979,480Z"/><path style="fill:#ee9a90;" d="M387.979,480L443.405,448L498.831,480L443.405,512L387.979,480Z"/></g><g transform="matrix(0.5,-0.866025,0.866025,0.5,-162.228,682.968)" class="main-logo__right"><path style="fill:#283593;" d="M387.979,480L443.405,448L498.831,480L443.405,512L387.979,480Z"/><path style="fill:#4d5dcf;" d="M387.979,480L443.405,448L498.831,480L443.405,512L387.979,480Z"/><path style="fill:#808bdc;" d="M387.979,480L443.405,448L498.831,480L443.405,512L387.979,480Z"/></g><g transform="matrix(0.5,0.866025,-0.866025,0.5,601.042,-85.0182)" class="main-logo__left"><path style="fill:#f9a825;" d="M387.979,480L443.405,448L498.831,480L443.405,512L387.979,480Z"/><path style="fill:#fbc266;" d="M387.979,480L443.405,448L498.831,480L443.405,512L387.979,480Z"/><path style="fill:#fcd492;" d="M387.979,480L443.405,448L498.831,480L443.405,512L387.979,480Z"/></g></g></g></svg>