<svg xmlns="http://www.w3.org/2000/svg" xmlns:svg="http://www.w3.org/2000/svg" xmlns:xlink="http://www.w3.org/1999/xlink" id="svg2" version="1.1" viewBox="97.33 103.81 204.36 191.77"><defs id="defs3"><linearGradient id="linearGradient3"><stop style="stop-color:#4d8cff;stop-opacity:1" id="stop3" offset="0"/><stop style="stop-color:#ff21ff;stop-opacity:1" id="stop4" offset="1"/></linearGradient><linearGradient id="linearGradient4" x1="20" x2="66.666" y1="41.894" y2="41.894" gradientTransform="matrix(1.5,0,0,1.5,-21.6665,-20.947)" gradientUnits="userSpaceOnUse" xlink:href="#linearGradient3"/></defs><g id="g2" transform="translate(73 77.38)scale(2.91954)" style="stroke-width:1.00015756;stroke-dasharray:none"><defs id="defs2"><linearGradient id="a"><stop id="stop1" offset="0" stop-color="#4d8cff"/><stop id="stop2" offset="1" stop-color="#ff21ff"/></linearGradient></defs><path id="path2" d="m 8.3335,20.1965 c 0,-6.12 5.022,-11.1435 11.1435,-11.1435 1.491,0 2.7465,1.2555 2.7465,2.7465 0,1.491 -1.2555,2.7465 -2.7465,2.7465 -3.1395,0 -5.6505,2.511 -5.6505,5.6505 0,3.1395 2.511,5.6505 5.6505,5.6505 a 5.625,5.625 0 0 0 5.6505,-5.6505 c 0,-1.491 1.2555,-2.7465 2.745,-2.7465 1.4895,0 2.748,1.2555 2.748,2.7465 0,5.1795 -3.6105,9.5745 -8.397,10.83 v 40.965 c 0,1.4895 -1.2555,2.745 -2.7465,2.745 -1.491,0 -2.7465,-1.2555 -2.7465,-2.745 V 31.0265 C 11.944,29.771 8.3335,25.376 8.3335,20.1965 m 32.175,-8.397 v 40.965 a 11.19,11.19 0 0 0 -8.397,10.83 c 0,6.12 5.022,11.142 11.1435,11.142 6.1215,0 11.1435,-5.022 11.1435,-11.1435 0,-1.491 -1.2555,-2.745 -2.7465,-2.745 -1.491,0 -2.7465,1.254 -2.7465,2.745 0,3.1395 -2.511,5.6505 -5.6505,5.6505 -3.1395,0 -5.6505,-2.511 -5.6505,-5.6505 0,-3.1395 2.511,-5.6505 5.6505,-5.6505 1.491,0 2.7465,-1.2555 2.7465,-2.745 V 11.798 c 0,-1.491 -1.2555,-2.7465 -2.7465,-2.7465 -1.491,0 -2.7465,1.1775 -2.7465,2.7465 m 26.6025,2.7465 c 1.491,0 2.7465,-1.2555 2.7465,-2.745 0,-1.4895 -1.254,-2.7465 -2.745,-2.7465 -6.1215,0 -11.145,5.022 -11.145,11.1435 0,5.1795 3.6105,9.5745 8.397,10.83 v 40.965 c 0,1.4895 1.2555,2.745 2.7465,2.745 1.491,0 2.7465,-1.2555 2.7465,-2.745 v -40.965 c 4.866,-1.2555 8.475,-5.6505 8.475,-10.83 0,-1.491 -1.254,-2.7465 -2.745,-2.7465 -1.491,0 -2.748,1.2555 -2.748,2.7465 0,3.1395 -2.511,5.6505 -5.649,5.6505 -3.138,0 -5.6505,-2.511 -5.6505,-5.6505 0,-3.1395 2.511,-5.6505 5.571,-5.6505" style="fill:url(#linearGradient4);stroke-width:1.50024;stroke-dasharray:none"/></g></svg>