<svg xmlns="http://www.w3.org/2000/svg" xmlns:svg="http://www.w3.org/2000/svg" id="svg3986" width="1024" height="1024" version="1.1" viewBox="0 0 270.933 270.933"><metadata id="metadata3983"/><g id="layer1" transform="translate(0,-26.06664)"><circle style="fill:#263238;stroke-width:.27892935;fill-opacity:1" id="path3988" cx="135.467" cy="161.533" r="135.467"/><path id="path3956" d="m 101.308,132.16117 h 16.93329 V 115.22788 H 101.308 Z m 25.40002,50.80004 h 16.93329 v -16.93329 h -16.93329 z m -25.40002,0 h 16.93329 V 166.02792 H 101.308 Z m 0,-25.40002 h 16.93329 V 140.6279 H 101.308 Z m 25.40002,0 h 16.93329 V 140.6279 h -16.93329 z m 25.40002,-42.33331 v 16.93329 h 16.9333 v -16.93329 z m -25.40002,16.93329 h 16.93329 v -16.93329 h -16.93329 z m 25.40002,25.40002 h 16.9333 V 140.6279 h -16.9333 z m 0,25.40002 h 16.9333 v -16.93329 h -16.9333 z" style="fill:#87deaa;fill-opacity:1;stroke-width:4.23333549"/><path style="fill:none;stroke-width:.26458332" id="path3958" d="m 266.23268,103.74289 h 6.35 v 6.35 h -6.35 z"/><path style="fill:none;stroke-width:5.64444447" id="path3968" d="M 20.345565,50.140393 H 155.81223 V 185.60706 H 20.345565 Z"/><path id="path3970" d="M 200.01758,85.496958 H 70.131207 c -7.937481,0 -14.4318,7.14361 -14.4318,15.874822 v 95.25016 c 0,8.73123 6.494319,15.87512 14.4318,15.87512 h 50.511383 v 15.87512 h -14.43183 v 15.87483 h 57.72729 v -15.87483 h -14.43183 v -15.87512 h 50.51136 c 7.9375,0 14.43182,-7.14389 14.43182,-15.87512 v -95.25016 c 0,-8.731212 -6.49432,-15.874822 -14.43182,-15.874822 z m 0,111.124982 H 70.131207 V 101.37178 H 200.01758 Z" style="fill:#fff;fill-opacity:1;stroke-width:7.5681138"/></g></svg>