<svg xmlns="http://www.w3.org/2000/svg" fill="none" viewBox="1 0 99.6 99.73"><defs><linearGradient id="paint0_linear_1340_94" x1=".07" x2=".531" y1=".701" y2=".339"><stop stop-color="#FF9EFA"/><stop offset=".423" stop-color="#F55C15" stop-opacity=".84"/><stop offset="1" stop-color="#6B13F5"/></linearGradient><linearGradient id="paint1_linear_1340_94" x1=".615" x2=".452" y1=".516" y2="1.057"><stop stop-color="#A73394" stop-opacity="0"/><stop offset="1" stop-color="#6B13F5"/></linearGradient><linearGradient id="paint2_linear_1340_94" x1=".936" x2=".433" y1=".978" y2=".614"><stop offset=".385" stop-color="#6B13F5"/><stop offset="1" stop-color="#E2606E" stop-opacity="0"/></linearGradient><linearGradient id="paint3_linear_1340_94" x1=".281" x2=".326" y1=".053" y2=".426"><stop offset=".182" stop-color="#6B13F5"/><stop offset="1" stop-color="#CB4758" stop-opacity="0"/></linearGradient><linearGradient id="paint4_linear_1340_94" x1=".717" x2=".413" y1=".404" y2=".589"><stop stop-color="#6B13F5"/><stop offset="1" stop-color="#E46373" stop-opacity="0"/></linearGradient><radialGradient id="paint5_radial_1340_94" cx="0" cy="0" r="1" gradientTransform="translate(38.6489 53.1074) rotate(176.204) scale(52.7244 138.365)" gradientUnits="userSpaceOnUse"><stop stop-color="#F55C15" stop-opacity=".46"/><stop offset=".832" stop-color="#EE82C6" stop-opacity="0"/></radialGradient><radialGradient id="paint6_radial_1340_94" cx="0" cy="0" r="1" gradientTransform="translate(-1.49331 68.0673) rotate(-19.7843) scale(36.8309 36.7807)" gradientUnits="userSpaceOnUse"><stop stop-color="#FF9EFA"/><stop offset="1" stop-color="#DD5A68" stop-opacity="0"/></radialGradient><linearGradient id="paint7_linear_1340_94" x1="-.167" x2="1.422" y1="2.021" y2=".772"><stop stop-color="#FF9EFA"/><stop offset=".423" stop-color="#F55C15" stop-opacity=".84"/><stop offset="1" stop-color="#6B13F5"/></linearGradient><linearGradient id="paint8_linear_1340_94" x1="1.713" x2="1.151" y1="1.382" y2="3.252"><stop stop-color="#A73394" stop-opacity="0"/><stop offset="1" stop-color="#6B13F5"/></linearGradient><linearGradient id="paint9_linear_1340_94" x1="2.817" x2="1.083" y1="2.98" y2="1.721"><stop offset=".385" stop-color="#6B13F5"/><stop offset="1" stop-color="#E2606E" stop-opacity="0"/></linearGradient><linearGradient id="paint10_linear_1340_94" x1=".56" x2=".715" y1="-.217" y2="1.072"><stop offset=".182" stop-color="#6B13F5"/><stop offset="1" stop-color="#CB4758" stop-opacity="0"/></linearGradient><linearGradient id="paint11_linear_1340_94" x1="2.061" x2="1.015" y1=".994" y2="1.634"><stop stop-color="#6B13F5"/><stop offset="1" stop-color="#E46373" stop-opacity="0"/></linearGradient><radialGradient id="paint12_radial_1340_94" cx="0" cy="0" r="1" gradientTransform="translate(38.6489 53.1074) rotate(176.204) scale(52.7244 138.365)" gradientUnits="userSpaceOnUse"><stop stop-color="#F55C15" stop-opacity=".46"/><stop offset=".832" stop-color="#EE82C6" stop-opacity="0"/></radialGradient><radialGradient id="paint13_radial_1340_94" cx="0" cy="0" r="1" gradientTransform="translate(-1.49331 68.0673) rotate(-19.7843) scale(36.8309 36.7807)" gradientUnits="userSpaceOnUse"><stop stop-color="#FF9EFA"/><stop offset="1" stop-color="#DD5A68" stop-opacity="0"/></radialGradient><linearGradient id="paint14_linear_1340_94" x1="-2.164" x2="-.778" y1="1.685" y2=".011"><stop stop-color="#FF9EFA"/><stop offset=".423" stop-color="#F55C15" stop-opacity=".84"/><stop offset="1" stop-color="#6B13F5"/></linearGradient><linearGradient id="paint15_linear_1340_94" x1="-.525" x2="-1.015" y1=".828" y2="3.333"><stop stop-color="#A73394" stop-opacity="0"/><stop offset="1" stop-color="#6B13F5"/></linearGradient><linearGradient id="paint16_linear_1340_94" x1=".438" x2="-1.074" y1="2.969" y2="1.283"><stop offset=".385" stop-color="#6B13F5"/><stop offset="1" stop-color="#E2606E" stop-opacity="0"/></linearGradient><linearGradient id="paint17_linear_1340_94" x1="-1.53" x2="-1.395" y1="-1.313" y2=".413"><stop offset=".182" stop-color="#6B13F5"/><stop offset="1" stop-color="#CB4758" stop-opacity="0"/></linearGradient><linearGradient id="paint18_linear_1340_94" x1="-.221" x2="-1.133" y1=".309" y2="1.166"><stop stop-color="#6B13F5"/><stop offset="1" stop-color="#E46373" stop-opacity="0"/></linearGradient><radialGradient id="paint19_radial_1340_94" cx="0" cy="0" r="1" gradientTransform="translate(38.6489 53.1074) rotate(176.204) scale(52.7244 138.365)" gradientUnits="userSpaceOnUse"><stop stop-color="#F55C15" stop-opacity=".46"/><stop offset=".832" stop-color="#EE82C6" stop-opacity="0"/></radialGradient><radialGradient id="paint20_radial_1340_94" cx="0" cy="0" r="1" gradientTransform="translate(-1.49331 68.0673) rotate(-19.7843) scale(36.8309 36.7807)" gradientUnits="userSpaceOnUse"><stop stop-color="#FF9EFA"/><stop offset="1" stop-color="#DD5A68" stop-opacity="0"/></radialGradient><linearGradient id="paint21_linear_1340_94" x1="-1.215" x2=".913" y1="-.267" y2="-1.357"><stop stop-color="#FF9EFA"/><stop offset=".423" stop-color="#F55C15" stop-opacity=".84"/><stop offset="1" stop-color="#6B13F5"/></linearGradient><linearGradient id="paint22_linear_1340_94" x1="1.302" x2=".549" y1="-.825" y2=".806"><stop stop-color="#A73394" stop-opacity="0"/><stop offset="1" stop-color="#6B13F5"/></linearGradient><linearGradient id="paint23_linear_1340_94" x1="2.781" x2=".459" y1=".569" y2="-.529"><stop offset=".385" stop-color="#6B13F5"/><stop offset="1" stop-color="#E2606E" stop-opacity="0"/></linearGradient><linearGradient id="paint24_linear_1340_94" x1="-.242" x2="-.035" y1="-2.219" y2="-1.096"><stop offset=".182" stop-color="#6B13F5"/><stop offset="1" stop-color="#CB4758" stop-opacity="0"/></linearGradient><linearGradient id="paint25_linear_1340_94" x1="1.769" x2=".368" y1="-1.163" y2="-.605"><stop stop-color="#6B13F5"/><stop offset="1" stop-color="#E46373" stop-opacity="0"/></linearGradient><radialGradient id="paint26_radial_1340_94" cx="0" cy="0" r="1" gradientTransform="translate(38.6489 53.1074) rotate(176.204) scale(52.7244 138.365)" gradientUnits="userSpaceOnUse"><stop stop-color="#F55C15" stop-opacity=".46"/><stop offset=".832" stop-color="#EE82C6" stop-opacity="0"/></radialGradient><radialGradient id="paint27_radial_1340_94" cx="0" cy="0" r="1" gradientTransform="translate(-1.49331 68.0673) rotate(-19.7843) scale(36.8309 36.7807)" gradientUnits="userSpaceOnUse"><stop stop-color="#FF9EFA"/><stop offset="1" stop-color="#DD5A68" stop-opacity="0"/></radialGradient></defs><g><title>Layer 1</title><path id="svg_1" fill="url(#paint0_linear_1340_94)" d="m64.3092,0.25939c-4.1929,-1.1235 -8.4669,1.51363 -9.3435,5.7651l-3.9773,19.29131c-2.598,12.601 -12.4419,22.4495 -25.0417,25.0534l-18.92383,3.9109c-4.251,0.8785 -6.88689,5.1528 -5.7634,9.3457c1.12362,4.1934 5.54433,6.5771 9.66533,5.2115l18.41589,-6.1022c12.2444,-4.0572 25.7288,-0.4441 34.3041,9.1918l12.89862,14.4938c2.8855,3.2424 7.90472,3.3885 10.974,0.3193c3.06969,-3.06969 2.923,-8.0899 -0.3205,-10.9752l-14.58791,-12.9763c-9.6622,-8.5949 -13.2851,-22.1139 -9.2158,-34.3887l6.12553,-18.47702c1.36591,-4.11993 -1.01701,-8.54 -5.20959,-9.66339l0.00002,0l0.00002,0l0.00001,0l0.00001,0l0.00001,0z"/><path id="svg_2" fill="url(#paint1_linear_1340_94)" fill-opacity=".46" d="m64.3092,0.25939c-4.1929,-1.1235 -8.4669,1.51363 -9.3435,5.7651l-3.9773,19.29131c-2.598,12.601 -12.4419,22.4495 -25.0417,25.0534l-18.92383,3.9109c-4.251,0.8785 -6.88689,5.1528 -5.7634,9.3457c1.12362,4.1934 5.54433,6.5771 9.66533,5.2115l18.41589,-6.1022c12.2444,-4.0572 25.7288,-0.4441 34.3041,9.1918l12.89862,14.4938c2.8855,3.2424 7.90472,3.3885 10.974,0.3193c3.06969,-3.06969 2.923,-8.0899 -0.3205,-10.9752l-14.58791,-12.9763c-9.6622,-8.5949 -13.2851,-22.1139 -9.2158,-34.3887l6.12553,-18.47702c1.36591,-4.11993 -1.01701,-8.54 -5.20959,-9.66339l0.00002,0l0.00002,0l0.00001,0l0.00001,0l0.00001,0z"/><path id="svg_3" fill="url(#paint2_linear_1340_94)" fill-opacity=".66" d="m64.3092,0.25939c-4.1929,-1.1235 -8.4669,1.51363 -9.3435,5.7651l-3.9773,19.29131c-2.598,12.601 -12.4419,22.4495 -25.0417,25.0534l-18.92383,3.9109c-4.251,0.8785 -6.88689,5.1528 -5.7634,9.3457c1.12362,4.1934 5.54433,6.5771 9.66533,5.2115l18.41589,-6.1022c12.2444,-4.0572 25.7288,-0.4441 34.3041,9.1918l12.89862,14.4938c2.8855,3.2424 7.90472,3.3885 10.974,0.3193c3.06969,-3.06969 2.923,-8.0899 -0.3205,-10.9752l-14.58791,-12.9763c-9.6622,-8.5949 -13.2851,-22.1139 -9.2158,-34.3887l6.12553,-18.47702c1.36591,-4.11993 -1.01701,-8.54 -5.20959,-9.66339l0.00002,0l0.00002,0l0.00001,0l0.00001,0l0.00001,0z"/><path id="svg_4" fill="url(#paint3_linear_1340_94)" fill-opacity=".67" d="m64.3092,0.25939c-4.1929,-1.1235 -8.4669,1.51363 -9.3435,5.7651l-3.9773,19.29131c-2.598,12.601 -12.4419,22.4495 -25.0417,25.0534l-18.92383,3.9109c-4.251,0.8785 -6.88689,5.1528 -5.7634,9.3457c1.12362,4.1934 5.54433,6.5771 9.66533,5.2115l18.41589,-6.1022c12.2444,-4.0572 25.7288,-0.4441 34.3041,9.1918l12.89862,14.4938c2.8855,3.2424 7.90472,3.3885 10.974,0.3193c3.06969,-3.06969 2.923,-8.0899 -0.3205,-10.9752l-14.58791,-12.9763c-9.6622,-8.5949 -13.2851,-22.1139 -9.2158,-34.3887l6.12553,-18.47702c1.36591,-4.11993 -1.01701,-8.54 -5.20959,-9.66339l0.00002,0l0.00002,0l0.00001,0l0.00001,0l0.00001,0z"/><path id="svg_5" fill="url(#paint4_linear_1340_94)" d="m64.3092,0.25939c-4.1929,-1.1235 -8.4669,1.51363 -9.3435,5.7651l-3.9773,19.29131c-2.598,12.601 -12.4419,22.4495 -25.0417,25.0534l-18.92383,3.9109c-4.251,0.8785 -6.88689,5.1528 -5.7634,9.3457c1.12362,4.1934 5.54433,6.5771 9.66533,5.2115l18.41589,-6.1022c12.2444,-4.0572 25.7288,-0.4441 34.3041,9.1918l12.89862,14.4938c2.8855,3.2424 7.90472,3.3885 10.974,0.3193c3.06969,-3.06969 2.923,-8.0899 -0.3205,-10.9752l-14.58791,-12.9763c-9.6622,-8.5949 -13.2851,-22.1139 -9.2158,-34.3887l6.12553,-18.47702c1.36591,-4.11993 -1.01701,-8.54 -5.20959,-9.66339l0.00002,0l0.00002,0l0.00001,0l0.00001,0l0.00001,0z"/><path id="svg_6" fill="url(#paint5_radial_1340_94)" fill-opacity=".94" d="m64.3092,0.25939c-4.1929,-1.1235 -8.4669,1.51363 -9.3435,5.7651l-3.9773,19.29131c-2.598,12.601 -12.4419,22.4495 -25.0417,25.0534l-18.92383,3.9109c-4.251,0.8785 -6.88689,5.1528 -5.7634,9.3457c1.12362,4.1934 5.54433,6.5771 9.66533,5.2115l18.41589,-6.1022c12.2444,-4.0572 25.7288,-0.4441 34.3041,9.1918l12.89862,14.4938c2.8855,3.2424 7.90472,3.3885 10.974,0.3193c3.06969,-3.06969 2.923,-8.0899 -0.3205,-10.9752l-14.58791,-12.9763c-9.6622,-8.5949 -13.2851,-22.1139 -9.2158,-34.3887l6.12553,-18.47702c1.36591,-4.11993 -1.01701,-8.54 -5.20959,-9.66339l0.00002,0l0.00002,0l0.00001,0l0.00001,0l0.00001,0z"/><path id="svg_7" fill="url(#paint6_radial_1340_94)" fill-opacity=".1" d="m64.3092,0.25939c-4.1929,-1.1235 -8.4669,1.51363 -9.3435,5.7651l-3.9773,19.29131c-2.598,12.601 -12.4419,22.4495 -25.0417,25.0534l-18.92383,3.9109c-4.251,0.8785 -6.88689,5.1528 -5.7634,9.3457c1.12362,4.1934 5.54433,6.5771 9.66533,5.2115l18.41589,-6.1022c12.2444,-4.0572 25.7288,-0.4441 34.3041,9.1918l12.89862,14.4938c2.8855,3.2424 7.90472,3.3885 10.974,0.3193c3.06969,-3.06969 2.923,-8.0899 -0.3205,-10.9752l-14.58791,-12.9763c-9.6622,-8.5949 -13.2851,-22.1139 -9.2158,-34.3887l6.12553,-18.47702c1.36591,-4.11993 -1.01701,-8.54 -5.20959,-9.66339l0.00002,0l0.00002,0l0.00001,0l0.00001,0l0.00001,0z"/><path id="svg_8" fill="url(#paint7_linear_1340_94)" d="m14.1852,24.3911c-3.429,-3.1024 -3.5624,-8.4435 -0.2926,-11.7132c3.2697,-3.26978 8.6107,-3.13634 11.7131,0.2926l9.7534,10.7801c2.6309,2.9078 2.5194,7.3677 -0.2533,10.1405c-2.7728,2.7728 -7.2328,2.8842 -10.1405,0.2533l-10.7801,-9.7533z"/><path id="svg_9" fill="url(#paint8_linear_1340_94)" fill-opacity=".46" d="m14.1852,24.3911c-3.429,-3.1024 -3.5624,-8.4435 -0.2926,-11.7132c3.2697,-3.26978 8.6107,-3.13634 11.7131,0.2926l9.7534,10.7801c2.6309,2.9078 2.5194,7.3677 -0.2533,10.1405c-2.7728,2.7728 -7.2328,2.8842 -10.1405,0.2533l-10.7801,-9.7533z"/><path id="svg_10" fill="url(#paint9_linear_1340_94)" fill-opacity=".66" d="m14.1852,24.3911c-3.429,-3.1024 -3.5624,-8.4435 -0.2926,-11.7132c3.2697,-3.26978 8.6107,-3.13634 11.7131,0.2926l9.7534,10.7801c2.6309,2.9078 2.5194,7.3677 -0.2533,10.1405c-2.7728,2.7728 -7.2328,2.8842 -10.1405,0.2533l-10.7801,-9.7533z"/><path id="svg_11" fill="url(#paint10_linear_1340_94)" fill-opacity=".67" d="m14.1852,24.3911c-3.429,-3.1024 -3.5624,-8.4435 -0.2926,-11.7132c3.2697,-3.26978 8.6107,-3.13634 11.7131,0.2926l9.7534,10.7801c2.6309,2.9078 2.5194,7.3677 -0.2533,10.1405c-2.7728,2.7728 -7.2328,2.8842 -10.1405,0.2533l-10.7801,-9.7533z"/><path id="svg_12" fill="url(#paint11_linear_1340_94)" d="m14.1852,24.3911c-3.429,-3.1024 -3.5624,-8.4435 -0.2926,-11.7132c3.2697,-3.26978 8.6107,-3.13634 11.7131,0.2926l9.7534,10.7801c2.6309,2.9078 2.5194,7.3677 -0.2533,10.1405c-2.7728,2.7728 -7.2328,2.8842 -10.1405,0.2533l-10.7801,-9.7533z"/><path id="svg_13" fill="url(#paint12_radial_1340_94)" fill-opacity=".94" d="m14.1852,24.3911c-3.429,-3.1024 -3.5624,-8.4435 -0.2926,-11.7132c3.2697,-3.26978 8.6107,-3.13634 11.7131,0.2926l9.7534,10.7801c2.6309,2.9078 2.5194,7.3677 -0.2533,10.1405c-2.7728,2.7728 -7.2328,2.8842 -10.1405,0.2533l-10.7801,-9.7533z"/><path id="svg_14" fill="url(#paint13_radial_1340_94)" fill-opacity=".1" d="m14.1852,24.3911c-3.429,-3.1024 -3.5624,-8.4435 -0.2926,-11.7132c3.2697,-3.26978 8.6107,-3.13634 11.7131,0.2926l9.7534,10.7801c2.6309,2.9078 2.5194,7.3677 -0.2533,10.1405c-2.7728,2.7728 -7.2328,2.8842 -10.1405,0.2533l-10.7801,-9.7533z"/><path id="svg_15" fill="url(#paint14_linear_1340_94)" d="m90.0279,30.3514c4.4013,-1.4184 9.0935,1.1366 10.2901,5.6031c1.197,4.4666 -1.5891,9.0253 -6.1099,9.9976l-14.2124,3.0567c-3.83369,0.8245 -7.6404,-1.502 -8.6553,-5.2897c-1.0149,-3.7877 1.1186,-7.7058 4.8508,-8.9086l13.8367,-4.4591z"/><path id="svg_16" fill="url(#paint15_linear_1340_94)" fill-opacity=".46" d="m90.0279,30.3514c4.4013,-1.4184 9.0935,1.1366 10.2901,5.6031c1.197,4.4666 -1.5891,9.0253 -6.1099,9.9976l-14.2124,3.0567c-3.83369,0.8245 -7.6404,-1.502 -8.6553,-5.2897c-1.0149,-3.7877 1.1186,-7.7058 4.8508,-8.9086l13.8367,-4.4591z"/><path id="svg_17" fill="url(#paint16_linear_1340_94)" fill-opacity=".66" d="m90.0279,30.3514c4.4013,-1.4184 9.0935,1.1366 10.2901,5.6031c1.197,4.4666 -1.5891,9.0253 -6.1099,9.9976l-14.2124,3.0567c-3.83369,0.8245 -7.6404,-1.502 -8.6553,-5.2897c-1.0149,-3.7877 1.1186,-7.7058 4.8508,-8.9086l13.8367,-4.4591z"/><path id="svg_18" fill="url(#paint17_linear_1340_94)" fill-opacity=".67" d="m90.0279,30.3514c4.4013,-1.4184 9.0935,1.1366 10.2901,5.6031c1.197,4.4666 -1.5891,9.0253 -6.1099,9.9976l-14.2124,3.0567c-3.83369,0.8245 -7.6404,-1.502 -8.6553,-5.2897c-1.0149,-3.7877 1.1186,-7.7058 4.8508,-8.9086l13.8367,-4.4591z"/><path id="svg_19" fill="url(#paint18_linear_1340_94)" d="m90.0279,30.3514c4.4013,-1.4184 9.0935,1.1366 10.2901,5.6031c1.197,4.4666 -1.5891,9.0253 -6.1099,9.9976l-14.2124,3.0567c-3.83369,0.8245 -7.6404,-1.502 -8.6553,-5.2897c-1.0149,-3.7877 1.1186,-7.7058 4.8508,-8.9086l13.8367,-4.4591z"/><path id="svg_20" fill="url(#paint19_radial_1340_94)" fill-opacity=".94" d="m90.0279,30.3514c4.4013,-1.4184 9.0935,1.1366 10.2901,5.6031c1.197,4.4666 -1.5891,9.0253 -6.1099,9.9976l-14.2124,3.0567c-3.83369,0.8245 -7.6404,-1.502 -8.6553,-5.2897c-1.0149,-3.7877 1.1186,-7.7058 4.8508,-8.9086l13.8367,-4.4591z"/><path id="svg_21" fill="url(#paint20_radial_1340_94)" fill-opacity=".1" d="m90.0279,30.3514c4.4013,-1.4184 9.0935,1.1366 10.2901,5.6031c1.197,4.4666 -1.5891,9.0253 -6.1099,9.9976l-14.2124,3.0567c-3.83369,0.8245 -7.6404,-1.502 -8.6553,-5.2897c-1.0149,-3.7877 1.1186,-7.7058 4.8508,-8.9086l13.8367,-4.4591z"/><path id="svg_22" fill="url(#paint21_linear_1340_94)" d="m46.5794,93.3443c-0.9723,4.5208 -5.531,7.3067 -9.9976,6.1101c-4.4666,-1.1969 -7.0215,-5.889 -5.6032,-10.2903l4.4592,-13.8367c1.2027,-3.7322 5.1209,-5.8657 8.9086,-4.8508c3.7876,1.0149 6.1141,4.8216 5.2896,8.6552l-3.0566,14.2125z"/><path id="svg_23" fill="url(#paint22_linear_1340_94)" fill-opacity=".46" d="m46.5794,93.3443c-0.9723,4.5208 -5.531,7.3067 -9.9976,6.1101c-4.4666,-1.1969 -7.0215,-5.889 -5.6032,-10.2903l4.4592,-13.8367c1.2027,-3.7322 5.1209,-5.8657 8.9086,-4.8508c3.7876,1.0149 6.1141,4.8216 5.2896,8.6552l-3.0566,14.2125z"/><path id="svg_24" fill="url(#paint23_linear_1340_94)" fill-opacity=".66" d="m46.5794,93.3443c-0.9723,4.5208 -5.531,7.3067 -9.9976,6.1101c-4.4666,-1.1969 -7.0215,-5.889 -5.6032,-10.2903l4.4592,-13.8367c1.2027,-3.7322 5.1209,-5.8657 8.9086,-4.8508c3.7876,1.0149 6.1141,4.8216 5.2896,8.6552l-3.0566,14.2125z"/><path id="svg_25" fill="url(#paint24_linear_1340_94)" fill-opacity=".67" d="m46.5794,93.3443c-0.9723,4.5208 -5.531,7.3067 -9.9976,6.1101c-4.4666,-1.1969 -7.0215,-5.889 -5.6032,-10.2903l4.4592,-13.8367c1.2027,-3.7322 5.1209,-5.8657 8.9086,-4.8508c3.7876,1.0149 6.1141,4.8216 5.2896,8.6552l-3.0566,14.2125z"/><path id="svg_26" fill="url(#paint25_linear_1340_94)" d="m46.5794,93.3443c-0.9723,4.5208 -5.531,7.3067 -9.9976,6.1101c-4.4666,-1.1969 -7.0215,-5.889 -5.6032,-10.2903l4.4592,-13.8367c1.2027,-3.7322 5.1209,-5.8657 8.9086,-4.8508c3.7876,1.0149 6.1141,4.8216 5.2896,8.6552l-3.0566,14.2125z"/><path id="svg_27" fill="url(#paint26_radial_1340_94)" fill-opacity=".94" d="m46.5794,93.3443c-0.9723,4.5208 -5.531,7.3067 -9.9976,6.1101c-4.4666,-1.1969 -7.0215,-5.889 -5.6032,-10.2903l4.4592,-13.8367c1.2027,-3.7322 5.1209,-5.8657 8.9086,-4.8508c3.7876,1.0149 6.1141,4.8216 5.2896,8.6552l-3.0566,14.2125z"/><path id="svg_28" fill="url(#paint27_radial_1340_94)" fill-opacity=".1" d="m46.5794,93.3443c-0.9723,4.5208 -5.531,7.3067 -9.9976,6.1101c-4.4666,-1.1969 -7.0215,-5.889 -5.6032,-10.2903l4.4592,-13.8367c1.2027,-3.7322 5.1209,-5.8657 8.9086,-4.8508c3.7876,1.0149 6.1141,4.8216 5.2896,8.6552l-3.0566,14.2125z"/></g></svg>