<svg xmlns="http://www.w3.org/2000/svg" xmlns:svg="http://www.w3.org/2000/svg" id="svg10" version="1.1" viewBox="0.04 -1.13 62.99 60.24"><g id="g10" stroke-width="1.123" transform="matrix(0.89089,0,0,0.89089,-2448.3,-532.77)"><g id="g9" transform="matrix(1.7622,0,0,1.7622,2470.4,445.42)"><circle id="circle8" cx="166.69" cy="95.647" r="9.048" stroke-width=".637"/><rect id="rect8" width="15.875" height="15.875" x="158.75" y="108.33" stroke-width=".637" rx="4.233" ry="4.233"/><path id="path8" stroke-width=".61" d="m 69.514,58.833 h -1.7806 -10.247 a 2.4441,2.4441 60 0 1 -2.1167,-3.6662 l 6.0139,-10.416 a 2.4441,2.4441 2.522e-7 0 1 4.2333,0 l 6.0139,10.416 a 2.4441,2.4441 120 0 1 -2.1167,3.6662 z" transform="matrix(0.91132,0.52615,0.52615,-0.91132,101.23,110.53)"/><path id="path9" stroke-width="6.37" d="m 116.31,-194.99 c 0.87946,0 1.5875,0.70801 1.5875,1.5875 v 12.7 c 0,0.87946 -0.70802,1.5875 -1.5875,1.5875 -0.87948,0 -1.5875,-0.70802 -1.5875,-1.5875 v -12.7 c 0,-0.87946 0.70801,-1.5875 1.5875,-1.5875 z m -7.9375,7.9375 c 0,-0.87946 0.70802,-1.5875 1.5875,-1.5875 h 12.7 c 0.87946,0 1.5875,0.70802 1.5875,1.5875 0,0.87947 -0.70802,1.5875 -1.5875,1.5875 h -12.7 c -0.87947,0 -1.5875,-0.70802 -1.5875,-1.5875 z" transform="rotate(90)"/></g></g></svg>