<svg xmlns="http://www.w3.org/2000/svg" fill="none" viewBox="0 40 63.4 84"><path fill="url(#paint0_linear_2626_5860)" d="M0 98.6416H25.3585V111.321C25.3585 118.323 19.6818 124 12.6792 124V124C5.67669 124 0 118.323 0 111.321V98.6416Z"/><path fill="url(#paint1_linear_2626_5860)" d="M0 69.3208H50.717C57.7195 69.3208 63.3962 74.9975 63.3962 82V82C63.3962 89.0026 57.7195 94.6793 50.717 94.6793H0V69.3208Z"/><path fill="url(#paint2_linear_2626_5860)" d="M0 60C0 48.9543 8.9543 40 20 40H50.717C57.7195 40 63.3962 45.6767 63.3962 52.6792V52.6792C63.3962 59.6818 57.7195 65.3585 50.717 65.3585H0V60Z"/><mask id="mask0_2626_5860" width="64" height="84" x="0" y="40" maskUnits="userSpaceOnUse" style="mask-type:alpha"><path fill="url(#paint3_linear_2626_5860)" d="M0 98.6416H25.3585V111.321C25.3585 118.323 19.6818 124 12.6792 124V124C5.67669 124 0 118.323 0 111.321V98.6416Z"/><path fill="url(#paint4_linear_2626_5860)" d="M0 69.3208H50.717C57.7195 69.3208 63.3962 74.9975 63.3962 82V82C63.3962 89.0026 57.7195 94.6793 50.717 94.6793H0V69.3208Z"/><path fill="url(#paint5_linear_2626_5860)" d="M0 60C0 48.9543 8.9543 40 20 40H50.717C57.7195 40 63.3962 45.6767 63.3962 52.6792V52.6792C63.3962 59.6818 57.7195 65.3585 50.717 65.3585H0V60Z"/></mask><defs><filter id="filter0_d_2626_5860" width="60.453" height="108" x="-2" y="28" color-interpolation-filters="sRGB" filterUnits="userSpaceOnUse"><feFlood flood-opacity="0" result="BackgroundImageFix"/><feColorMatrix in="SourceAlpha" result="hardAlpha" type="matrix" values="0 0 0 0 0 0 0 0 0 0 0 0 0 0 0 0 0 0 127 0"/><feOffset dx="10"/><feGaussianBlur stdDeviation="6"/><feComposite in2="hardAlpha" operator="out"/><feColorMatrix type="matrix" values="0 0 0 0 0 0 0 0 0 0 0 0 0 0 0 0 0 0 0.25 0"/><feBlend in2="BackgroundImageFix" mode="normal" result="effect1_dropShadow_2626_5860"/><feBlend in="SourceGraphic" in2="effect1_dropShadow_2626_5860" mode="normal" result="shape"/></filter><filter id="filter1_f_2626_5860" width="87.547" height="87.547" x="-51.698" y="69.132" color-interpolation-filters="sRGB" filterUnits="userSpaceOnUse"><feFlood flood-opacity="0" result="BackgroundImageFix"/><feBlend in="SourceGraphic" in2="BackgroundImageFix" mode="normal" result="shape"/><feGaussianBlur result="effect1_foregroundBlur_2626_5860" stdDeviation="10"/></filter><filter id="filter2_f_2626_5860" width="87.547" height="87.547" x="-51.698" y="8.906" color-interpolation-filters="sRGB" filterUnits="userSpaceOnUse"><feFlood flood-opacity="0" result="BackgroundImageFix"/><feBlend in="SourceGraphic" in2="BackgroundImageFix" mode="normal" result="shape"/><feGaussianBlur result="effect1_foregroundBlur_2626_5860" stdDeviation="10"/></filter><linearGradient id="paint0_linear_2626_5860" x1="25.469" x2="-.002" y1="110.861" y2="110.964" gradientUnits="userSpaceOnUse"><stop stop-color="#00E6CA"/><stop offset="1" stop-color="#00C4B8"/></linearGradient><linearGradient id="paint1_linear_2626_5860" x1="63.672" x2="0" y1="81.541" y2="82.184" gradientUnits="userSpaceOnUse"><stop stop-color="#00E6CA"/><stop offset="1" stop-color="#00C4B8"/></linearGradient><linearGradient id="paint2_linear_2626_5860" x1="63.672" x2="0" y1="52.22" y2="52.863" gradientUnits="userSpaceOnUse"><stop stop-color="#00E6CA"/><stop offset="1" stop-color="#00C4B8"/></linearGradient><linearGradient id="paint3_linear_2626_5860" x1="25.469" x2="-.002" y1="110.861" y2="110.964" gradientUnits="userSpaceOnUse"><stop stop-color="#00FFE1"/><stop offset="1" stop-color="#01E0C6"/></linearGradient><linearGradient id="paint4_linear_2626_5860" x1="63.672" x2="0" y1="81.541" y2="82.184" gradientUnits="userSpaceOnUse"><stop stop-color="#00FFE1"/><stop offset="1" stop-color="#01E0C6"/></linearGradient><linearGradient id="paint5_linear_2626_5860" x1="63.672" x2="0" y1="52.22" y2="52.863" gradientUnits="userSpaceOnUse"><stop stop-color="#00FFE1"/><stop offset="1" stop-color="#01E0C6"/></linearGradient></defs></svg>