<svg xmlns="http://www.w3.org/2000/svg" xmlns:svg="http://www.w3.org/2000/svg" xmlns:xlink="http://www.w3.org/1999/xlink" id="svg8915" version="1.1" viewBox="0.85 13.24 104.11 79.35"><defs id="defs8909"><linearGradient id="linearGradient4496"><stop style="stop-color:#7f3fbf;stop-opacity:1" id="stop4492" offset="0"/><stop style="stop-color:#7f72f2;stop-opacity:1" id="stop4494" offset="1"/></linearGradient><linearGradient id="linearGradient4416"><stop id="stop4412" offset="0" style="stop-color:#7f40c0;stop-opacity:1"/><stop id="stop4414" offset="1" style="stop-color:#a275d2;stop-opacity:1"/></linearGradient><linearGradient id="linearGradient4410"><stop id="stop4406" offset="0" style="stop-color:#7f40c0;stop-opacity:1"/><stop id="stop4408" offset="1" style="stop-color:#a275d2;stop-opacity:1"/></linearGradient><linearGradient id="linearGradient4404"><stop style="stop-color:#7f72f2;stop-opacity:1" id="stop4400" offset="0"/><stop style="stop-color:#9f6fd0;stop-opacity:1" id="stop4402" offset="1"/></linearGradient><linearGradient id="linearGradient4396"><stop id="stop4392" offset="0" style="stop-color:#e7738b;stop-opacity:.98039216"/><stop style="stop-color:#7f7fff;stop-opacity:1" id="stop4398" offset=".515"/><stop id="stop4394" offset="1" style="stop-color:#7f4dcd;stop-opacity:1"/></linearGradient><linearGradient id="linearGradient4384"><stop id="stop4380" offset="0" style="stop-color:#7f7fff;stop-opacity:1"/><stop id="stop4382" offset="1" style="stop-color:#7f40c0;stop-opacity:1"/></linearGradient><linearGradient id="linearGradient4378"><stop id="stop4374" offset="0" style="stop-color:#7f3fbf;stop-opacity:1"/><stop id="stop4376" offset="1" style="stop-color:#7f7fff;stop-opacity:1"/></linearGradient><linearGradient id="linearGradient4306" x1="53.763" x2="122.736" y1="71.965" y2="71.965" gradientTransform="matrix(0.62246557,0,0,0.62246557,-77.651624,199.95728)" gradientUnits="userSpaceOnUse" xlink:href="#linearGradient4384"/><linearGradient id="linearGradient4308" x1="53.763" x2="122.736" y1="85.754" y2="85.754" gradientTransform="matrix(0.62246557,0,0,0.62246557,-77.651624,199.95728)" gradientUnits="userSpaceOnUse" xlink:href="#linearGradient4396"/><linearGradient id="linearGradient4310" x1="53.763" x2="122.736" y1="58.116" y2="58.116" gradientTransform="matrix(0.62246557,0,0,0.62246557,-77.651624,199.95728)" gradientUnits="userSpaceOnUse" xlink:href="#linearGradient4378"/><linearGradient id="linearGradient12748" x1="26.04" x2="64.626" y1="222.32" y2="222.32" gradientTransform="matrix(1.0045019,0,0,1.0045019,0.56073769,-2.9638779)" gradientUnits="userSpaceOnUse" xlink:href="#linearGradient4384"/><linearGradient id="linearGradient12750" x1="81.583" x2="84.991" y1="229.259" y2="228.145" gradientTransform="matrix(1.0227701,0,0,0.99640094,-0.89916348,-1.1885545)" gradientUnits="userSpaceOnUse" xlink:href="#linearGradient4378"/><linearGradient id="linearGradient12752" x1="80.975" x2="66.861" y1="235.888" y2="234.008" gradientTransform="matrix(1.0045019,0,0,1.0045019,0.27716492,-2.9899236)" gradientUnits="userSpaceOnUse" xlink:href="#linearGradient4384"/><linearGradient id="linearGradient12754" x1="84.991" x2="96.201" y1="236.784" y2="239.773" gradientTransform="matrix(1.0045019,0,0,1.0045019,0.41752182,-2.9899236)" gradientUnits="userSpaceOnUse" xlink:href="#linearGradient4416"/><linearGradient id="linearGradient12756" x1="60.396" x2="73.893" y1="249.921" y2="249.921" gradientTransform="matrix(0.97277856,-0.25045134,0.25045134,0.97277856,-63.305015,23.44802)" gradientUnits="userSpaceOnUse" xlink:href="#linearGradient4396"/><linearGradient id="linearGradient12758" x1="60.396" x2="73.998" y1="249.921" y2="246.419" gradientTransform="matrix(1.0045019,0,0,1.0045019,0.41752182,-2.9899236)" gradientUnits="userSpaceOnUse" xlink:href="#linearGradient4384"/><linearGradient id="linearGradient12760" x1="81.501" x2="81.501" y1="238.47" y2="234.061" gradientTransform="matrix(1.0045019,0,0,1.0045019,0.41752182,-2.9899236)" gradientUnits="userSpaceOnUse" xlink:href="#linearGradient4378"/><linearGradient id="linearGradient12762" x1="9.442" x2="38.053" y1="230.943" y2="215.072" gradientTransform="matrix(1.0045019,0,0,1.0045019,0.41752182,-2.9899236)" gradientUnits="userSpaceOnUse" xlink:href="#linearGradient4384"/><linearGradient id="linearGradient12764" x1="84.991" x2="94.987" y1="226.436" y2="226.436" gradientTransform="matrix(1.0045019,0,0,1.0045019,0.41752182,-2.9899236)" gradientUnits="userSpaceOnUse" xlink:href="#linearGradient4410"/><linearGradient id="linearGradient12766" x1="84.991" x2="104.035" y1="228.645" y2="228.645" gradientTransform="matrix(1.0045019,0,0,1.0045019,0.35677641,-3.1308719)" gradientUnits="userSpaceOnUse" xlink:href="#linearGradient4416"/><linearGradient id="linearGradient12768" x1="96.59" x2="104.035" y1="242.796" y2="242.796" gradientTransform="matrix(1.0045019,0,0,1.0045019,0.41752182,-2.9899236)" gradientUnits="userSpaceOnUse" xlink:href="#linearGradient4416"/><linearGradient id="linearGradient12770" x1="72.01" x2="86.771" y1="206.126" y2="217.413" gradientTransform="matrix(1.0045019,0,0,1.0045019,0.41752182,-2.9899236)" gradientUnits="userSpaceOnUse" xlink:href="#linearGradient4384"/><linearGradient id="linearGradient12772" x1="59.247" x2="91.807" y1="206.352" y2="213.095" gradientTransform="matrix(1.0045019,0,0,1.0045019,0.41752182,-2.9899236)" gradientUnits="userSpaceOnUse" xlink:href="#linearGradient4404"/><linearGradient id="linearGradient12774" x1="26.04" x2="68.748" y1="215.48" y2="215.48" gradientTransform="matrix(1.0045019,0,0,1.0045019,0.41752182,-2.9899236)" gradientUnits="userSpaceOnUse" xlink:href="#linearGradient4384"/><linearGradient id="linearGradient12776" x1="70.027" x2="81.221" y1="217.563" y2="220.569" gradientTransform="matrix(1.0045019,0,0,1.0045019,0.41752182,-2.9899236)" gradientUnits="userSpaceOnUse" xlink:href="#linearGradient4416"/><linearGradient id="linearGradient12778" x1="73.416" x2="87.14" y1="223.024" y2="226.436" gradientTransform="matrix(1.0045019,0,0,1.0045019,0.41752182,-2.9899236)" gradientUnits="userSpaceOnUse" xlink:href="#linearGradient4410"/><linearGradient id="linearGradient12780" x1="66.433" x2="81.84" y1="233.674" y2="231.384" gradientTransform="matrix(1.0045019,0,0,1.0045019,0.41752182,-2.9899236)" gradientUnits="userSpaceOnUse" xlink:href="#linearGradient4378"/><linearGradient id="linearGradient12782" x1="60.739" x2="49.058" y1="229.791" y2="233.949" gradientTransform="matrix(1.0045019,0,0,1.0045019,0.41752182,-2.9899236)" gradientUnits="userSpaceOnUse" xlink:href="#linearGradient4496"/><linearGradient id="linearGradient12784" x1="21.345" x2="57.505" y1="235.817" y2="232.276" gradientTransform="matrix(1.0045019,0,0,1.0045019,0.41752182,-2.9899236)" gradientUnits="userSpaceOnUse" xlink:href="#linearGradient4384"/><linearGradient id="linearGradient12786" x1=".454" x2="47.829" y1="245.291" y2="245.291" gradientTransform="matrix(1.0045019,0,0,1.0045019,0.41752182,-2.9899236)" gradientUnits="userSpaceOnUse" xlink:href="#linearGradient4396"/><linearGradient id="linearGradient12788" x1="3.069" x2="47.829" y1="248.205" y2="248.205" gradientTransform="matrix(1.0045019,0,0,1.0045019,0.58274884,-3.0446776)" gradientUnits="userSpaceOnUse" xlink:href="#linearGradient4396"/><linearGradient id="linearGradient12790" x1="25.745" x2="35.366" y1="247.439" y2="259.479" gradientTransform="matrix(1.0045019,0,0,1.0045019,0.41752182,-2.9899236)" gradientUnits="userSpaceOnUse" xlink:href="#linearGradient4396"/><linearGradient id="linearGradient12792" x1="26.822" x2="47.829" y1="250.599" y2="257.936" gradientTransform="matrix(1.0045019,0,0,1.0045019,0.41752182,-2.9899236)" gradientUnits="userSpaceOnUse" xlink:href="#linearGradient4396"/><linearGradient id="linearGradient12794" x1="47.829" x2="72.466" y1="252.619" y2="252.619" gradientTransform="matrix(1.0045019,0,0,1.0045019,0.41752182,-2.9899236)" gradientUnits="userSpaceOnUse" xlink:href="#linearGradient4396"/><linearGradient id="linearGradient12796" x1="47.829" x2="69.111" y1="255.665" y2="255.665" gradientTransform="matrix(1.0045019,0,0,1.0045019,0.41752182,-2.9899236)" gradientUnits="userSpaceOnUse" xlink:href="#linearGradient4396"/><linearGradient id="linearGradient12798" x1="29.911" x2="50.259" y1="255.24" y2="262.247" gradientTransform="matrix(1.0045019,0,0,1.0045019,0.41752182,-2.9899236)" gradientUnits="userSpaceOnUse" xlink:href="#linearGradient4396"/><linearGradient id="linearGradient12800" x1="47.829" x2="65.866" y1="258.903" y2="258.903" gradientTransform="matrix(1.0045019,0,0,1.0045019,0.41752182,-2.9899236)" gradientUnits="userSpaceOnUse" xlink:href="#linearGradient4396"/><linearGradient id="linearGradient12802" x1="39.275" x2="57.17" y1="261.412" y2="266.467" gradientTransform="matrix(1.0045019,0,0,1.0045019,0.41752182,-2.9899236)" gradientUnits="userSpaceOnUse" xlink:href="#linearGradient4396"/><linearGradient id="linearGradient12804" x1="47.829" x2="60.346" y1="260.431" y2="260.431" gradientTransform="matrix(1.0045019,0,0,1.0045019,0.41752182,-2.9899236)" gradientUnits="userSpaceOnUse" xlink:href="#linearGradient4396"/><linearGradient id="linearGradient12806" x1="54.119" x2="73.556" y1="231.456" y2="257.896" gradientTransform="matrix(0.97277856,-0.25045134,0.25045134,0.97277856,-63.212397,23.438084)" gradientUnits="userSpaceOnUse" xlink:href="#linearGradient4396"/></defs><metadata id="metadata8912"/><g id="layer1" transform="translate(0,-191.16665)"><path id="path12686" d="m 49.851059,204.61298 c -5.396121,4.08122 -18.122022,14.09137 -22.826843,17.81418 -0.188958,0.14952 3.781692,-0.1975 3.585697,-0.0643 -6.119298,4.15721 -13.540016,8.34323 -19.930763,12.47871 l 5.046532,-1.04637 -5.932535,9.11167 -8.549218,9.22457 5.2326063,-2.04245 -2.6098116,7.74601 6.8863213,-3.69976 -5.4262214,11.75209 7.1202924,-5.29575 5.750576,16.58357 2.695765,-3.68403 12.122651,6.49086 0.751735,-2.3059 17.621238,5.61238 -0.405082,-2.45665 9.859682,1.43087 -0.77135,-2.83999 6.20323,-4.03597 -1.1232,-2.31285 4.29275,-5.18043 -0.307374,-1.17131 3.84473,-5.31418 0.005,0.006 0.045,0.101 -2.989175,-25.94675 28.513336,1.94559 -0.862393,10.71688 5.838615,-5.35527 1.22494,-10.17053 -9.251681,-12.2096 -7.920433,-3.46821 -8.229291,-10.54428 0.0304,-0.0173 -0.0466,-0.003 -0.005,-0.006 -0.008,0.005 z" style="opacity:1;fill:#7f40c0;fill-opacity:1;fill-rule:nonzero;stroke:none;stroke-width:.0186693"/><path id="path3437" style="fill:#000;stroke-width:.0822478"/><path style="fill:#ac2f13;fill-opacity:1;stroke-width:.35411" id="path1918" transform="matrix(0.26458334,0,0,0.26458334,0,191.16665)"/><g id="g5693"><g id="g3004"><path id="path2512" d="m 69.279335,212.24695 c 0,0 -42.489296,10.28816 -42.537603,10.28798 l 46.732861,-2.89626 z" style="fill:url(#linearGradient12748);fill-opacity:1;fill-rule:nonzero;stroke:none;stroke-width:.0188694"/><path style="fill:url(#linearGradient12752);fill-opacity:1;fill-rule:nonzero;stroke:none;stroke-width:.0188694" id="path2534" d="m 48.384028,234.56405 18.130893,-3.89855 19.51184,1.22945 z"/><path id="path2500" d="m 85.658703,231.82378 19.262147,0.96649 -6.67571,4.9416 z" style="fill:url(#linearGradient12754);fill-opacity:1;fill-rule:nonzero;stroke:none;stroke-width:.0188694"/><path style="fill:url(#linearGradient12756);fill-opacity:1;fill-rule:nonzero;stroke:none;stroke-width:.0188694" id="path2502" d="M 61.767016,235.30193 73.22056,261.62117 54.198189,234.81257 Z"/><path id="path2504" d="m 70.129903,235.16259 3.118118,26.53863 -12.162305,-27.28951 z" style="fill:url(#linearGradient12758);fill-opacity:1;fill-rule:nonzero;stroke:none;stroke-width:.0188694"/><path id="path2508" d="M 98.247525,237.71455 85.72263,231.83399 48.071532,234.55927 Z" style="fill:url(#linearGradient12760);fill-opacity:1;fill-rule:nonzero;stroke:none;stroke-width:.0189412"/><path id="path2510" d="M 9.8507156,235.20311 30.705752,222.23167 84.400796,218.84476 Z" style="fill:url(#linearGradient12762);fill-opacity:1;fill-rule:nonzero;stroke:none;stroke-width:.0188694"/><path id="path2514" d="M 95.832007,220.57806 85.72263,231.83399 87.949546,216.943 Z" style="fill:url(#linearGradient12764);fill-opacity:1;fill-rule:nonzero;stroke:none;stroke-width:.0188694"/><path id="path2516" d="M 104.95975,232.7962 95.730188,220.4945 85.629084,231.85438 Z" style="fill:url(#linearGradient12766);fill-opacity:1;fill-rule:nonzero;stroke:none;stroke-width:.0188694"/><path id="path2518" d="m 97.441898,249.00803 0.803242,-11.27616 6.67571,-4.9416 -1.23825,10.14682 -6.240702,6.07094" style="fill:url(#linearGradient12768);fill-opacity:1;fill-rule:nonzero;stroke:none;stroke-width:.0188694"/><path id="path2520" d="m 87.949546,216.943 -8.516803,-10.52519 -10.202958,5.81574 z" style="fill:url(#linearGradient12770);fill-opacity:1;fill-rule:nonzero;stroke:none;stroke-width:.0188694"/><path id="path2522" d="m 49.95336,204.40945 19.325975,7.8375 10.205402,-5.82019 z" style="fill:url(#linearGradient12772);fill-opacity:1;fill-rule:nonzero;stroke:none;stroke-width:.0188694"/><path id="path2524" d="m 26.741732,222.53493 23.211628,-18.12548 19.458182,7.88848 z" style="fill:url(#linearGradient12774);fill-opacity:1;fill-rule:nonzero;stroke:none;stroke-width:.0188694"/><path id="path2526" d="m 87.949546,216.943 -14.203587,3.58574 -4.466624,-8.28179 z" style="fill:url(#linearGradient12776);fill-opacity:1;fill-rule:nonzero;stroke:none;stroke-width:.0188694"/><path id="path2528" d="m 87.949546,216.943 -14.917742,3.60834 12.747792,11.29177 z" style="fill:url(#linearGradient12778);fill-opacity:1;fill-rule:nonzero;stroke:none;stroke-width:.0188694"/><path id="path2530" d="m 66.287303,230.76522 19.5269,1.11536 -20.742616,-8.92427 z" style="fill:url(#linearGradient12780);fill-opacity:1;fill-rule:nonzero;stroke:none;stroke-width:.0188694"/><path id="path2532" d="M 66.338039,230.79292 9.6163314,242.81954 65.144317,222.92501 Z" style="fill:url(#linearGradient12782);fill-opacity:1;fill-rule:nonzero;stroke:none;stroke-width:.0188694"/><path id="path2538" d="M 65.132271,222.96223 15.42394,233.96227 9.6163314,242.81954 Z" style="fill:url(#linearGradient12784);fill-opacity:1;fill-rule:nonzero;stroke:none;stroke-width:.0188694"/><path id="path2540" d="m 48.778668,234.49005 -39.1623366,8.32949 -8.76349806,9.58013 z" style="fill:url(#linearGradient12786);fill-opacity:1;fill-rule:nonzero;stroke:none;stroke-width:.0188694"/><path id="path2542" d="M 3.6656166,258.04161 48.626778,234.51359 6.3395795,250.0897 Z" style="fill:url(#linearGradient12788);fill-opacity:1;fill-rule:nonzero;stroke:none;stroke-width:.0188694"/><path id="path2544" d="M 5.1939122,266.10244 10.414312,254.47836 48.461551,234.56834 Z" style="fill:url(#linearGradient12790);fill-opacity:1;fill-rule:nonzero;stroke:none;stroke-width:.0188694"/><path id="path2546" d="M 18.224534,277.64709 12.294595,260.60887 48.461551,234.56834 Z" style="fill:url(#linearGradient12792);fill-opacity:1;fill-rule:nonzero;stroke:none;stroke-width:.0188694"/><path id="path2548" d="m 73.20966,261.57681 -3.898034,5.38796 -20.850075,-32.39643 z" style="fill:url(#linearGradient12794);fill-opacity:1;fill-rule:nonzero;stroke:none;stroke-width:.0188694"/><path id="path2550" d="M 65.518319,273.08393 48.461551,234.56834 69.839595,267.78483 Z" style="fill:url(#linearGradient12796);fill-opacity:1;fill-rule:nonzero;stroke:none;stroke-width:.0188694"/><path id="path2552" d="m 33.09415,280.27012 -12.133002,-6.522 27.500403,-39.17978 z" style="fill:url(#linearGradient12798);fill-opacity:1;fill-rule:nonzero;stroke:none;stroke-width:.0188694"/><path id="path2554" d="M 66.580099,275.48128 48.461551,234.56834 60.253202,279.58819 Z" style="fill:url(#linearGradient12800);fill-opacity:1;fill-rule:nonzero;stroke:none;stroke-width:.0188694"/><path id="path2556" d="m 48.461551,234.56834 3.020044,49.18885 -17.625123,-5.75459 z" style="fill:url(#linearGradient12802);fill-opacity:1;fill-rule:nonzero;stroke:none;stroke-width:.0188694"/><path id="path2558" d="m 48.461551,234.56834 2.856733,46.68169 9.783654,1.38979 z" style="fill:url(#linearGradient12804);fill-opacity:1;fill-rule:nonzero;stroke:none;stroke-width:.0188694"/><path id="path2566" d="M 54.625802,234.97068 73.233098,261.63343 48.435369,234.57527 Z" style="fill:url(#linearGradient12806);fill-opacity:1;fill-rule:nonzero;stroke:none;stroke-width:.0188694"/><path style="fill:url(#linearGradient12750);fill-opacity:1;fill-rule:nonzero;stroke:none;stroke-width:.0189633" id="path2506" d="m 64.959157,223.04609 20.966284,8.9054 -12.086714,-11.5753 z"/></g><g id="g1376" transform="translate(-63.500003)"><g id="g1038" transform="translate(58.208336)"><path id="path2560" d="m 56.788871,216.99459 c 9.790123,-4.4923 18.494198,9.2786 23.676769,3.68379 -2.259166,3.61086 -7.518675,3.93926 -11.185354,3.95173 0,0 -5.62616,-0.13397 -4.889396,-4.8559 -1.215696,-2.00821 -5.066116,-1.9682 -7.602019,-2.77962 z" style="fill:#000;fill-opacity:1;stroke:none;stroke-width:.378886px;stroke-linecap:butt;stroke-linejoin:miter;stroke-opacity:1"/><path id="path2562" d="m 65.96458,218.39841 a 2.9805259,2.9805259 0 0 0 -1.238776,2.4139 2.9805259,2.9805259 0 0 0 2.980762,2.98077 2.9805259,2.9805259 0 0 0 2.980025,-2.98077 2.9805259,2.9805259 0 0 0 -0.08884,-0.71188 2.4279565,2.9470368 0 0 1 -2.271837,1.91738 2.4279565,2.9470368 0 0 1 -2.427974,-2.94674 2.4279565,2.9470368 0 0 1 0.06663,-0.67266 z" style="fill:#fff;fill-opacity:1;stroke:none;stroke-width:.416308;stroke-linecap:round;stroke-miterlimit:4;stroke-dasharray:none;stroke-opacity:1;paint-order:stroke fill markers"/><path style="fill:#000;fill-opacity:1;stroke:none;stroke-width:.21178px;stroke-linecap:butt;stroke-linejoin:miter;stroke-opacity:1" id="path2564" d="m 92.261937,223.54391 c 0,0 -3.388488,0.84708 -2.964918,2.75311 0,0 1.376572,-0.10586 2.964918,-2.75311 z"/></g></g></g></g></svg>