<svg xmlns="http://www.w3.org/2000/svg" xmlns:xlink="http://www.w3.org/1999/xlink" version="1.1" viewBox="72 28 356 445"><g id="Page-1" fill="none" fill-rule="evenodd" stroke="none" stroke-width="1"><g id="headlamp-logo-light" transform="translate(72.000000, 28.000000)"><polygon id="Path" fill="#000" points="356 282.419 328.217 319.725 356 405.715 178.123 445 0 405.715 27.783 319.725 0 282.419 0 177.903 27.783 141.829 27.783 81.042 116.845 49.172 116.845 0 239.148 0 239.148 49.172 328.217 81.042 328.217 141.829 356 177.903"/><path id="Path" fill="#FFF200" fill-rule="nonzero" stroke="#FFF" stroke-width="10" d="M177.500236,147 C200.802399,147 221.928392,156.472115 237.228156,171.771924 C252.527914,187.071727 262,208.197775 262,231.5 C262,254.802225 252.527914,275.928273 237.228156,291.228076 C221.928392,306.527885 200.802399,316 177.500236,316 C154.080178,316 132.958056,306.580128 117.689033,291.311151 C102.419848,276.042011 93,254.919748 93,231.5 C93,208.108912 102.452155,187.008469 117.717511,171.743158 C133.021103,156.439611 154.169065,147 177.500236,147 Z"/></g></g></svg>