<svg xmlns="http://www.w3.org/2000/svg" viewBox="0 0 657 657">
  <style>
    path { fill: #111111; stroke: #000000; stroke-width: 5; }
    @media (prefers-color-scheme: dark) {
      path { fill: #ffffff; stroke: #ffffff; }
    }
  </style>
  <path d="M618.951 210.558C616.856 205.391 614.565 200.277 612.185 195.222C658.284 112.234 666.506 52.187 635.661 21.3378C604.822 -9.49949 544.778 -1.29001 461.791 44.8002C456.724 42.4209 451.61 40.148 446.425 38.0468C427.726 30.4647 408.181 24.6761 388.34 20.8347C349.012 13.2231 307.969 13.229 268.665 20.8347C248.818 24.6761 229.279 30.4647 210.58 38.0527C191.527 45.7769 173.183 55.4365 156.041 66.7474C138.461 78.3543 121.923 91.8612 106.888 106.889C91.8711 121.917 78.3635 138.449 66.75 156.034C55.4266 173.186 45.7724 191.535 38.0538 210.564C30.4772 229.25 24.6824 248.788 20.8349 268.646C17.0288 288.303 15.0992 308.439 15.0992 328.48C15.0992 348.521 17.0288 368.657 20.8349 388.314C24.6824 408.172 30.4772 427.71 38.0538 446.396C40.1551 451.575 42.4222 456.689 44.8076 461.755C-1.28513 544.726 -9.50686 604.767 21.344 635.616C33.6203 647.892 50.5078 654 71.6215 654C105.633 653.994 150.625 638.149 204.951 606.708C204.987 606.69 205.016 606.667 205.052 606.649C205.152 606.59 205.253 606.531 205.348 606.471C275.153 566.016 354.446 502.891 428.685 428.651C491.115 366.23 545.636 300.247 585.484 239.312C589.681 251.44 593.049 263.899 595.487 276.5C598.79 293.582 600.466 311.067 600.466 328.468C600.466 345.87 598.79 363.36 595.487 380.43C592.155 397.654 587.13 414.605 580.559 430.811C573.871 447.301 565.501 463.211 555.681 478.085C545.612 493.338 533.875 507.697 520.805 520.766C507.771 533.811 493.411 545.543 478.128 555.628C463.265 565.448 447.366 573.811 430.857 580.505C414.644 587.075 397.686 592.106 380.467 595.433C361.887 599.026 342.892 600.635 323.88 600.381C312.58 599.949 303.009 609.295 302.807 620.73C302.606 632.171 311.716 641.6 323.157 641.801C324.933 641.837 326.715 641.849 328.491 641.849C348.539 641.849 368.67 639.919 388.328 636.113C408.181 632.272 427.72 626.477 446.413 618.901C465.455 611.177 483.804 601.523 500.952 590.201C518.562 578.576 535.094 565.069 550.099 550.059C565.134 535.025 578.641 518.493 590.249 500.908C601.578 483.75 611.232 465.401 618.945 446.378C626.522 427.698 632.317 408.16 636.164 388.296C639.97 368.633 641.894 348.498 641.894 328.468C641.894 308.439 639.97 288.303 636.164 268.634C632.323 248.788 626.528 229.25 618.951 210.558ZM50.6439 606.329C39.4626 595.149 42.0729 559.979 69.2065 504.46C80.2576 520.701 92.8714 536.061 106.894 550.076C120.887 564.069 136.241 576.688 152.519 587.762C96.9912 614.894 61.8312 617.51 50.6439 606.329ZM399.391 399.364C331.024 467.727 258.591 526.099 194.161 564.939C188.969 561.985 183.838 558.919 178.877 555.64C163.6 545.554 149.24 533.817 136.2 520.778C123.13 507.709 111.404 493.344 101.33 478.103C91.51 463.217 83.1403 447.313 76.4516 430.823C69.8813 414.623 64.8559 397.666 61.5234 380.442C58.2146 363.372 56.5394 345.887 56.5394 328.48C56.5394 311.073 58.2146 293.582 61.5234 276.518C64.8559 259.294 69.8813 242.343 76.4516 226.137C83.1462 209.635 91.5159 193.731 101.33 178.863C111.404 163.598 123.142 149.239 136.194 136.188C149.258 123.131 163.618 111.399 178.877 101.325C193.734 91.5179 209.639 83.1427 226.154 76.4484C242.372 69.8726 259.325 64.8474 276.544 61.5151C310.686 54.9097 346.331 54.9037 380.473 61.5151C397.686 64.8474 414.639 69.8667 430.863 76.4425C447.383 83.1427 463.288 91.512 478.14 101.325C489.611 108.896 500.638 117.454 510.902 126.747C519.385 134.424 532.484 133.779 540.161 125.303C547.844 116.821 547.193 103.723 538.717 96.0399C527.967 86.2974 516.46 77.3067 504.515 69.186C560.032 42.0598 595.18 39.4555 606.367 50.6303C619.549 63.8117 613.689 110.222 570.893 184.178C532.194 251.049 471.291 327.468 399.391 399.364Z"/>
</svg>
