<svg xmlns="http://www.w3.org/2000/svg" enable-background="new 0 0 288 288" version="1.1" viewBox="57.51 8 172.97 272"><defs><g id="glass"><path fill-rule="evenodd" d="M177,16 H79 A 32.0781 63.7932 -1.5106 0 0 66 80 A 158.789 471.1259 41.9466 0 0 90 131 A 81.7197 122.0515 35.3745 0 0 128 143.3484 A 81.7197 122.0515 -35.3745 0 0 166 131 A 158.789 471.1259 -41.9466 0 0 190 80 A 32.0781 63.7932 1.5106 0 0 177 16 L 184 0 A 44.7901 78.5247 1.1521 0 1 194 122 A 97.0039 135.3148 -36.2124 0 1 136 159 V 240 H 176 A 8 8 0 0 1 176 256 H 80 A 8 8 0 0 1 80 240 H 120 V 159 A 97.0039 135.3148 36.2124 0 1 62 122 A 44.7901 78.5247 -1.1521 0 1 72 0 H184 z" transform="translate(16 16)"/></g><g id="wine-level"><path d="M182,64 H 74 A 115.9979 308.8033 38.9474 0 0 128 134.4277 A 115.9979 308.8033 -38.9474 0 0 182,64 z" transform="translate(16 16)"/></g></defs><use fill="Transparent" stroke="#ffffffa0" stroke-width="16" href="#glass"/><use fill="Transparent" stroke="#ffffffa0" stroke-width="16" href="#wine-level"/><use fill="#000" href="#glass"/><use fill="#000" href="#wine-level"/></svg>