<svg xmlns="http://www.w3.org/2000/svg" viewBox="0 0 400 400"><defs><linearGradient id="cylinderGradient" x1="0" x2="0" y1="0" y2="1"><stop offset="0%" stop-color="#6ba6cd"/><stop offset="50%" stop-color="#5a9fd4"/><stop offset="100%" stop-color="#4a8cc4"/></linearGradient><linearGradient id="topGradient" x1="0" x2="0" y1="0" y2="1"><stop offset="0%" stop-color="#a2d2ff"/><stop offset="100%" stop-color="#6ba6cd"/></linearGradient><clipPath id="circleClip"><circle cx="200" cy="200" r="200"/></clipPath></defs><circle cx="200" cy="200" r="200" fill="#e8e9ea"/><g clip-path="url(#circleClip)"><path fill="#4c3fb8" d="M 0 140 Q 100 -20 200 140 T 400 140 L 400 400 L 0 400 Z" opacity=".9"/><path fill="#3d32a6" d="M 0 180 Q 100 20 200 180 T 400 180 L 400 400 L 0 400 Z" opacity=".7"/><path fill="#2e2594" d="M 0 220 Q 100 60 200 220 T 400 220 L 400 400 L 0 400 Z" opacity=".5"/></g><g transform="translate(200, 250) scale(1.3)"><ellipse cx="0" cy="30" fill="#4a8cc4" rx="65" ry="18"/><rect width="130" height="18" x="-65" y="12" fill="url(#cylinderGradient)"/><ellipse cx="0" cy="12" fill="url(#topGradient)" rx="65" ry="18"/><path fill="none" stroke="#000" stroke-width="2" d="M -65 30 A65 18 0 0 0 65 30 L65 12 A65 18 0 0 0 -65 12 Z"/><ellipse cx="0" cy="0" fill="#4a8cc4" rx="65" ry="18"/><rect width="130" height="18" x="-65" y="-18" fill="url(#cylinderGradient)"/><ellipse cx="0" cy="-18" fill="url(#topGradient)" rx="65" ry="18"/><path fill="none" stroke="#000" stroke-width="2" d="M -65 0 A65 18 0 0 0 65 0 L65 -18 A65 18 0 0 0 -65 -18 Z"/><ellipse cx="0" cy="-30" fill="#4a8cc4" rx="65" ry="18"/><rect width="130" height="18" x="-65" y="-48" fill="url(#cylinderGradient)"/><ellipse cx="0" cy="-48" fill="url(#topGradient)" rx="65" ry="18"/><path fill="none" stroke="#000" stroke-width="2" d="M -65 -30 A65 18 0 0 0 65 -30 L65 -48 A65 18 0 0 0 -65 -48 Z"/><ellipse cx="0" cy="-60" fill="#4a8cc4" rx="65" ry="18"/><rect width="130" height="18" x="-65" y="-78" fill="url(#cylinderGradient)"/><ellipse cx="0" cy="-78" fill="url(#topGradient)" rx="65" ry="18"/><path fill="none" stroke="#000" stroke-width="2" d="M -65 -60 A65 18 0 0 0 65 -60 L65 -78 A65 18 0 0 0 -65 -78 Z"/></g></svg>