<svg xmlns="http://www.w3.org/2000/svg" style="flex:none;line-height:1" width="1em" height="1em" viewBox="0 0 24 24"><title>Luma</title><path fill="#000" d="M2 5.999L12.392 0v24L2 18V5.999z"/><path fill="url(#lobe-icons-luma-fill-0)" d="M12.392 24L2 18l10.392-6 10.393 6-10.393 6z"/><path fill="url(#lobe-icons-luma-fill-1)" d="M12.392 24L2 18l10.392-6 10.393 6-10.393 6z"/><path fill="url(#lobe-icons-luma-fill-2)" d="M2 5.999L12.392 0v24L2 18V5.999z" style="mix-blend-mode:screen"/><path fill="url(#lobe-icons-luma-fill-3)" d="M12.392 24L2 18l10.392-6 10.393 6-10.393 6z" style="mix-blend-mode:overlay"/><path fill="url(#lobe-icons-luma-fill-4)" d="M2 5.999L12.392 0v24L2 18V5.999z" style="mix-blend-mode:overlay"/><defs><linearGradient id="lobe-icons-luma-fill-0" x1="2" x2="22.785" y1="18" y2="18" gradientUnits="userSpaceOnUse"><stop stop-color="#00A"/><stop offset="1" stop-color="#A78DFF"/></linearGradient><linearGradient id="lobe-icons-luma-fill-1" x1="2" x2="22.785" y1="18" y2="18" gradientUnits="userSpaceOnUse"><stop stop-color="#00A"/><stop offset="1" stop-color="#A78DFF"/></linearGradient><linearGradient id="lobe-icons-luma-fill-2" x1="13.748" x2="4.672" y1="22.642" y2="3.745" gradientUnits="userSpaceOnUse"><stop stop-color="#004EFF"/><stop offset="1" stop-color="#0FF"/></linearGradient><linearGradient id="lobe-icons-luma-fill-3" x1="2" x2="22.785" y1="18" y2="18" gradientUnits="userSpaceOnUse"><stop stop-color="#00A"/><stop offset="1" stop-color="#A78DFF"/></linearGradient><linearGradient id="lobe-icons-luma-fill-4" x1="13.748" x2="4.672" y1="22.642" y2="3.745" gradientUnits="userSpaceOnUse"><stop stop-color="#004EFF"/><stop offset="1" stop-color="#0FF"/></linearGradient></defs></svg>