<svg xmlns="http://www.w3.org/2000/svg" xmlns:svg="http://www.w3.org/2000/svg" id="Layer_1" x="0" y="0" enable-background="new 0 0 442 115" version="1.1" viewBox="1.3 2.27 119.7 100.8" xml:space="preserve"><polygon id="polygon2" fill="#accc5e" points="44.8 61.4 19.3 61.4 23.8 36.2 49.3 36.2" transform="translate(-9.1959984,-8.7329168)"/><polygon id="polygon4" fill="#c6d42c" points="28.2 11 23.8 36.2 49.3 36.2 53.7 11" transform="translate(-9.1959984,-8.7329168)"/><polygon id="polygon6" fill="#8bc798" points="70.3 61.4 44.8 61.4 49.3 36.2 74.8 36.2" transform="translate(-9.1959984,-8.7329168)"/><polygon id="polygon8" fill="#8bc798" points="40.4 86.6 14.9 86.6 19.3 61.4 44.8 61.4" transform="translate(-9.1959984,-8.7329168)"/><polygon id="polygon10" fill="#4dbbbc" points="65.9 86.6 40.4 86.6 44.8 61.4 70.3 61.4" transform="translate(-9.1959984,-8.7329168)"/><polygon id="polygon12" fill="#accc5e" points="53.7 11 49.3 36.2 74.8 36.2 79.2 11" transform="translate(-9.1959984,-8.7329168)"/><polygon id="polygon14" fill="#4dbbbc" points="95.8 61.4 70.3 61.4 74.8 36.2 100.2 36.2" transform="translate(-9.1959984,-8.7329168)"/><polygon id="polygon16" fill="#008b9a" points="91.4 86.6 65.9 86.6 70.3 61.4 95.8 61.4" transform="translate(-9.1959984,-8.7329168)"/><polygon id="polygon18" fill="#4dbbbc" points="14.9 86.6 10.5 111.8 36 111.8 40.4 86.6" transform="translate(-9.1959984,-8.7329168)"/><polygon id="polygon20" fill="#008b9a" points="40.4 86.6 36 111.8 61.5 111.8 65.9 86.6" transform="translate(-9.1959984,-8.7329168)"/><polygon id="polygon22" fill="#006783" points="65.9 86.6 61.5 111.8 87 111.8 91.4 86.6" transform="translate(-9.1959984,-8.7329168)"/><polygon id="polygon24" fill="#8bc798" points="79.2 11 74.8 36.2 100.2 36.2 104.7 11" transform="translate(-9.1959984,-8.7329168)"/><polygon id="polygon26" fill="#008b9a" points="121.3 61.4 95.8 61.4 100.2 36.2 125.7 36.2" transform="translate(-9.1959984,-8.7329168)"/><polygon id="polygon28" fill="#006783" points="116.9 86.6 91.4 86.6 95.8 61.4 121.3 61.4" transform="translate(-9.1959984,-8.7329168)"/><polygon id="polygon30" fill="#004f66" points="91.4 86.6 87 111.8 112.5 111.8 116.9 86.6" transform="translate(-9.1959984,-8.7329168)"/><polygon id="polygon32" fill="#4dbbbc" points="104.7 11 100.2 36.2 125.7 36.2 130.2 11" transform="translate(-9.1959984,-8.7329168)"/></svg>