<svg xmlns="http://www.w3.org/2000/svg" xmlns:svg="http://www.w3.org/2000/svg" id="svg1" version="1.1" viewBox="0 0 2000 2000"><defs id="defs1"><clipPath id="clipPath1" clipPathUnits="userSpaceOnUse"><path id="path1" d="M 0,1500 H 1500 V 0 H 0 Z"/></clipPath><clipPath id="clipPath3" clipPathUnits="userSpaceOnUse"><path id="path3" d="M 0,0 H 1500 V 1500 H 0 Z" transform="matrix(1.3333333,0,0,-1.3333333,0,2000)"/></clipPath><clipPath id="clipPath4" clipPathUnits="userSpaceOnUse"><path id="path4" d="M -17.6886,1032.99 H 1106.27 V 238.53 H -17.6886 Z" transform="translate(-319.61281,-1032.9941)"/></clipPath><clipPath id="clipPath6" clipPathUnits="userSpaceOnUse"><path id="path6" d="M 0,0 H 1500 V 1500 H 0 Z" transform="matrix(1.3333333,0,0,-1.3333333,0,2000)"/></clipPath><clipPath id="clipPath7" clipPathUnits="userSpaceOnUse"><path id="path7" d="M 223.314,1226.85 H 1182.49 V 548.867 H 223.314 Z" transform="translate(-894.64255,-548.86681)"/></clipPath><clipPath id="clipPath9" clipPathUnits="userSpaceOnUse"><path id="path9" d="M 0,0 H 1500 V 1500 H 0 Z" transform="matrix(1.3333333,0,0,-1.3333333,0,2000)"/></clipPath><clipPath id="clipPath10" clipPathUnits="userSpaceOnUse"><path id="path10" d="M 301.561,1098.17 H 1517.73 V 238.53 H 301.561 Z" transform="translate(-666.53282,-1098.1678)"/></clipPath><clipPath id="clipPath12" clipPathUnits="userSpaceOnUse"><path id="path12" d="M 0,0 H 1500 V 1500 H 0 Z" transform="matrix(1.3333333,0,0,-1.3333333,0,2000)"/></clipPath></defs><g id="g1"><g id="g2" clip-path="url(#clipPath3)"><path style="fill:#9ed8f7;fill-opacity:0;fill-rule:nonzero;stroke:none" id="path2" d="M 0,0 H 1500 V 1500 H 0 Z" clip-path="url(#clipPath1)" transform="matrix(1.3333333,0,0,-1.3333333,0,2000)"/></g><g id="g5" clip-path="url(#clipPath6)" opacity=".72"><path style="fill:#2842fc;fill-opacity:1;fill-rule:nonzero;stroke:none" id="path5" d="m 0,0 h 669.787 c 68.994,0 116.873,-68.746 92.95,-133.46 L 542.309,-729.728 c -14.382,-38.904 -51.472,-64.736 -92.95,-64.736 h -669.787 c -68.994,0 -116.873,68.746 -92.949,133.46 L -92.949,-64.736 C -78.567,-25.832 -41.478,0 0,0" clip-path="url(#clipPath4)" transform="matrix(1.3333333,0,0,-1.3333333,426.1504,622.67453)"/></g><g id="g8" clip-path="url(#clipPath9)" opacity=".72"><path style="fill:#ff5e00;fill-opacity:1;fill-rule:nonzero;stroke:none" id="path8" d="m 0,0 h -571.59 c -58.879,0 -99.738,58.667 -79.322,113.893 l 188.111,508.849 c 12.274,33.201 43.925,55.246 79.322,55.246 h 571.59 c 58.879,0 99.739,-58.667 79.322,-113.894 L 79.322,55.245 C 67.049,22.045 35.397,0 0,0" clip-path="url(#clipPath7)" transform="matrix(1.3333333,0,0,-1.3333333,1192.8567,1268.1776)"/></g><g id="g11" clip-path="url(#clipPath12)" opacity=".75"><path style="fill:#f20a4c;fill-opacity:1;fill-rule:nonzero;stroke:none" id="path11" d="m 0,0 h 724.733 c 74.654,0 126.46,-74.386 100.575,-144.408 L 586.797,-789.591 c -15.562,-42.096 -55.694,-70.047 -100.575,-70.047 h -724.733 c -74.654,0 -126.461,74.386 -100.574,144.409 l 238.511,645.182 C -85.013,-27.952 -44.88,0 0,0" clip-path="url(#clipPath10)" transform="matrix(1.3333333,0,0,-1.3333333,888.7104,535.77627)"/></g></g></svg>