<svg xmlns="http://www.w3.org/2000/svg" id="svg3" version="1.1" viewBox="2.8 2.82 385.51 500"><polygon id="polygon1" fill="#20434f" points="9.36 13.16 8.19 13.83 8.19 15.18 12.39 17.6 12.39 22.45 13.55 23.12 14.72 22.45 14.72 17.57 18.92 15.14 18.92 13.8 17.75 13.12 13.53 15.56" transform="matrix(17.972682,0,0,17.972682,-48.062691,-48.222418)"/><polygon id="polygon2" fill="#20434f" points="24.28 11.72 24.28 9.02 13.56 2.84 2.83 9.02 2.83 11.72 13.56 5.53" transform="matrix(17.972682,0,0,17.972682,-48.062691,-48.222418)"/><polygon id="polygon3" fill="#20434f" points="24.28 24.48 24.28 21.78 13.56 27.97 2.83 21.78 2.83 24.48 13.56 30.66" transform="matrix(17.972682,0,0,17.972682,-48.062691,-48.222418)"/></svg>