<svg xmlns="http://www.w3.org/2000/svg" xmlns:svg="http://www.w3.org/2000/svg" xmlns:xlink="http://www.w3.org/1999/xlink" id="svg8" version="1.1" viewBox="94.45 156.43 811.1 691.12"><g id="layer1" style="display:inline"><g id="g1805" transform="matrix(1.025997,0,0,0.99684584,-5.1994006,0.99204835)" style="display:inline;stroke:#000;stroke-opacity:1;filter:url(#filter2476)"><g id="g1896"><ellipse id="circle1161" cx="492.399" cy="351.179" rx="48.666" ry="50.279" style="display:inline;fill:#fff;fill-opacity:1;stroke:none;stroke-width:24.733;stroke-opacity:1"/><path id="line1163" d="m 492.3985,351.17883 2e-5,392.4242" style="fill:none;stroke:#fff;stroke-width:49.4405;stroke-linecap:butt;stroke-miterlimit:10;stroke-dasharray:none;stroke-opacity:1"/><path style="fill:none;stroke:#fff;stroke-width:49.4405;stroke-linecap:round;stroke-miterlimit:10;stroke-dasharray:none;stroke-opacity:1" id="path1165" d="m 597.42069,444.19435 c 24.96589,-22.87689 40.97715,-55.80955 40.97715,-93.01592 0,-37.20637 -16.01126,-70.13903 -40.97715,-93.01592"/><path style="fill:none;stroke:#fff;stroke-width:49.4405;stroke-linecap:round;stroke-miterlimit:10;stroke-dasharray:none;stroke-opacity:1" id="path1167" d="m 684.87429,521.62382 c 46.01413,-41.48007 75.18966,-102.39293 75.18966,-170.44539 0,-68.05246 -29.17553,-128.96531 -75.18966,-170.44538"/><path style="fill:none;stroke:#fff;stroke-width:49.4405;stroke-linecap:round;stroke-miterlimit:10;stroke-dasharray:none;stroke-opacity:1" id="path1169" d="m 387.37631,444.19435 c -24.96589,-22.87689 -40.97715,-55.80955 -40.97715,-93.01592 0,-37.20637 16.01126,-70.13903 40.97715,-93.01592"/><path style="fill:none;stroke:#fff;stroke-width:49.4405;stroke-linecap:round;stroke-miterlimit:10;stroke-dasharray:none;stroke-opacity:1" id="path1171" d="m 299.9227,521.62382 c -46.01412,-41.48007 -75.18965,-102.39293 -75.18965,-170.44539 0,-68.05246 29.17553,-128.96531 75.18965,-170.44538"/></g><path style="fill:none;stroke:#fff;stroke-width:39.5524;stroke-linecap:butt;stroke-linejoin:miter;stroke-miterlimit:4;stroke-dasharray:none;stroke-opacity:1" id="path1811" d="M 199.76028,743.60303 H 785.0368"/><g id="g1846" style="fill:#09c;fill-opacity:1;stroke:#fff;stroke-width:34.6084;stroke-miterlimit:4;stroke-dasharray:none;stroke-opacity:1"><ellipse style="display:inline;fill:#09c;fill-opacity:1;stroke:#fff;stroke-width:34.6084;stroke-miterlimit:4;stroke-dasharray:none;stroke-opacity:1" id="path1807" cx="199.76" cy="743.603" rx="85.77" ry="88.278"/><ellipse style="display:inline;fill:#09c;fill-opacity:1;stroke:#fff;stroke-width:34.6084;stroke-miterlimit:4;stroke-dasharray:none;stroke-opacity:1" id="path1807-3" cx="492.399" cy="743.603" rx="85.77" ry="88.278"/><ellipse style="display:inline;fill:#09c;fill-opacity:1;stroke:#fff;stroke-width:34.6084;stroke-miterlimit:4;stroke-dasharray:none;stroke-opacity:1" id="path1807-6" cx="785.037" cy="743.603" rx="85.77" ry="88.278"/></g></g></g></svg>