<svg xmlns="http://www.w3.org/2000/svg" xmlns:svg="http://www.w3.org/2000/svg" id="svg1420" version="1.1" viewBox="-0.25 -0.25 122 122"><metadata id="metadata1417"/><g id="layer2" transform="translate(0.75,0.75)" style="display:inline"><circle style="fill:#80cbc4;fill-opacity:1;stroke:#000;stroke-width:2;stroke-miterlimit:4;stroke-dasharray:none;stroke-opacity:1" id="path2095" cx="60" cy="60" r="60"/><path style="fill:#80cbc4;fill-opacity:1;stroke-width:.0892857" id="path2120" d="m 130.26263,311.78894 v -15.71429 h 15.75893 15.75893 v 15.71429 15.71428 h -15.75893 -15.75893 z" transform="scale(0.26458333)"/></g><g id="layer1" transform="translate(0.75,0.75)"><path id="path4" d="m 60.000083,28.333334 c 10.916661,0 20.333334,7.750003 22.458328,18.458335 l 1.249917,6.250004 6.375012,0.458261 c 6.49999,0.416693 11.58331,5.875079 11.58331,12.333336 0,6.875123 -5.62498,12.500008 -12.499983,12.500008 H 35.000001 c -9.208331,0 -16.666662,-7.458266 -16.666662,-16.666611 0,-8.54172 6.374991,-15.666728 14.833322,-16.541719 l 4.458331,-0.458273 2.083339,-3.95835 C 43.666661,33.083339 51.41666,28.333334 59.999997,28.333334 m 0,-8.333334 C 47.958331,20 37.500001,26.833335 32.29167,36.833336 19.75,38.166725 10,48.791672 10,61.666667 c 0,13.791654 11.20833,24.99999 25.000001,24.99999 h 54.166666 c 11.499993,0 20.833323,-9.333387 20.833323,-20.833387 0,-10.999935 -8.54167,-19.916592 -19.374996,-20.666592 C 87.791667,30.791672 75.166658,20 59.999997,20 Z" style="stroke-width:4.16666"/><path style="stroke-width:2.77779" id="path2087" d="M 47.100548,85.143485 H 85.989441 V 79.587899 H 47.100548 Z"/><path style="stroke-width:2.77779" id="path2081" d="m 35.989439,85.143485 h 5.55556 v -5.555586 h -5.55556 z"/><path style="fill:#000;fill-opacity:1;stroke-width:3.41762" id="path2075-3" d="M 47.12462,75.096336 H 86.013513 V 66.686719 H 47.12462 Z"/><path style="fill:#000;fill-opacity:1;stroke-width:4.17522" id="path2069-6" d="m 34.490327,75.046719 h 8.350395 v -8.350434 h -8.350395 z"/><path style="fill:#000;fill-opacity:1;stroke-width:3.41762" id="path2075-3-7" d="M 47.12462,63.498104 H 86.013513 V 55.088487 H 47.12462 Z"/><path style="fill:#000;fill-opacity:1;stroke-width:4.17522" id="path2069-6-5" d="m 34.490327,63.448487 h 8.350395 v -8.350434 h -8.350395 z"/><path style="fill:#000;fill-opacity:1;stroke-width:3.41762" id="path2075-3-3" d="M 47.12462,98.257981 H 86.013513 V 89.848364 H 47.12462 Z"/><path style="fill:#000;fill-opacity:1;stroke-width:4.17522" id="path2069-6-6" d="m 34.490327,98.208364 h 8.350395 V 89.85793 h -8.350395 z"/></g></svg>