<svg xmlns="http://www.w3.org/2000/svg" fill="none" viewBox="0 0 198 198"><rect width="198" height="198" fill="#4060FF" rx="44"/><path fill="url(#paint0_linear_962_3481)" d="M80.1428 159H55V101.634L99 79.6829V57.7317L55 79.6829V39H113.667C129.54 39 138.971 45.4168 141.96 58.2505L99 79.6829V101.634L143 79.6829V91.5217C143 111 133.222 120.739 113.667 120.739H80.1428V159Z"/><path stroke="url(#paint1_linear_962_3481)" d="M99 79.6829V101.634L143 79.6829V91.5217C143 111 133.222 120.739 113.667 120.739H80.1428V159H55V101.634L99 79.6829ZM99 79.6829L141.96 58.2505C138.971 45.4168 129.54 39 113.667 39H55V79.6829L99 57.7317V79.6829Z"/><defs><linearGradient id="paint0_linear_962_3481" x1="99" x2="99" y1="158.981" y2="39.038" gradientUnits="userSpaceOnUse"><stop stop-color="#fff" stop-opacity=".5"/><stop offset=".15" stop-color="#fff" stop-opacity=".65"/><stop offset=".3" stop-color="#fff" stop-opacity=".78"/><stop offset=".46" stop-color="#fff" stop-opacity=".88"/><stop offset=".62" stop-color="#fff" stop-opacity=".95"/><stop offset=".8" stop-color="#fff" stop-opacity=".99"/><stop offset="1" stop-color="#fff"/></linearGradient><linearGradient id="paint1_linear_962_3481" x1="99" x2="99" y1="39" y2="159" gradientUnits="userSpaceOnUse"><stop stop-color="#fff" stop-opacity="0"/><stop offset="1" stop-color="#fff" stop-opacity=".7"/></linearGradient></defs></svg>