<svg xmlns="http://www.w3.org/2000/svg" xmlns:svg="http://www.w3.org/2000/svg" xmlns:xlink="http://www.w3.org/1999/xlink" id="svg3942" width="571.531" height="571.531" version="1.1"><defs id="defs3944"><linearGradient id="linearGradient4651"><stop id="stop4653" offset="0" style="stop-color:#fff;stop-opacity:1"/><stop id="stop4655" offset="1" style="stop-color:#c4c4c4;stop-opacity:1"/></linearGradient><linearGradient id="linearGradient4540"><stop id="stop4542" offset="0" style="stop-color:#a20000;stop-opacity:1"/><stop id="stop4544" offset="1" style="stop-color:#d40000;stop-opacity:1"/></linearGradient><linearGradient id="linearGradient4494"><stop id="stop4496" offset="0" style="stop-color:#ffe8e8;stop-opacity:1"/><stop id="stop4502" offset=".5" style="stop-color:#290000;stop-opacity:1"/><stop id="stop4498" offset="1" style="stop-color:#040404;stop-opacity:0"/></linearGradient><linearGradient id="linearGradient4478"><stop id="stop4480" offset="0" style="stop-color:#b2b2b2;stop-opacity:1"/><stop id="stop4482" offset="1" style="stop-color:#fff;stop-opacity:1"/></linearGradient><linearGradient id="linearGradient4546" x1="382.857" x2="402.857" y1="872.362" y2="320.934" gradientTransform="matrix(0.95238093,0,0,0.95238093,571.75351,-10.535582)" gradientUnits="userSpaceOnUse" xlink:href="#linearGradient4540"/><linearGradient id="linearGradient4550" x1="85.714" x2="685.714" y1="606.648" y2="606.648" gradientTransform="matrix(0.95238093,0,0,0.95238093,571.75351,-10.535582)" gradientUnits="userSpaceOnUse" xlink:href="#linearGradient4494"/><linearGradient id="linearGradient4484-2" x1="85.08" x2="683.491" y1="606.944" y2="606.944" gradientUnits="userSpaceOnUse" xlink:href="#linearGradient4478-6"/><linearGradient id="linearGradient4478-6"><stop id="stop4480-0" offset="0" style="stop-color:#b2b2b2;stop-opacity:1"/><stop id="stop4482-4" offset="1" style="stop-color:#fff;stop-opacity:1"/></linearGradient><linearGradient id="linearGradient4657" x1="122.519" x2="612.824" y1="615.796" y2="615.796" gradientTransform="matrix(0.87910663,0,0,0.87910663,615.87762,25.874213)" gradientUnits="userSpaceOnUse" xlink:href="#linearGradient4651"/><linearGradient id="linearGradient4657-8" x1="122.519" x2="612.824" y1="615.796" y2="615.796" gradientTransform="matrix(0.87910663,0,0,0.87910663,640.16334,50.159915)" gradientUnits="userSpaceOnUse" xlink:href="#linearGradient4651-1"/><linearGradient id="linearGradient4651-1"><stop id="stop4653-2" offset="0" style="stop-color:#fff;stop-opacity:1"/><stop id="stop4655-1" offset="1" style="stop-color:#c4c4c4;stop-opacity:1"/></linearGradient></defs><metadata id="metadata3947"/><g id="layer1" transform="translate(-653.34375,-281.46875)" style="display:inline"><rect id="rect3966" width="571.429" height="571.429" x="653.386" y="281.51" style="fill:url(#linearGradient4546);fill-opacity:1;fill-rule:nonzero;stroke:url(#linearGradient4550);stroke-width:0;stroke-miterlimit:4;stroke-opacity:.98431373;stroke-dasharray:none"/><path id="path4629-4" d="m 938.58552,364.75725 a 29.024403,29.024403 0 0 0 -19.94473,8.76359 L 734.16575,557.99587 a 29.024403,29.024403 0 0 0 0,41.04329 l 188.51343,188.51343 a 29.024403,29.024403 0 0 0 41.04329,0 L 1148.1976,603.07756 a 29.024403,29.024403 0 0 0 0,-41.04329 l -89.9711,-89.97107 a 29.024403,29.024403 0 0 0 -41.0433,0 L 904.13553,585.11082 a 29.024403,29.024403 0 1 0 41.04329,41.04329 l 92.52608,-92.52597 48.9277,48.92777 L 943.20083,725.98766 795.73069,578.51752 959.68408,414.56413 a 29.024403,29.024403 0 0 0 -21.09856,-49.80688 z" style="font-size:medium;font-style:normal;font-variant:normal;font-weight:400;font-stretch:normal;text-indent:0;text-align:start;text-decoration:none;line-height:normal;letter-spacing:normal;word-spacing:normal;text-transform:none;direction:ltr;block-progression:tb;writing-mode:lr-tb;text-anchor:start;baseline-shift:baseline;color:#000;fill:#000;fill-opacity:.27167628;stroke:none;stroke-width:5.2750001;marker:none;visibility:visible;display:inline;overflow:visible;enable-background:accumulate;font-family:Sans;-inkscape-font-specification:Sans"/><path id="path4629" d="m 936.5043,351.58322 a 29.024403,29.024403 0 0 0 -19.94473,8.76359 L 732.08453,544.82184 a 29.024403,29.024403 0 0 0 0,41.04329 l 188.51343,188.51343 a 29.024403,29.024403 0 0 0 41.04329,0 L 1146.1164,589.90353 a 29.024403,29.024403 0 0 0 0,-41.04329 l -89.9711,-89.97107 a 29.024403,29.024403 0 0 0 -41.0433,0 L 902.05431,571.93679 a 29.024403,29.024403 0 1 0 41.04329,41.04329 l 92.5261,-92.52597 48.9277,48.92777 L 941.11961,712.81363 793.64947,565.34349 957.60286,401.3901 A 29.024403,29.024403 0 0 0 936.5043,351.58322 z" style="font-size:medium;font-style:normal;font-variant:normal;font-weight:400;font-stretch:normal;text-indent:0;text-align:start;text-decoration:none;line-height:normal;letter-spacing:normal;word-spacing:normal;text-transform:none;direction:ltr;block-progression:tb;writing-mode:lr-tb;text-anchor:start;baseline-shift:baseline;color:#000;fill:url(#linearGradient4657);fill-opacity:1;stroke:#6a0000;stroke-width:5.27463961;stroke-miterlimit:4;stroke-opacity:1;stroke-dasharray:none;marker:none;visibility:visible;display:inline;overflow:visible;enable-background:accumulate;font-family:Sans;-inkscape-font-specification:Sans"/></g></svg>