<svg xmlns="http://www.w3.org/2000/svg" xmlns:xlink="http://www.w3.org/1999/xlink" version="1.1" viewBox="49 38 297.18 324"><title>编组 12</title><defs><linearGradient id="linearGradient-1" x1="50%" x2="50%" y1="0%" y2="100%"><stop offset="0%" stop-color="#4B4B4B"/><stop offset="100%" stop-color="#000"/></linearGradient><filter id="filter-2" width="106.1%" height="105.6%" x="-3%" y="-2.8%" filterUnits="objectBoundingBox"><feGaussianBlur in="SourceGraphic" stdDeviation="3"/></filter><linearGradient id="linearGradient-3" x1="50%" x2="50%" y1="0%" y2="100%"><stop offset="0%" stop-color="#24BC43" stop-opacity=".8"/><stop offset="100%" stop-color="#3ACBAB" stop-opacity=".7"/></linearGradient><path id="path-4" d="M110.049657,49.667649 C110.049657,49.667649 81.1358702,46.2263115 76.8,26.7636364 C72.4880848,46.2263115 43.5503431,49.667649 43.5503431,49.667649 C14.2053649,53.3001718 0,36.4567369 0,36.4567369 C13.941859,65.8036979 38.4,64.7712967 38.4,64.7712967 L115.2,64.7712967 C115.2,64.7712967 139.634186,65.8036979 153.6,36.4567369 C153.6,36.4567369 139.394635,53.3192904 110.049657,49.667649 Z"/><filter id="filter-5" width="133.9%" height="236.8%" x="-16.9%" y="-57.9%" filterUnits="objectBoundingBox"><feOffset dx="0" dy="4" in="SourceAlpha" result="shadowOffsetOuter1"/><feGaussianBlur in="shadowOffsetOuter1" result="shadowBlurOuter1" stdDeviation="8"/><feColorMatrix in="shadowBlurOuter1" type="matrix" values="0 0 0 0 0 0 0 0 0 0.490319293 0 0 0 0 0.292243323 0 0 0 1 0"/></filter></defs><g id="页面-1" fill="none" fill-rule="evenodd" stroke="none" stroke-width="1"><g id="编组-12" transform="translate(49.000000, 38.000000)"><path id="路径" fill="url(#linearGradient-1)" fill-rule="nonzero" d="M292.40836,59.04 C290.927217,51.9634286 285.002646,46.6971429 277.761503,46.368 C222.13636,44.8868571 176.385503,16.5805714 157.953503,3.08571429 C152.358074,-1.02857143 144.95236,-1.02857143 139.356931,3.08571429 C120.431217,16.5805714 75.1740742,44.8868571 19.5489314,46.368 C12.4723599,46.6971429 6.21864565,51.9634286 4.90207422,59.04 C-3.98478292,103.474286 -19.2899258,254.057143 148.902074,324 C316.60036,253.892571 300.966074,103.474286 292.40836,59.04 Z"/><path id="路径" fill="url(#linearGradient-1)" fill-rule="nonzero" d="M292.40836,59.04 C290.927217,51.9634286 285.002646,46.6971429 277.761503,46.368 C222.13636,44.8868571 176.385503,16.5805714 157.953503,3.08571429 C152.358074,-1.02857143 144.95236,-1.02857143 139.356931,3.08571429 C120.431217,16.5805714 75.1740742,44.8868571 19.5489314,46.368 C12.4723599,46.6971429 6.21864565,51.9634286 4.90207422,59.04 C-3.98478292,103.474286 -19.2899258,254.057143 148.902074,324 C316.60036,253.892571 300.966074,103.474286 292.40836,59.04 Z" filter="url(#filter-2)"/><path id="椭圆形备份-26" fill="url(#linearGradient-3)" d="M149,261.4 C205.553958,261.4 251.4,215.553958 251.4,159 C251.4,131.275004 240.381593,106.123494 222.484813,87.6855068 C209.900749,96.0964568 185.81512,106.024178 175.564259,100.853688 C166.334879,96.1984273 157.476591,88.4505652 148.989396,77.610101 C142.047769,88.5334102 134.670586,95.5517221 126.857848,98.6650367 C120.689419,101.123107 98.2592604,102.915695 75.4419467,87.761039 C57.5883513,106.192154 46.6,131.312844 46.6,159 C46.6,215.553958 92.4460416,261.4 149,261.4 Z"/><g id="编组-5备份-6" fill="#FFF" transform="translate(91.771423, 102.101722)"><polygon id="路径-130备份-29" points="56.665 64.95 0 97.111 50.608 126.892 68.802 117.265 34.343 97.111 56.665 84.55 96.9 107.377 96.9 114.884 114.436 125.436 114.436 97.111" transform="translate(57.217971, 95.920999) rotate(-180.000000) translate(-57.217971, -95.920999)"/><polygon id="路径-130备份-30" points="56.665 0 0 32.161 50.608 61.943 68.802 52.315 34.343 32.161 56.665 19.601 96.9 42.427 96.9 49.934 114.436 60.486 114.436 32.161" transform="translate(57.217971, 30.971362) rotate(-360.000000) translate(-57.217971, -30.971362)"/><polygon id="路径-130备份-29" points="56.665 64.95 0 97.111 50.608 126.892 68.802 117.265 34.343 97.111 56.665 84.55 96.9 107.377 96.9 114.884 114.436 125.436 114.436 97.111" opacity=".405" transform="translate(57.217971, 95.920999) rotate(-180.000000) translate(-57.217971, -95.920999)"/><polygon id="路径-130备份-30" points="56.665 0 0 32.161 50.608 61.943 68.802 52.315 34.343 32.161 56.665 19.601 96.9 42.427 96.9 49.934 114.436 60.486 114.436 32.161" opacity=".405" transform="translate(57.217971, 30.971362) rotate(-360.000000) translate(-57.217971, -30.971362)"/></g><g id="长亭logo备份-18" fill-rule="nonzero" transform="translate(72.200000, 45.222222)"><g id="编组-7"><path id="路径" fill="#27B876" d="M96.7632666,18.0061837 C96.7632666,18.0061837 79.3862969,15.2966085 76.7907961,0 C74.1952953,15.2966085 56.8183256,18.0061837 56.8183256,18.0061837 C39.1836466,20.8694936 30.6424242,7.60987058 30.6424242,7.60987058 C39.0363842,30.6893013 53.7258141,29.862977 53.7258141,29.862977 L99.8741859,29.862977 C99.8741859,29.862977 114.563616,30.6700845 122.957576,7.60987058 C122.957576,7.60987058 114.416353,20.8694936 96.7816744,18.0061837 L96.7632666,18.0061837 Z"/><g id="路径"><use fill="#000" fill-opacity="1" filter="url(#filter-5)" xlink:href="#path-4"/><use fill="#27B876" xlink:href="#path-4"/></g></g></g></g></g></svg>