<svg xmlns="http://www.w3.org/2000/svg" xmlns:xlink="http://www.w3.org/1999/xlink" version="1.1" viewBox="12.49 9.71 85.51 45.88"><defs><path id="path-1" d="M70.9167028,0 L17.6240255,0 C7.89435457,0 0,7.91186331 0,17.6711364 L0,52.929741 C0,56.8502745 3.17194863,60.0256801 7.07421001,60.0256801 L17.2489731,60.0256801 L17.2489731,51.7803221 L26.7825324,51.7803221 L26.7825324,60.0256801 L44.1388699,60.0256801 L44.1388699,51.7803221 L53.6733328,51.7803221 L53.6733328,60.0256801 L63.8422217,60.0256801 C67.0080248,60.0256801 69.6812894,57.946211 70.5841263,55.0690379 L57.1183919,42.9803787 L8.16095804,42.9803787 L8.16095804,19.2082575 C8.16095804,12.4758176 13.5960538,7.01852555 20.308135,7.01852555 L62.7613479,7.01852555 L62.7613479,26.658359 L62.7613479,20.7541715 L70.9167028,28.0765497 L70.9167028,0"/><linearGradient id="linearGradient-3" x1="-1.648%" x2="164.346%" y1="74.279%" y2="3.984%"><stop offset="0%" stop-color="#68CBB0"/><stop offset="100%" stop-color="#9E7DC5"/></linearGradient><polyline id="path-4" points="0 0 0 5.904 8.155 13.225 8.155 7.322 0 0"/><linearGradient id="linearGradient-6" x1="-267.121%" x2="281.799%" y1="223.825%" y2="-221.52%"><stop offset="0%" stop-color="#42BE9A"/><stop offset="100%" stop-color="#8160B6"/></linearGradient><path id="path-7" d="M9.53446295,3.19353519 L9.53446295,0 L0,0 L0,3.19353519 C0,5.83502299 2.13463521,7.97522639 4.76723147,7.97522639 C7.39982774,7.97522639 9.53446295,5.83502299 9.53446295,3.19353519 Z"/><linearGradient id="linearGradient-9" x1="-91.441%" x2="1143.194%" y1="101.207%" y2="-415.481%"><stop offset="0%" stop-color="#68CBB0"/><stop offset="100%" stop-color="#9E7DC5"/></linearGradient><path id="path-10" d="M9.53355921,3.19353519 L9.53355921,0 L0,0 L0,3.19353519 C0,5.83502299 2.13373147,7.97522639 4.76632773,7.97522639 C7.398924,7.97522639 9.53355921,5.83502299 9.53355921,3.19353519 Z"/><linearGradient id="linearGradient-12" x1="-317.319%" x2="917.423%" y1="195.743%" y2="-321.039%"><stop offset="0%" stop-color="#68CBB0"/><stop offset="100%" stop-color="#9E7DC5"/></linearGradient></defs><g id="Glyph+Text-Light" fill="none" fill-rule="evenodd" stroke="none" stroke-width="1"><g id="Group" transform="translate(-0, -0)"><g id="g8-copy-2" transform="translate(0, 0)"><g id="g8-copy" transform="translate(49, 34) scale(-1, 1) rotate(-180) translate(-49, -34)translate(-0, 0)"><g id="g10" transform="translate(0, 0)"><g id="g36-Clipped" transform="translate(-0, 0)"><mask id="mask-2" fill="#fff"><use xlink:href="#path-1"/></mask><g id="g36" fill="url(#linearGradient-3)" fill-rule="nonzero" mask="url(#mask-2)"><path id="path48" d="M70.9167028,0 L17.6240255,0 C7.89435457,0 0,7.91186331 0,17.6711364 L0,52.929741 C0,56.8502745 3.17194863,60.0256801 7.07421001,60.0256801 L17.2489731,60.0256801 L17.2489731,51.7803221 L26.7825324,51.7803221 L26.7825324,60.0256801 L44.1388699,60.0256801 L44.1388699,51.7803221 L53.6733328,51.7803221 L53.6733328,60.0256801 L63.8422217,60.0256801 C67.0080248,60.0256801 69.6812894,57.946211 70.5841263,55.0690379 L57.1183919,42.9803787 L8.16095804,42.9803787 L8.16095804,19.2082575 C8.16095804,12.4758176 13.5960538,7.01852555 20.308135,7.01852555 L62.7613479,7.01852555 L62.7613479,26.658359 L62.7613479,20.7541715 L70.9167028,28.0765497 L70.9167028,0"/></g></g><polyline id="path50" fill="#fff" fill-rule="nonzero" points="83.212 58.291 47.066 25.844 43.221 29.145 28.054 29.145 46.886 12.409 98 58.291 83.212 58.291"/><g id="g54-Clipped" transform="translate(62.7613, 20.7542)"><mask id="mask-5" fill="#fff"><use xlink:href="#path-4"/></mask><g id="g54" fill="url(#linearGradient-6)" fill-rule="nonzero" mask="url(#mask-5)"><polyline id="path66" points="0 0 0 5.904 8.155 13.225 8.155 7.322 0 0"/></g></g><polyline id="path68" fill="#fff" fill-rule="nonzero" points="62.761 26.658 62.761 31.943 70.917 39.272 70.917 33.979 62.761 26.658"/><g id="g72-Clipped" transform="translate(17.2472, 60.0248)"><mask id="mask-8" fill="#fff"><use xlink:href="#path-7"/></mask><g id="g72" fill="url(#linearGradient-9)" fill-rule="nonzero" mask="url(#mask-8)"><path id="path84" d="M9.53446295,3.19353519 L9.53446295,0 L0,0 L0,3.19353519 C0,5.83502299 2.13463521,7.97522639 4.76723147,7.97522639 C7.39982774,7.97522639 9.53446295,5.83502299 9.53446295,3.19353519"/></g></g><g id="g88-Clipped" transform="translate(44.138, 60.0248)"><mask id="mask-11" fill="#fff"><use xlink:href="#path-10"/></mask><g id="g88" fill="url(#linearGradient-12)" fill-rule="nonzero" mask="url(#mask-11)"><path id="path100" d="M9.53355921,3.19353519 L9.53355921,0 L0,0 L0,3.19353519 C0,5.83502299 2.13373147,7.97522639 4.76632773,7.97522639 C7.398924,7.97522639 9.53355921,5.83502299 9.53355921,3.19353519"/></g></g><polyline id="path102" fill="#fff" fill-rule="nonzero" points="23.276 28.801 12.493 28.801 12.493 38.605 23.276 38.605 23.276 28.801"/><path id="path104" fill="#fff" fill-rule="nonzero" d="M23.276019,16.040829 L22.2674445,16.040829 C16.8694021,16.040829 12.4934903,20.4301949 12.4934903,25.844701 L23.276019,25.844701 L23.276019,16.040829"/><polyline id="path106" fill="#fff" fill-rule="nonzero" points="37.565 17.353 37.565 16.04 26.782 16.04 26.782 25.845 28.009 25.845 37.565 17.353"/></g></g></g></g></g></svg>