<svg xmlns="http://www.w3.org/2000/svg" xmlns:svg="http://www.w3.org/2000/svg" id="svg1" version="1.1" viewBox="9.47 5.66 83.47 87.95"><g id="layer7" style="display:inline"><ellipse style="fill:#b3b3b3;fill-opacity:1;stroke:#000;stroke-width:.362231" id="path10" cx="53.734" cy="88.933" rx="18.541" ry="4.494"/></g><g id="layer2"><ellipse style="fill:#8f6593;fill-opacity:1;stroke:#000;stroke-width:.264583" id="path2" cx="53.173" cy="59.927" rx="39.632" ry="31.206"/></g><g id="layer6" transform="rotate(26.626716,63.663425,91.348082)" style="display:inline"><rect style="fill:#b3b3b3;stroke:#000;stroke-width:.264583" id="rect5" width="2.006" height="21.226" x="27.765" y="25.942"/><rect style="fill:#b3b3b3;stroke:#000;stroke-width:.264583" id="rect6" width=".878" height="11.139" x="28.32" y="14.803"/><rect style="fill:#b3b3b3;stroke:#000;stroke-width:.264583" id="rect7" width="1.739" height="1.037" x="27.845" y="13.598"/></g><g id="g10" transform="matrix(0.78455439,-0.39703989,0.36681053,0.84921059,-42.959282,47.424815)" style="display:inline"><rect style="fill:#b3b3b3;stroke:#000;stroke-width:.264583" id="rect8" width="2.006" height="21.226" x="88.478" y="6.201"/><rect style="fill:#b3b3b3;stroke:#000;stroke-width:.264583" id="rect9" width=".878" height="11.139" x="89.033" y="-4.938"/><rect style="fill:#b3b3b3;stroke:#000;stroke-width:.264583" id="rect10" width="1.739" height="1.037" x="88.558" y="-6.143"/></g><g id="layer1" style="display:inline"><ellipse style="fill:#000;fill-opacity:1;stroke:#000;stroke-width:.264583" id="path3" cx="38.639" cy="60.92" rx="29.037" ry="22.063"/><ellipse style="fill:#666;stroke:#000;stroke-width:.247975" id="ellipse3" cx="38.035" cy="60.979" rx="27.778" ry="20.258"/><path style="fill:#b3b3b3;fill-opacity:1;stroke:none;stroke-width:.264583" id="path11" d="m 34.697799,122.55314 c 0.01833,0.006 0.0316,0.0245 0.04135,0.0555 0,0 0,0 0,0 0.0092,0.0295 0.01472,0.0703 0.0168,0.12182 v 0 0 0 c 0.0042,0.10159 -0.005,0.24651 -0.02457,0.42892 v 0 c -0.03801,0.35347 -0.118996,0.87532 -0.215147,1.50114 v 0 c -0.185128,1.20614 -0.442822,2.88292 -0.559325,4.78641 -0.04494,0.75002 -0.07046,1.54169 -0.05525,2.34859 0.02287,1.21336 0.135161,2.31717 0.339835,3.3493 0,0 0,0 0,0 0.650332,3.24476 2.351371,5.07761 2.173869,5.2629 -0.149012,0.15556 -2.3584,-1.29697 -3.279062,-5.01429 0,0 0,0 0,0 -0.274838,-1.0998 -0.429558,-2.29119 -0.455419,-3.57407 -0.01726,-0.85628 0.02422,-1.68546 0.100139,-2.4653 0.190754,-1.9852 0.603085,-3.67762 0.988428,-4.87091 v 0 c 0.201418,-0.62408 0.395557,-1.10979 0.558632,-1.44128 v 0 c 0.08263,-0.16796 0.156338,-0.2943 0.218718,-0.37713 v 0 0 0 c 0.03135,-0.0416 0.05963,-0.0719 0.0846,-0.0907 0,0 0,0 0,0 0.02622,-0.0197 0.04803,-0.0268 0.06641,-0.0208 z" transform="matrix(0.97122863,0.08809259,-0.09412623,0.90897134,-6.1653708,-61.757664)"/></g><g id="layer3" style="display:inline"><ellipse style="fill:#000;stroke:#000;stroke-width:.264583" id="ellipse10" cx="84.36" cy="58.414" rx="2.912" ry="4.994"/><ellipse style="fill:#b3b3b3;stroke:#000;stroke-width:.22029" id="path4" cx="84.716" cy="58.419" rx="2.388" ry="4.222"/></g></svg>