<svg xmlns="http://www.w3.org/2000/svg" xmlns:svgjs="http://svgjs.dev/svgjs" xmlns:xlink="http://www.w3.org/1999/xlink" width="1000" height="1000" version="1.1"><g clip-path="url(#SvgjsClipPath1439)"><rect width="1000" height="1000" fill="#3a95c9"/><g transform="matrix(1.7578125,0,0,1.7578125,50,50)"><svg xmlns="http://www.w3.org/2000/svg" xmlns:svgjs="http://svgjs.dev/svgjs" xmlns:xlink="http://www.w3.org/1999/xlink" width="512" height="512" version="1.1"><svg xmlns="http://www.w3.org/2000/svg" width="512" height="512" fill="none" viewBox="0 0 512 512"><rect width="512" height="512" fill="#3A95C9"/><path fill="#fff" fill-rule="evenodd" d="M189.554 75.5027H440.464L326.867 200.177L438.286 311.271L323.497 437.247L71.8242 437.183L185.898 311.986L74.9194 201.339L189.554 75.5027ZM206.383 332.41L137.628 407.87L282.104 407.905L206.383 332.41ZM316.825 401.662L225.891 310.999L307.359 221.587L398.293 312.256L316.825 401.662ZM286.875 201.163L205.406 290.576L114.91 200.351L196.374 110.926L286.875 201.163ZM306.383 179.752L374.647 104.833H231.244L306.383 179.752Z" clip-rule="evenodd"/></svg></svg></g></g><defs><clipPath id="SvgjsClipPath1439"><rect width="1000" height="1000" x="0" y="0" rx="200" ry="200"/></clipPath></defs></svg>