<svg xmlns="http://www.w3.org/2000/svg" data-name="图层 1" viewBox="0 0 377.44 377.44"><title>Sipeed</title><g><title>Layer 1</title><rect id="svg_11" width="377.44" height="377.44" x="0" y="0" fill="#e34548" rx="38.17"/><polygon id="svg_12" fill="#fff7f0" points="307.06 247.06 225.43 329.02 103.94 329.02 103.94 274.99 244.7 274.99 244.7 219.14 159.12 219.14 77.16 137.18 159.14 55.22 280.55 55.22 280.55 109.26 139.78 109.26 139.78 165.1 225.1 165.1 307.06 247.06"/><path id="svg_13" fill="#fff7f0" d="m93.59,65.42a25.77,25.77 0 1 0 -27.78,27.78a25.86,25.86 0 0 0 27.78,-27.78zm-27.05,12.5a10.49,10.49 0 1 1 11.77,-11.77a10.5,10.5 0 0 1 -11.77,11.77z"/></g></svg>