<svg xmlns="http://www.w3.org/2000/svg" xmlns:svg="http://www.w3.org/2000/svg" id="svg5" width="300" height="80" version="1.1" viewBox="0 0 79.375 21.167"><defs id="defs2"><rect id="rect22993" width="233.301" height="93.364" x="72.436" y="4.99"/><rect id="rect5098" width="210.435" height="46.881" x="76.461" y="7.503"/></defs><g id="layer1"><path id="path49" d="m 10.58314,1.3501934 c -5.1005652,0 -9.23314,4.1325746 -9.23314,9.2331386 0,5.100566 4.1325748,9.233141 9.23314,9.233141 5.100565,0 9.23314,-4.132575 9.23314,-9.233141 0,-5.100564 -4.132575,-9.2331386 -9.23314,-9.2331386 z m 0,16.6792216 c -4.1139596,0 -7.4460807,-3.332121 -7.4460807,-7.446083 0,-4.1139582 3.3321211,-7.4460793 7.4460807,-7.4460793 4.11396,0 7.446082,3.3321211 7.446082,7.4460793 0,4.113962 -3.332122,7.446083 -7.446082,7.446083 z" style="stroke-width:.0372303"/><text style="font-style:normal;font-variant:normal;font-weight:400;font-stretch:normal;font-size:11.2889px;line-height:1.25;font-family:'DejaVu Sans';-inkscape-font-specification:'DejaVu Sans, Normal';font-variant-ligatures:normal;font-variant-caps:normal;font-variant-numeric:normal;font-variant-east-asian:normal;fill:#000;fill-opacity:1;stroke:none;stroke-width:.264583" id="text29885" x="22.35" y="13.897" xml:space="preserve"><tspan id="tspan29883" x="22.35" y="13.897" style="font-style:normal;font-variant:normal;font-weight:400;font-stretch:normal;font-size:11.2889px;font-family:'DejaVu Sans';-inkscape-font-specification:'DejaVu Sans, Normal';font-variant-ligatures:normal;font-variant-caps:normal;font-variant-numeric:normal;font-variant-east-asian:normal;stroke-width:.264583">sourcehut</tspan></text></g></svg>