<svg xmlns="http://www.w3.org/2000/svg" fill="none" viewBox="8 4 48 56"><path fill="#0B1A2E" d="M32 4L8 14v18c0 14 10 24 24 28 14-4 24-14 24-28V14L32 4z"/><path fill="#162840" d="M32 8L12 16v14c0 12 8.5 20.5 20 24 11.5-3.5 20-12 20-24V16L32 8z"/><path fill="#18D1E7" d="M22 24h20v4H34v16h-4V28H22v-4z"/><path fill="none" stroke="#18D1E7" stroke-linecap="round" stroke-width="2" d="M32 20a16 16 0 0 1 11.3 4.7" opacity=".6"/><path fill="none" stroke="#18D1E7" stroke-linecap="round" stroke-width="2" d="M32 16a20 20 0 0 1 14.1 5.9" opacity=".4"/><path fill="none" stroke="#18D1E7" stroke-linecap="round" stroke-width="2" d="M32 12a24 24 0 0 1 17 7" opacity=".2"/><defs><filter id="glow" width="140%" height="140%" x="-20%" y="-20%"><feGaussianBlur result="blur" stdDeviation="1"/><feMerge><feMergeNode in="blur"/><feMergeNode in="SourceGraphic"/></feMerge></filter></defs><path fill="#18D1E7" d="M22 24h20v4H34v16h-4V28H22v-4z" filter="url(#glow)"/></svg>