<svg xmlns="http://www.w3.org/2000/svg" fill="none" viewBox="0 3 32 25"><style>line{stroke:#231a12}circle,path.darkMode{fill:#231a12}circle.button{fill:#fff}@media (prefers-color-scheme:dark){line{stroke:#474143}circle,path.darkMode{fill:#474143}circle.button{fill:#fff}}</style><line x1="13.053" x2="15.156" y1="3.858" y2="7.613" stroke="#231A12" class="darkMode"/><line x1="18.301" x2="15.884" y1="3.783" y2="7.344" stroke="#231A12"/><path fill="#231A12" d="M0 17C0 11.4772 4.47715 7 10 7H22C27.5228 7 32 11.4772 32 17V18C32 23.5228 27.5228 28 22 28H10C4.47715 28 0 23.5228 0 18V17Z" class="darkMode"/><path fill="#231A12" d="M0 8.48936C0 7.66681 0.69548 7 1.5534 7H30.4466C31.3045 7 32 7.66681 32 8.48936V26.5106C32 27.3332 31.3045 28 30.4466 28H1.5534C0.69548 28 0 27.3332 0 26.5106V8.48936Z" class="darkMode"/><circle cx="13" cy="4" r="1" fill="#231A12"/><circle cx="18" cy="4" r="1" fill="#231A12"/><path fill="#DD3C2C" d="M3.00397 11.5614C3.00397 11.0091 3.45168 10.5614 4.00397 10.5614H8.33894V24.53H4.00397C3.45168 24.53 3.00397 24.0823 3.00397 23.53V11.5614Z"/><path fill="#E98E1D" d="M18.8472 10.5614H23.1822C23.7345 10.5614 24.1822 11.0091 24.1822 11.5614V23.53C24.1822 24.0823 23.7345 24.53 23.1822 24.53H18.8472V10.5614Z"/><rect width="5.335" height="13.969" x="13.674" y="10.561" fill="#68AAE5"/><rect width="5.335" height="13.969" x="8.339" y="10.561" fill="#8DCA23"/><circle cx="28" cy="14" r="1" fill="#fff" class="button"/><circle cx="28" cy="22" r="1" fill="#fff" class="button"/><circle cx="28" cy="18" r="1" fill="#fff" class="button"/></svg>