<svg xmlns="http://www.w3.org/2000/svg" version="1.1" viewBox="-0.07 0.36 368.37 213.14" xml:space="preserve"><title>VeraCrypt logo</title><metadata/><g><g><path d="m0 0-24.6 42.5 49.1 0.013z" transform="matrix(1.25 0 0 -1.25 -21.7 1041) translate(41.9 790)" style="fill:#20acd9"/></g><g><path d="m0 0 24.5 42.5 24.5-42.5z" transform="matrix(1.25 0 0 -1.25 -21.7 1041) translate(41.9 790)" style="fill:#27a7d4"/></g><g><path d="m0 0-24.6 42.5 49.1 0.013z" transform="matrix(1.25 0 0 -1.25 -21.7 1041) translate(66.5 747)" style="fill:#259ed2"/></g><g><path d="m0 0 24.5 42.5 24.5-42.5z" transform="matrix(1.25 0 0 -1.25 -21.7 1041) translate(66.5 747)" style="fill:#2a8ece"/></g><g><path d="m0 0-24.6 42.5 49.1 0.013z" transform="matrix(1.25 0 0 -1.25 -21.7 1041) translate(91 705)" style="fill:#3088c8"/></g><g><path d="m0 0 24.5 42.5 24.5-42.5z" transform="matrix(1.25 0 0 -1.25 -21.7 1041) translate(91 705)" style="fill:#357abe"/></g><g><path d="m0 0-24.6 42.5 49.1 0.013z" transform="matrix(1.25 0 0 -1.25 -21.7 1041) translate(116 662)" style="fill:#3a6db3"/></g><g><path d="m0 0 24.5 42.5 24.5-42.5z" transform="matrix(1.25 0 0 -1.25 -21.7 1041) translate(116 662)" style="fill:#22697d"/></g><g><path d="m0 0-24.6 42.5 49.1 0.013z" transform="matrix(1.25 0 0 -1.25 -21.7 1041) translate(165 662)" style="fill:#3a9ab1"/></g><g><path d="m0 0 24.5 42.5 24.5-42.5z" transform="matrix(1.25 0 0 -1.25 -21.7 1041) translate(140 705)" style="fill:#3aa6ae"/></g><g><path d="m0 0-24.6 42.5 49.1 0.013z" transform="matrix(1.25 0 0 -1.25 -21.7 1041) translate(189 705)" style="fill:#3bacac"/></g><g><path d="m0 0 24.5 42.5 24.6-42.5z" transform="matrix(1.25 0 0 -1.25 -21.7 1041) translate(165 747)" style="fill:#3daaa0"/></g><g><path d="m0 0-24.6 42.5 49.1 0.013z" transform="matrix(1.25 0 0 -1.25 -21.7 1041) translate(214 747)" style="fill:#3faa8d"/></g><g><path d="m0 0 24.5 42.5 24.5-42.5z" transform="matrix(1.25 0 0 -1.25 -21.7 1041) translate(189 790)" style="fill:#40ab86"/></g><g><path d="m0 0-24.6 42.5 49.1 0.013z" transform="matrix(1.25 0 0 -1.25 -21.7 1041) translate(189 705)" style="fill:#2f6b54"/></g><g><path d="m0 0 24.5 42.5 24.5-42.5z" transform="matrix(1.25 0 0 -1.25 -21.7 1041) translate(165 747)" style="fill:#44b496"/></g><g><path d="m0 0-24.6 42.5 49.1 0.013z" transform="matrix(1.25 0 0 -1.25 -21.7 1041) translate(214 747)" style="fill:#52b89b"/></g><g><path d="m0 0 24.5 42.5 24.5-42.5z" transform="matrix(1.25 0 0 -1.25 -21.7 1041) translate(189 790)" style="fill:#5cba9d"/></g><g><path d="m0 0-24.6 42.5 49.1 0.013z" transform="matrix(1.25 0 0 -1.25 -21.7 1041) translate(238 790)" style="fill:#6fc0a6"/></g><g><path d="m0 0 24.5 42.5 24.6-42.5z" transform="matrix(1.25 0 0 -1.25 -21.7 1041) translate(238 790)" style="fill:#88c9b2"/></g><g><path d="m0 0-24.5 42.5 49.1-6e-3z" transform="matrix(1.25 0 0 -1.25 -21.7 1041) translate(287 790)" style="fill:#99d0bb"/></g><g><path d="m0 0 24.8 42.4 24.3-42.7z" transform="matrix(1.25 0 0 -1.25 -21.7 1041) translate(189 705)" style="fill:#37a084"/></g><g><path d="m0 0 24.5 42.5 24.6-42.5z" transform="matrix(1.25 0 0 -1.25 -21.7 1041) translate(214 662)" style="fill:#35896c"/></g><g><path d="m0 0-24.6 42.5 49.1 0.013z" transform="matrix(1.25 0 0 -1.25 -21.7 1041) translate(263 662)" style="fill:#379b7f"/></g><g><path d="m0 0 24.5 42.5 24.5-42.5z" transform="matrix(1.25 0 0 -1.25 -21.7 1041) translate(263 662)" style="fill:#3bad91"/></g><g><path d="m0 0-24.6 42.5 49.1 0.013z" transform="matrix(1.25 0 0 -1.25 -21.7 1041) translate(214 662)" style="fill:#368f74"/></g></g></svg>