<svg xmlns="http://www.w3.org/2000/svg" xmlns:xlink="http://www.w3.org/1999/xlink" id="Layer_1" width="200" height="181.135" viewBox="0 0 200 181.135"><defs><radialGradient id="radial-gradient" cx="-7512.018" cy="-9386.136" r="168.315" fx="-7512.018" fy="-9386.136" gradientTransform="translate(2722.070016533136368 -3198.996635093753412) scale(.349999994039536 -.349999994039536)" gradientUnits="userSpaceOnUse"><stop offset="0" stop-color="#fff"/><stop offset=".09" stop-color="#fff" stop-opacity=".98"/><stop offset=".22" stop-color="#fff" stop-opacity=".91"/><stop offset=".36" stop-color="#fff" stop-opacity=".79"/><stop offset=".52" stop-color="#fff" stop-opacity=".63"/><stop offset=".7" stop-color="#fff" stop-opacity=".43"/><stop offset=".88" stop-color="#fff" stop-opacity=".18"/><stop offset="1" stop-color="#fff" stop-opacity="0"/></radialGradient><radialGradient id="radial-gradient-2" cx="73.157" cy="-702.28" r=".407" fx="73.157" fy="-702.28" gradientTransform="translate(0 -683.180053710944776) scale(1 -1)" gradientUnits="userSpaceOnUse"><stop offset="0" stop-color="#fff"/><stop offset="1" stop-color="#fff" stop-opacity="0"/></radialGradient><radialGradient id="radial-gradient-3" cx="61.349" cy="-718.378" r=".407" fx="61.349" fy="-718.378" gradientTransform="translate(0 -683.180053710944776) scale(1 -1)" gradientUnits="userSpaceOnUse"><stop offset="0" stop-color="#fff"/><stop offset="1" stop-color="#fff" stop-opacity="0"/></radialGradient><radialGradient id="radial-gradient-4" cx="59.024" cy="-731.258" r=".407" fx="59.024" fy="-731.258" gradientTransform="translate(0 -683.180053710944776) scale(1 -1)" gradientUnits="userSpaceOnUse"><stop offset="0" stop-color="#fff"/><stop offset="1" stop-color="#fff" stop-opacity="0"/></radialGradient><radialGradient id="radial-gradient-5" cx="34.695" cy="-742.17" r=".407" fx="34.695" fy="-742.17" gradientTransform="translate(0 -683.180053710944776) scale(1 -1)" gradientUnits="userSpaceOnUse"><stop offset="0" stop-color="#fff"/><stop offset="1" stop-color="#fff" stop-opacity="0"/></radialGradient><radialGradient id="radial-gradient-6" cx="38.096" cy="-747.176" r=".407" fx="38.096" fy="-747.176" gradientTransform="translate(0 -683.180053710944776) scale(1 -1)" gradientUnits="userSpaceOnUse"><stop offset="0" stop-color="#fff"/><stop offset="1" stop-color="#fff" stop-opacity="0"/></radialGradient><radialGradient id="radial-gradient-7" cx="79.775" cy="-748.901" r=".407" fx="79.775" fy="-748.901" gradientTransform="translate(0 -683.180053710944776) scale(1 -1)" gradientUnits="userSpaceOnUse"><stop offset="0" stop-color="#fff"/><stop offset="1" stop-color="#fff" stop-opacity="0"/></radialGradient><radialGradient id="radial-gradient-8" cx="79.063" cy="-759.358" r=".407" fx="79.063" fy="-759.358" gradientTransform="translate(0 -683.180053710944776) scale(1 -1)" gradientUnits="userSpaceOnUse"><stop offset="0" stop-color="#fff"/><stop offset="1" stop-color="#fff" stop-opacity="0"/></radialGradient><radialGradient id="radial-gradient-9" cx="95.697" cy="-753.181" r=".407" fx="95.697" fy="-753.181" gradientTransform="translate(0 -683.180053710944776) scale(1 -1)" gradientUnits="userSpaceOnUse"><stop offset="0" stop-color="#fff"/><stop offset="1" stop-color="#fff" stop-opacity="0"/></radialGradient><radialGradient id="radial-gradient-10" cx="96.413" cy="-758.645" r=".407" fx="96.413" fy="-758.645" gradientTransform="translate(0 -683.180053710944776) scale(1 -1)" gradientUnits="userSpaceOnUse"><stop offset="0" stop-color="#fff"/><stop offset="1" stop-color="#fff" stop-opacity="0"/></radialGradient><radialGradient id="radial-gradient-11" cx="116.852" cy="-767.201" r=".407" fx="116.852" fy="-767.201" gradientTransform="translate(0 -683.180053710944776) scale(1 -1)" gradientUnits="userSpaceOnUse"><stop offset="0" stop-color="#fff"/><stop offset="1" stop-color="#fff" stop-opacity="0"/></radialGradient><radialGradient id="radial-gradient-12" cx="122.792" cy="-700.416" r=".407" fx="122.792" fy="-700.416" gradientTransform="translate(0 -683.180053710944776) scale(1 -1)" gradientUnits="userSpaceOnUse"><stop offset="0" stop-color="#fff"/><stop offset="1" stop-color="#fff" stop-opacity="0"/></radialGradient><radialGradient id="radial-gradient-13" cx="130.398" cy="-748.663" r=".407" fx="130.398" fy="-748.663" gradientTransform="translate(0 -683.180053710944776) scale(1 -1)" gradientUnits="userSpaceOnUse"><stop offset="0" stop-color="#fff"/><stop offset="1" stop-color="#fff" stop-opacity="0"/></radialGradient><radialGradient id="radial-gradient-14" cx="100.934" cy="-751.898" r=".815" fx="100.934" fy="-751.898" gradientTransform="translate(0 -683.180053710944776) scale(1 -1)" gradientUnits="userSpaceOnUse"><stop offset="0" stop-color="#fff"/><stop offset="1" stop-color="#fff" stop-opacity="0"/></radialGradient><radialGradient id="radial-gradient-15" cx="92.469" cy="-757.667" r=".814" fx="92.469" fy="-757.667" gradientTransform="translate(0 -683.180053710944776) scale(1 -1)" gradientUnits="userSpaceOnUse"><stop offset="0" stop-color="#fff"/><stop offset="1" stop-color="#fff" stop-opacity="0"/></radialGradient><radialGradient id="radial-gradient-16" cx="128.636" cy="-729.578" r=".814" fx="128.636" fy="-729.578" gradientTransform="translate(0 -683.180053710944776) scale(1 -1)" gradientUnits="userSpaceOnUse"><stop offset="0" stop-color="#fff"/><stop offset="1" stop-color="#fff" stop-opacity="0"/></radialGradient><radialGradient id="radial-gradient-17" cx="127.289" cy="-747.855" r=".814" fx="127.289" fy="-747.855" gradientTransform="translate(0 -683.180053710944776) scale(1 -1)" gradientUnits="userSpaceOnUse"><stop offset="0" stop-color="#fff"/><stop offset="1" stop-color="#fff" stop-opacity="0"/></radialGradient><radialGradient id="radial-gradient-18" cx="119.018" cy="-764.595" r=".815" fx="119.018" fy="-764.595" gradientTransform="translate(0 -683.180053710944776) scale(1 -1)" gradientUnits="userSpaceOnUse"><stop offset="0" stop-color="#fff"/><stop offset="1" stop-color="#fff" stop-opacity="0"/></radialGradient><radialGradient id="radial-gradient-19" cx="123.634" cy="-770.558" r=".814" fx="123.634" fy="-770.558" gradientTransform="translate(0 -683.180053710944776) scale(1 -1)" gradientUnits="userSpaceOnUse"><stop offset="0" stop-color="#fff"/><stop offset="1" stop-color="#fff" stop-opacity="0"/></radialGradient><radialGradient id="radial-gradient-20" cx="57.259" cy="-728.231" r=".814" fx="57.259" fy="-728.231" gradientTransform="translate(0 -683.180053710944776) scale(1 -1)" gradientUnits="userSpaceOnUse"><stop offset="0" stop-color="#fff"/><stop offset="1" stop-color="#fff" stop-opacity="0"/></radialGradient><radialGradient id="radial-gradient-21" cx="75.346" cy="-743.429" r=".814" fx="75.346" fy="-743.429" gradientTransform="translate(0 -683.180053710944776) scale(1 -1)" gradientUnits="userSpaceOnUse"><stop offset="0" stop-color="#fff"/><stop offset="1" stop-color="#fff" stop-opacity="0"/></radialGradient><radialGradient id="radial-gradient-22" cx="74.382" cy="-750.163" r=".814" fx="74.382" fy="-750.163" gradientTransform="translate(0 -683.180053710944776) scale(1 -1)" gradientUnits="userSpaceOnUse"><stop offset="0" stop-color="#fff"/><stop offset="1" stop-color="#fff" stop-opacity="0"/></radialGradient><radialGradient id="radial-gradient-23" cx="59.184" cy="-715.727" r=".814" fx="59.184" fy="-715.727" gradientTransform="translate(0 -683.180053710944776) scale(1 -1)" gradientUnits="userSpaceOnUse"><stop offset="0" stop-color="#fff"/><stop offset="1" stop-color="#fff" stop-opacity="0"/></radialGradient><radialGradient id="radial-gradient-24" cx="161.881" cy="-739.16" r=".407" fx="161.881" fy="-739.16" gradientTransform="translate(0 -683.180053710944776) scale(1 -1)" gradientUnits="userSpaceOnUse"><stop offset="0" stop-color="#fff"/><stop offset="1" stop-color="#fff" stop-opacity="0"/></radialGradient><radialGradient id="radial-gradient-25" cx="159.556" cy="-752.04" r=".407" fx="159.556" fy="-752.04" gradientTransform="translate(0 -683.180053710944776) scale(1 -1)" gradientUnits="userSpaceOnUse"><stop offset="0" stop-color="#fff"/><stop offset="1" stop-color="#fff" stop-opacity="0"/></radialGradient><radialGradient id="radial-gradient-26" cx="135.231" cy="-762.952" r=".407" fx="135.231" fy="-762.952" gradientTransform="translate(0 -683.180053710944776) scale(1 -1)" gradientUnits="userSpaceOnUse"><stop offset="0" stop-color="#fff"/><stop offset="1" stop-color="#fff" stop-opacity="0"/></radialGradient><radialGradient id="radial-gradient-27" cx="138.628" cy="-767.958" r=".407" fx="138.628" fy="-767.958" gradientTransform="translate(0 -683.180053710944776) scale(1 -1)" gradientUnits="userSpaceOnUse"><stop offset="0" stop-color="#fff"/><stop offset="1" stop-color="#fff" stop-opacity="0"/></radialGradient><radialGradient id="radial-gradient-28" cx="89.041" cy="-700.043" r=".407" fx="89.041" fy="-700.043" gradientTransform="translate(0 -683.180053710944776) scale(1 -1)" gradientUnits="userSpaceOnUse"><stop offset="0" stop-color="#fff"/><stop offset="1" stop-color="#fff" stop-opacity="0"/></radialGradient><radialGradient id="radial-gradient-29" cx="87.378" cy="-706.936" r=".407" fx="87.378" fy="-706.936" gradientTransform="translate(0 -683.180053710944776) scale(1 -1)" gradientUnits="userSpaceOnUse"><stop offset="0" stop-color="#fff"/><stop offset="1" stop-color="#fff" stop-opacity="0"/></radialGradient><radialGradient id="radial-gradient-30" cx="94.509" cy="-703.373" r=".407" fx="94.509" fy="-703.373" gradientTransform="translate(0 -683.180053710944776) scale(1 -1)" gradientUnits="userSpaceOnUse"><stop offset="0" stop-color="#fff"/><stop offset="1" stop-color="#fff" stop-opacity="0"/></radialGradient><radialGradient id="radial-gradient-31" cx="91.655" cy="-724.524" r=".407" fx="91.655" fy="-724.524" gradientTransform="translate(0 -683.180053710944776) scale(1 -1)" gradientUnits="userSpaceOnUse"><stop offset="0" stop-color="#fff"/><stop offset="1" stop-color="#fff" stop-opacity="0"/></radialGradient><radialGradient id="radial-gradient-32" cx="109.48" cy="-747.58" r=".407" fx="109.48" fy="-747.58" gradientTransform="translate(0 -683.180053710944776) scale(1 -1)" gradientUnits="userSpaceOnUse"><stop offset="0" stop-color="#fff"/><stop offset="1" stop-color="#fff" stop-opacity="0"/></radialGradient><radialGradient id="radial-gradient-33" cx="116.849" cy="-746.627" r=".407" fx="116.849" fy="-746.627" gradientTransform="translate(0 -683.180053710944776) scale(1 -1)" gradientUnits="userSpaceOnUse"><stop offset="0" stop-color="#fff"/><stop offset="1" stop-color="#fff" stop-opacity="0"/></radialGradient><radialGradient id="radial-gradient-34" cx="115.186" cy="-752.332" r=".407" fx="115.186" fy="-752.332" gradientTransform="translate(0 -683.180053710944776) scale(1 -1)" gradientUnits="userSpaceOnUse"><stop offset="0" stop-color="#fff"/><stop offset="1" stop-color="#fff" stop-opacity="0"/></radialGradient><radialGradient id="radial-gradient-35" cx="157.795" cy="-749.013" r=".814" fx="157.795" fy="-749.013" gradientTransform="translate(0 -683.180053710944776) scale(1 -1)" gradientUnits="userSpaceOnUse"><stop offset="0" stop-color="#fff"/><stop offset="1" stop-color="#fff" stop-opacity="0"/></radialGradient><radialGradient id="radial-gradient-36" cx="95.653" cy="-728.428" r=".814" fx="95.653" fy="-728.428" gradientTransform="translate(0 -683.180053710944776) scale(1 -1)" gradientUnits="userSpaceOnUse"><stop offset="0" stop-color="#fff"/><stop offset="1" stop-color="#fff" stop-opacity="0"/></radialGradient><radialGradient id="radial-gradient-37" cx="93.922" cy="-699.184" r=".814" fx="93.922" fy="-699.184" gradientTransform="translate(0 -683.180053710944776) scale(1 -1)" gradientUnits="userSpaceOnUse"><stop offset="0" stop-color="#fff"/><stop offset="1" stop-color="#fff" stop-opacity="0"/></radialGradient><radialGradient id="radial-gradient-38" cx="119.316" cy="-749.206" r=".814" fx="119.316" fy="-749.206" gradientTransform="translate(0 -683.180053710944776) scale(1 -1)" gradientUnits="userSpaceOnUse"><stop offset="0" stop-color="#fff"/><stop offset="1" stop-color="#fff" stop-opacity="0"/></radialGradient><radialGradient id="radial-gradient-39" cx="159.716" cy="-736.509" r=".814" fx="159.716" fy="-736.509" gradientTransform="translate(0 -683.180053710944776) scale(1 -1)" gradientUnits="userSpaceOnUse"><stop offset="0" stop-color="#fff"/><stop offset="1" stop-color="#fff" stop-opacity="0"/></radialGradient><radialGradient id="radial-gradient-40" cx="162.964" cy="-761.761" r=".407" fx="162.964" fy="-761.761" gradientTransform="translate(0 -683.180053710944776) scale(1 -1)" gradientUnits="userSpaceOnUse"><stop offset="0" stop-color="#fff"/><stop offset="1" stop-color="#fff" stop-opacity="0"/></radialGradient><radialGradient id="radial-gradient-41" cx="150.304" cy="-758.431" r=".407" fx="150.304" fy="-758.431" gradientTransform="translate(0 -683.180053710944776) scale(1 -1)" gradientUnits="userSpaceOnUse"><stop offset="0" stop-color="#fff"/><stop offset="1" stop-color="#fff" stop-opacity="0"/></radialGradient><radialGradient id="radial-gradient-42" cx="141.334" cy="-733.325" r=".407" fx="141.334" fy="-733.325" gradientTransform="translate(0 -683.180053710944776) scale(1 -1)" gradientUnits="userSpaceOnUse"><stop offset="0" stop-color="#fff"/><stop offset="1" stop-color="#fff" stop-opacity="0"/></radialGradient><radialGradient id="radial-gradient-43" cx="136.076" cy="-736.319" r=".407" fx="136.076" fy="-736.319" gradientTransform="translate(0 -683.180053710944776) scale(1 -1)" gradientUnits="userSpaceOnUse"><stop offset="0" stop-color="#fff"/><stop offset="1" stop-color="#fff" stop-opacity="0"/></radialGradient><radialGradient id="radial-gradient-44" cx="131.09" cy="-777.737" r=".407" fx="131.09" fy="-777.737" gradientTransform="translate(0 -683.180053710944776) scale(1 -1)" gradientUnits="userSpaceOnUse"><stop offset="0" stop-color="#fff"/><stop offset="1" stop-color="#fff" stop-opacity="0"/></radialGradient><radialGradient id="radial-gradient-45" cx="120.721" cy="-776.206" r=".407" fx="120.721" fy="-776.206" gradientTransform="translate(0 -683.180053710944776) scale(1 -1)" gradientUnits="userSpaceOnUse"><stop offset="0" stop-color="#fff"/><stop offset="1" stop-color="#fff" stop-opacity="0"/></radialGradient><radialGradient id="radial-gradient-46" cx="125.578" cy="-793.275" r=".407" fx="125.578" fy="-793.275" gradientTransform="translate(0 -683.180053710944776) scale(1 -1)" gradientUnits="userSpaceOnUse"><stop offset="0" stop-color="#fff"/><stop offset="1" stop-color="#fff" stop-opacity="0"/></radialGradient><radialGradient id="radial-gradient-47" cx="120.073" cy="-793.556" r=".407" fx="120.073" fy="-793.556" gradientTransform="translate(0 -683.180053710944776) scale(1 -1)" gradientUnits="userSpaceOnUse"><stop offset="0" stop-color="#fff"/><stop offset="1" stop-color="#fff" stop-opacity="0"/></radialGradient><radialGradient id="radial-gradient-48" cx="109.942" cy="-813.266" r=".407" fx="109.942" fy="-813.266" gradientTransform="translate(0 -683.180053710944776) scale(1 -1)" gradientUnits="userSpaceOnUse"><stop offset="0" stop-color="#fff"/><stop offset="1" stop-color="#fff" stop-opacity="0"/></radialGradient><radialGradient id="radial-gradient-49" cx="127.36" cy="-828.223" r=".407" fx="127.36" fy="-828.223" gradientTransform="translate(0 -683.180053710944776) scale(1 -1)" gradientUnits="userSpaceOnUse"><stop offset="0" stop-color="#fff"/><stop offset="1" stop-color="#fff" stop-opacity="0"/></radialGradient><radialGradient id="radial-gradient-50" cx="126.447" cy="-798.593" r=".815" fx="126.447" fy="-798.593" gradientTransform="translate(0 -683.180053710944776) scale(1 -1)" gradientUnits="userSpaceOnUse"><stop offset="0" stop-color="#fff"/><stop offset="1" stop-color="#fff" stop-opacity="0"/></radialGradient><radialGradient id="radial-gradient-51" cx="121.356" cy="-789.704" r=".815" fx="121.356" fy="-789.704" gradientTransform="translate(0 -683.180053710944776) scale(1 -1)" gradientUnits="userSpaceOnUse"><stop offset="0" stop-color="#fff"/><stop offset="1" stop-color="#fff" stop-opacity="0"/></radialGradient><radialGradient id="radial-gradient-52" cx="112.372" cy="-815.628" r=".815" fx="112.372" fy="-815.628" gradientTransform="translate(0 -683.180053710944776) scale(1 -1)" gradientUnits="userSpaceOnUse"><stop offset="0" stop-color="#fff"/><stop offset="1" stop-color="#fff" stop-opacity="0"/></radialGradient><radialGradient id="radial-gradient-53" cx="106.062" cy="-819.762" r=".815" fx="106.062" fy="-819.762" gradientTransform="translate(0 -683.180053710944776) scale(1 -1)" gradientUnits="userSpaceOnUse"><stop offset="0" stop-color="#fff"/><stop offset="1" stop-color="#fff" stop-opacity="0"/></radialGradient><radialGradient id="radial-gradient-54" cx="153.461" cy="-756.911" r=".815" fx="153.461" fy="-756.911" gradientTransform="translate(0 -683.180053710944776) scale(1 -1)" gradientUnits="userSpaceOnUse"><stop offset="0" stop-color="#fff"/><stop offset="1" stop-color="#fff" stop-opacity="0"/></radialGradient><radialGradient id="radial-gradient-55" cx="136.891" cy="-773.749" r=".815" fx="136.891" fy="-773.749" gradientTransform="translate(0 -683.180053710944776) scale(1 -1)" gradientUnits="userSpaceOnUse"><stop offset="0" stop-color="#fff"/><stop offset="1" stop-color="#fff" stop-opacity="0"/></radialGradient><radialGradient id="radial-gradient-56" cx="130.252" cy="-772.262" r=".815" fx="130.252" fy="-772.262" gradientTransform="translate(0 -683.180053710944776) scale(1 -1)" gradientUnits="userSpaceOnUse"><stop offset="0" stop-color="#fff"/><stop offset="1" stop-color="#fff" stop-opacity="0"/></radialGradient><radialGradient id="radial-gradient-57" cx="165.778" cy="-759.809" r=".815" fx="165.778" fy="-759.809" gradientTransform="translate(0 -683.180053710944776) scale(1 -1)" gradientUnits="userSpaceOnUse"><stop offset="0" stop-color="#fff"/><stop offset="1" stop-color="#fff" stop-opacity="0"/></radialGradient><radialGradient id="radial-gradient-58" cx="29.726" cy="-769.703" r=".407" fx="29.726" fy="-769.703" gradientTransform="translate(0 -683.180053710944776) scale(1 -1)" gradientUnits="userSpaceOnUse"><stop offset="0" stop-color="#fff"/><stop offset="1" stop-color="#fff" stop-opacity="0"/></radialGradient><radialGradient id="radial-gradient-59" cx="61.851" cy="-804.597" r=".407" fx="61.851" fy="-804.597" gradientTransform="translate(0 -683.180053710944776) scale(1 -1)" gradientUnits="userSpaceOnUse"><stop offset="0" stop-color="#fff"/><stop offset="1" stop-color="#fff" stop-opacity="0"/></radialGradient><radialGradient id="radial-gradient-60" cx="50.4" cy="-804.451" r=".407" fx="50.4" fy="-804.451" gradientTransform="translate(0 -683.180053710944776) scale(1 -1)" gradientUnits="userSpaceOnUse"><stop offset="0" stop-color="#fff"/><stop offset="1" stop-color="#fff" stop-opacity="0"/></radialGradient><radialGradient id="radial-gradient-61" cx="42.227" cy="-754.138" r=".407" fx="42.227" fy="-754.138" gradientTransform="translate(0 -683.180053710944776) scale(1 -1)" gradientUnits="userSpaceOnUse"><stop offset="0" stop-color="#fff"/><stop offset="1" stop-color="#fff" stop-opacity="0"/></radialGradient><radialGradient id="radial-gradient-62" cx="45.119" cy="-741.373" r=".407" fx="45.119" fy="-741.373" gradientTransform="translate(0 -683.180053710944776) scale(1 -1)" gradientUnits="userSpaceOnUse"><stop offset="0" stop-color="#fff"/><stop offset="1" stop-color="#fff" stop-opacity="0"/></radialGradient><radialGradient id="radial-gradient-63" cx="69.902" cy="-731.54" r=".407" fx="69.902" fy="-731.54" gradientTransform="translate(0 -683.180053710944776) scale(1 -1)" gradientUnits="userSpaceOnUse"><stop offset="0" stop-color="#fff"/><stop offset="1" stop-color="#fff" stop-opacity="0"/></radialGradient><radialGradient id="radial-gradient-64" cx="66.725" cy="-726.388" r=".407" fx="66.725" fy="-726.388" gradientTransform="translate(0 -683.180053710944776) scale(1 -1)" gradientUnits="userSpaceOnUse"><stop offset="0" stop-color="#fff"/><stop offset="1" stop-color="#fff" stop-opacity="0"/></radialGradient><radialGradient id="radial-gradient-65" cx="25.161" cy="-722.834" r=".407" fx="25.161" fy="-722.834" gradientTransform="translate(0 -683.180053710944776) scale(1 -1)" gradientUnits="userSpaceOnUse"><stop offset="0" stop-color="#fff"/><stop offset="1" stop-color="#fff" stop-opacity="0"/></radialGradient><radialGradient id="radial-gradient-66" cx="38.48" cy="-825.719" r=".407" fx="38.48" fy="-825.719" gradientTransform="translate(0 -683.180053710944776) scale(1 -1)" gradientUnits="userSpaceOnUse"><stop offset="0" stop-color="#fff"/><stop offset="1" stop-color="#fff" stop-opacity="0"/></radialGradient><radialGradient id="radial-gradient-67" cx="39.495" cy="-818.863" r=".407" fx="39.495" fy="-818.863" gradientTransform="translate(0 -683.180053710944776) scale(1 -1)" gradientUnits="userSpaceOnUse"><stop offset="0" stop-color="#fff"/><stop offset="1" stop-color="#fff" stop-opacity="0"/></radialGradient><radialGradient id="radial-gradient-68" cx="113.282" cy="-796.414" r=".407" fx="113.282" fy="-796.414" gradientTransform="translate(0 -683.180053710944776) scale(1 -1)" gradientUnits="userSpaceOnUse"><stop offset="0" stop-color="#fff"/><stop offset="1" stop-color="#fff" stop-opacity="0"/></radialGradient><radialGradient id="radial-gradient-69" cx="115.247" cy="-789.602" r=".407" fx="115.247" fy="-789.602" gradientTransform="translate(0 -683.180053710944776) scale(1 -1)" gradientUnits="userSpaceOnUse"><stop offset="0" stop-color="#fff"/><stop offset="1" stop-color="#fff" stop-opacity="0"/></radialGradient><radialGradient id="radial-gradient-70" cx="107.966" cy="-792.85" r=".407" fx="107.966" fy="-792.85" gradientTransform="translate(0 -683.180053710944776) scale(1 -1)" gradientUnits="userSpaceOnUse"><stop offset="0" stop-color="#fff"/><stop offset="1" stop-color="#fff" stop-opacity="0"/></radialGradient><radialGradient id="radial-gradient-71" cx="111.744" cy="-771.845" r=".407" fx="111.744" fy="-771.845" gradientTransform="translate(0 -683.180053710944776) scale(1 -1)" gradientUnits="userSpaceOnUse"><stop offset="0" stop-color="#fff"/><stop offset="1" stop-color="#fff" stop-opacity="0"/></radialGradient><radialGradient id="radial-gradient-72" cx="94.95" cy="-748.028" r=".407" fx="94.95" fy="-748.028" gradientTransform="translate(0 -683.180053710944776) scale(1 -1)" gradientUnits="userSpaceOnUse"><stop offset="0" stop-color="#fff"/><stop offset="1" stop-color="#fff" stop-opacity="0"/></radialGradient><radialGradient id="radial-gradient-73" cx="87.548" cy="-748.656" r=".407" fx="87.548" fy="-748.656" gradientTransform="translate(0 -683.180053710944776) scale(1 -1)" gradientUnits="userSpaceOnUse"><stop offset="0" stop-color="#fff"/><stop offset="1" stop-color="#fff" stop-opacity="0"/></radialGradient><radialGradient id="radial-gradient-74" cx="89.459" cy="-743.029" r=".407" fx="89.459" fy="-743.029" gradientTransform="translate(0 -683.180053710944776) scale(1 -1)" gradientUnits="userSpaceOnUse"><stop offset="0" stop-color="#fff"/><stop offset="1" stop-color="#fff" stop-opacity="0"/></radialGradient><radialGradient id="radial-gradient-75" cx="65.286" cy="-811.195" r=".407" fx="65.286" fy="-811.195" gradientTransform="translate(0 -683.180053710944776) scale(1 -1)" gradientUnits="userSpaceOnUse"><stop offset="0" stop-color="#fff"/><stop offset="1" stop-color="#fff" stop-opacity="0"/></radialGradient><radialGradient id="radial-gradient-76" cx="15.821" cy="-787.946" r=".815" fx="15.821" fy="-787.946" gradientTransform="translate(0 -683.180053710944776) scale(1 -1)" gradientUnits="userSpaceOnUse"><stop offset="0" stop-color="#fff"/><stop offset="1" stop-color="#fff" stop-opacity="0"/></radialGradient><radialGradient id="radial-gradient-77" cx="46.748" cy="-744.471" r=".815" fx="46.748" fy="-744.471" gradientTransform="translate(0 -683.180053710944776) scale(1 -1)" gradientUnits="userSpaceOnUse"><stop offset="0" stop-color="#fff"/><stop offset="1" stop-color="#fff" stop-opacity="0"/></radialGradient><radialGradient id="radial-gradient-78" cx="29.346" cy="-728.492" r=".815" fx="29.346" fy="-728.492" gradientTransform="translate(0 -683.180053710944776) scale(1 -1)" gradientUnits="userSpaceOnUse"><stop offset="0" stop-color="#fff"/><stop offset="1" stop-color="#fff" stop-opacity="0"/></radialGradient><radialGradient id="radial-gradient-79" cx="30.606" cy="-721.809" r=".815" fx="30.606" fy="-721.809" gradientTransform="translate(0 -683.180053710944776) scale(1 -1)" gradientUnits="userSpaceOnUse"><stop offset="0" stop-color="#fff"/><stop offset="1" stop-color="#fff" stop-opacity="0"/></radialGradient><radialGradient id="radial-gradient-80" cx="107.922" cy="-767.768" r=".815" fx="107.922" fy="-767.768" gradientTransform="translate(0 -683.180053710944776) scale(1 -1)" gradientUnits="userSpaceOnUse"><stop offset="0" stop-color="#fff"/><stop offset="1" stop-color="#fff" stop-opacity="0"/></radialGradient><radialGradient id="radial-gradient-81" cx="108.367" cy="-797.059" r=".815" fx="108.367" fy="-797.059" gradientTransform="translate(0 -683.180053710944776) scale(1 -1)" gradientUnits="userSpaceOnUse"><stop offset="0" stop-color="#fff"/><stop offset="1" stop-color="#fff" stop-opacity="0"/></radialGradient><radialGradient id="radial-gradient-82" cx="65.317" cy="-808.263" r=".815" fx="65.317" fy="-808.263" gradientTransform="translate(0 -683.180053710944776) scale(1 -1)" gradientUnits="userSpaceOnUse"><stop offset="0" stop-color="#fff"/><stop offset="1" stop-color="#fff" stop-opacity="0"/></radialGradient><radialGradient id="radial-gradient-83" cx="43.54" cy="-821.747" r=".815" fx="43.54" fy="-821.747" gradientTransform="translate(0 -683.180053710944776) scale(1 -1)" gradientUnits="userSpaceOnUse"><stop offset="0" stop-color="#fff"/><stop offset="1" stop-color="#fff" stop-opacity="0"/></radialGradient><radialGradient id="radial-gradient-84" cx="85.196" cy="-745.972" r=".815" fx="85.196" fy="-745.972" gradientTransform="translate(0 -683.180053710944776) scale(1 -1)" gradientUnits="userSpaceOnUse"><stop offset="0" stop-color="#fff"/><stop offset="1" stop-color="#fff" stop-opacity="0"/></radialGradient><radialGradient id="radial-gradient-85" cx="23.963" cy="-811.45" r=".815" fx="23.963" fy="-811.45" gradientTransform="translate(0 -683.180053710944776) scale(1 -1)" gradientUnits="userSpaceOnUse"><stop offset="0" stop-color="#fff"/><stop offset="1" stop-color="#fff" stop-opacity="0"/></radialGradient><radialGradient id="radial-gradient-86" cx="27.965" cy="-786.205" r=".815" fx="27.965" fy="-786.205" gradientTransform="translate(0 -683.180053710944776) scale(1 -1)" gradientUnits="userSpaceOnUse"><stop offset="0" stop-color="#fff"/><stop offset="1" stop-color="#fff" stop-opacity="0"/></radialGradient><radialGradient id="radial-gradient-87" cx="44.273" cy="-756.88" r=".815" fx="44.273" fy="-756.88" gradientTransform="translate(0 -683.180053710944776) scale(1 -1)" gradientUnits="userSpaceOnUse"><stop offset="0" stop-color="#fff"/><stop offset="1" stop-color="#fff" stop-opacity="0"/></radialGradient></defs><g style="isolation:isolate"><g id="Calque_1"><circle cx="90.567" cy="90.567" r="90.567" style="fill:#fff"/><path d="M174.215282902822764,90.873995601454226c0,16.505349504972401-4.778852144141638,31.894048064934395-13.026430824341332,44.86277519271971-.427655757211141.678813401098523-.865482943252573,1.347445015495396-1.316899655391353,2.012679248367931-1.255808935180539,1.853157684794496-2.579482637877845,3.652019412429581-3.974459921098969,5.39317744350592h-.003397381524337c-.237588833532755.298679553743568-.478554332848034.59396172596098-.722937929428554.889243898180212-1.700430884270645,2.073769968577835-3.506077017082134,4.062698619889488-5.403348872338029,5.963378214541081-.811186986090433.814574009744319-1.639340164060741,1.612181827607856-2.484459533910012,2.392813095722886-.563406007985577.519291837526907-1.133627494760731,1.031799269874682-1.710602313101845,1.537511939173783-1.730965886504237,1.513750984246144-3.526440590484526,2.956229461580733-5.379587917409481,4.327435432003767-.617722680888619.458190759445642-1.24221940908501.906210090059176-1.873531616069158,1.344057991842419-.946937236866688.658449827695222-1.907463999827996,1.299933463511479-2.878162191621414,1.921032810183533-3.896382293269198,2.481062152384766-8.013387228191277,4.653273322197492-12.310287657960544,6.475885646887036-.359770273952563.152737158396121-.719540547905126.302076935267905-1.079310821857689.448019330615352-.719540547906035.291884790694894-1.445875858858926.576995534082016-2.17899557499004.851914132896127-.366554679129877.139147632300592-.733119716131114.271521217291593-1.09967439526099.403894802284412-1.106469158309665.393702657711401-2.219722721796643.767062457760403-3.346545095638248,1.120037968663382-.373349442178551.11878405889729-.750085908010078.23079407048499-1.126832731712966.342804082074508-1.510363960592258.444621949089196-3.03769411306439.851914132896127-4.581990457415486,1.215081788373936-1.157378091817009.271521217291593-2.324937970336578.519302195396449-3.49928225403346.743301502832765-.784028649639367.145942395347447-1.571454680802162.285110743387122-2.362267735619753.414066231114703-1.187923451921961.190066923676568-2.382631309022145.352975510902979-3.584133929171003.49554124046881-1.204889643801835.139147632298773-2.416574050651434.254555025410809-3.635042862679256.342804082072689-2.029655798118256.145942395347447-4.079664811769362.220622641652881-6.146660733040335.220622641652881-2.066995921271882,0-4.117004934922988-.074659530564531-6.146650375170793-.220622641652881-1.218468812026913-.08824905666188-2.430153218877422-.203635734033014-3.63165583902537-.342804082072689-1.201502620147949-.14254501382311-2.39960785877247-.305474316792242-3.584133929171003-.49554124046881-.790813054816681-.128976203468483-1.578239085980385-.268123835767256-2.362267735619753-.414066231114703-1.17774166522031-.223999307436316-2.341904162215542-.471780285541172-3.49928225403346-.743301502832765-1.544296344351096-.36316765547781-3.071626496823228-.77045983928474-4.581990457415486-1.215081788373936-.376736465832437-.112010011589518-.753483289534415-.223999307436316-1.126832731712966-.342804082074508-1.126832731712966-.352975510902979-2.240086295199944-.726335310951981-3.346545095638248-1.120037968663382-.366554679129877-.13237358499282-.733119716131114-.264747169983821-1.09967439526099-.403894802284412-.733119716131114-.274918598814111-1.459444669214463-.560029342201233-2.17899557499004-.851914132896127-.359770273952563-.145942395347447-.719540547905126-.295282172219231-1.079310821857689-.448019330615352-4.296890071898815-1.822612324689544-8.413895006820894-3.99482349450227-12.310277300090092-6.475885646887036-.970698191793417-.621120062412956-1.931224954755635-1.262582982488311-2.878172549491865-1.921032810183533-.631291491243246-.437827186042341-1.255808935180539-.885846516655874-1.873521258198707-1.344057991842419-1.853157684795406-1.371205970423034-3.648622030905244-2.813684447757623-5.379598275280841-4.327435432003767-.576995534082016-.505712669299101-1.147196305115358-1.018220101646875-1.710607492036615-1.537511939173783-.845124548784042-.78063126811503-1.673272547819579-1.578239085978566-2.484459533910012-2.392813095722886-1.897282213126346-1.900679594651592-3.702928345936925-3.889597888091885-5.4033540512728-5.963378214541081-.244373238710068-.295282172219231-.485349095896709-.590564344436643-.722937929429463-.889243898180212h-.003392202588657c-1.893890010536779-2.369062498666608-3.658803817606895-4.843329888004519-5.291349218618961-7.409243715528646-8.247583859135375-12.968727127785314-13.026430824342242-28.35742568774549-13.026430824342242-44.862775192717891s4.598961828230131-31.323847293899235,12.564837504437492-44.13644506070159c9.964980935284984-16.030177016840753,25.190765729084887-28.442282541818713,43.26756991485945-34.826521750521351,8.722756347265204-3.081813462460559,18.110746927403852-4.758483391802656,27.889053141600016-4.758483391802656,14.261865828248119,0,27.688804431219978,3.563770355767701,39.442460128501807,9.852976102631146,1.313502273866106.702571766558322,2.606640974329821,1.439083685278092,3.876018719865897,2.209538345627152,1.781885177883851,1.07931341132462,3.519645827436761,2.2231149243853,5.209884567135305,3.428007157654065,7.436391694109261,5.294746600142389,13.966594013900249,11.777411473274697,19.322420976383,19.166296794333903,9.985339329753515,13.786698519053971,15.874058013728245,30.736669973115568,15.874058013728245,49.064631802779331l-.000020715740902.003387023652976Z" style="fill:#191732"/><circle cx="87.779" cy="91.37" r="59.247" style="fill:url(#radial-gradient);isolation:isolate;mix-blend-mode:overlay"/><path d="M73.156937814265802,19.513736810962655c.532871005751986,0,.532871005751986-.828153177970307,0-.828153177970307-.532871005751076,0-.532871005751076.828153177970307,0,.828153177970307h0Z" style="fill:url(#radial-gradient-2)"/><path d="M61.348975801952292,35.611799311061986c.532871005751076,0,.532871005751076-.828153177970307,0-.828153177970307-.532871005751986,0-.532871005751986.828153177970307,0,.828153177970307h0Z" style="fill:url(#radial-gradient-3)"/><path d="M59.024048189485256,48.492282561121101c.532871005751986,0,.532871005751986-.828153177970307,0-.828153177970307-.532871005751076,0-.532871005751076.828153177970307,0,.828153177970307h0Z" style="fill:url(#radial-gradient-4)"/><path d="M34.695368022129514,59.404205912207544c.532871005751076,0,.532871005751076-.828153177970307,0-.828153177970307s-.532871005751076.828153177970307,0,.828153177970307h0Z" style="fill:url(#radial-gradient-5)"/><path d="M38.096229790670805,64.410454745309835c.532871005751076,0,.532871005751076-.828153177970307,0-.828153177970307-.532871005751986,0-.532871005751986.828153177970307,0,.828153177970307h0Z" style="fill:url(#radial-gradient-6)"/><path d="M79.775368474977768,66.134641405573348c.532871005751076,0,.532871005751076-.828153177970307,0-.828153177970307s-.532871005751076.828153177970307,0,.828153177970307h0Z" style="fill:url(#radial-gradient-7)"/><path d="M79.062612332249955,76.591766199802805c.532871005751076,0,.532871005751076-.828153177970307,0-.828153177970307s-.532871005751076.828153177970307,0,.828153177970307h0Z" style="fill:url(#radial-gradient-8)"/><path d="M95.696938040689929,70.411167904068861c.532871005751986,0,.532871005751986-.828153177970307,0-.828153177970307-.532871005751076,0-.532871005751076.828153177970307,0,.828153177970307h0Z" style="fill:url(#radial-gradient-9)"/><path d="M96.413081207071627,75.879010057074993c.532871005751076,0,.532871005751076-.828153177970307,0-.828153177970307-.532871005751986,0-.532871005751986.828153177970307,0,.828153177970307h0Z" style="fill:url(#radial-gradient-10)"/><path d="M116.852153128465034,84.435450077718997c.532871005751986,0,.532871005751986-.828153177970307,0-.828153177970307-.532871005751076,0-.532871005751076.828153177970307,0,.828153177970307h0Z" style="fill:url(#radial-gradient-11)"/><path d="M122.791770388078476,17.650394749996849c.532871005751076,0,.532871005751076-.828153177970307,0-.828153177970307s-.532871005751076.828153177970307,0,.828153177970307h0Z" style="fill:url(#radial-gradient-12)"/><path d="M130.397886148203725,65.897057750975364c.532871005751076,0,.532871005751076-.828153177970307,0-.828153177970307-.532871005751986,0-.532871005751986.828153177970307,0,.828153177970307h0Z" style="fill:url(#radial-gradient-13)"/><g style="opacity:.5"><path d="M100.933980944277209,69.542282400356271c1.065742011503062,0,1.065742011503062-1.656306355940615,0-1.656306355940615s-1.065742011503062,1.656306355940615,0,1.656306355940615h0Z" style="fill:url(#radial-gradient-14)"/><path d="M92.469177003948062,75.315593691218965c1.065742011502152,0,1.065742011502152-1.656306355940615,0-1.656306355940615-1.065742011503062,0-1.065742011503062,1.656306355940615,0,1.656306355940615h0Z" style="fill:url(#radial-gradient-15)"/><path d="M128.636364543723175,47.226291839238911c1.065742011502152,0,1.065742011502152-1.656306355940615,0-1.656306355940615-1.065742011503062,0-1.065742011503062,1.656306355940615,0,1.656306355940615h0Z" style="fill:url(#radial-gradient-16)"/><path d="M127.288909170356419,65.503344735392602c1.065742011503062,0,1.065742011503062-1.656306355938796,0-1.656306355938796-1.065742011502152,0-1.065742011502152,1.656306355938796,0,1.656306355938796h0Z" style="fill:url(#radial-gradient-17)"/><path d="M119.017569535229086,82.239488310849993c1.065742011503062,0,1.065742011503062-1.656306355938796,0-1.656306355938796-1.065742011502152,0-1.065742011502152,1.656306355938796,0,1.656306355938796h0Z" style="fill:url(#radial-gradient-18)"/><path d="M123.633513092144312,88.20626390691541c1.065742011503062,0,1.065742011503062-1.656306355940615,0-1.656306355940615-1.065742011502152,0-1.065742011502152,1.656306355940615,0,1.656306355940615h0Z" style="fill:url(#radial-gradient-19)"/><path d="M57.25912920348128,45.878852002679196c1.065742011502152,0,1.065742011502152-1.656306355940615,0-1.656306355940615-1.065742011503062,0-1.065742011503062,1.656306355940615,0,1.656306355940615h0Z" style="fill:url(#radial-gradient-20)"/><path d="M75.346115175957493,61.077483638962804c1.065742011502152,0,1.065742011502152-1.656306355940615,0-1.656306355940615-1.065742011503062,0-1.065742011503062,1.656306355940615,0,1.656306355940615h0Z" style="fill:url(#radial-gradient-21)"/><path d="M74.38220138934139,67.811311334915445c1.065742011503062,0,1.065742011503062-1.656306355938796,0-1.656306355938796-1.065742011502152,0-1.065742011502152,1.656306355938796,0,1.656306355938796h0Z" style="fill:url(#radial-gradient-22)"/><path d="M59.183569753058691,33.375105218450699c1.065742011502152,0,1.065742011502152-1.656306355938796,0-1.656306355938796-1.065742011503062,0-1.065742011503062,1.656306355938796,0,1.656306355938796h0Z" style="fill:url(#radial-gradient-23)"/></g><path d="M161.881234289934582,56.39367013559422c.532871005751986,0,.532871005751986-.828153177970307,0-.828153177970307-.532871005751076,0-.532871005751076.828153177970307,0,.828153177970307h0Z" style="fill:url(#radial-gradient-24)"/><path d="M159.556306677468456,69.274153385653335c.532871005751076,0,.532871005751076-.828153177970307,0-.828153177970307s-.532871005751076.828153177970307,0,.828153177970307h0Z" style="fill:url(#radial-gradient-25)"/><path d="M135.231034249506592,80.186081915675459c.532871005751986,0,.532871005751986-.828153177970307,0-.828153177970307-.532871005751076,0-.532871005751076.828153177970307,0,.828153177970307h0Z" style="fill:url(#radial-gradient-26)"/><path d="M138.628498636524455,85.192330748777749c.532871005751076,0,.532871005751076-.828153177970307,0-.828153177970307-.532871005751986,0-.532871005751986.828153177970307,0,.828153177970307h0Z" style="fill:url(#radial-gradient-27)"/><path d="M89.041167256825247,17.277047897287048c.532871005751986,0,.532871005751986-.828153177970307,0-.828153177970307-.532871005751076,0-.532871005751076.828153177970307,0,.828153177970307h0Z" style="fill:url(#radial-gradient-28)"/><path d="M87.378076495708228,24.170397156813124c.532871005751076,0,.532871005751076-.828153177970307,0-.828153177970307s-.532871005751076.828153177970307,0,.828153177970307h0Z" style="fill:url(#radial-gradient-29)"/><path d="M94.509014588767968,20.606626801045422c.532871005751076,0,.532871005751076-.828153177970307,0-.828153177970307-.532871005751986,0-.532871005751986.828153177970307,0,.828153177970307h0Z" style="fill:url(#radial-gradient-30)"/><path d="M91.654602994203742,41.758454865166641c.532871005751076,0,.532871005751076-.828153177968488,0-.828153177968488-.532871005751986,0-.532871005751986.828153177968488,0,.828153177968488h0Z" style="fill:url(#radial-gradient-31)"/><path d="M109.480239178219563,64.810957345003771c.532871005751986,0,.532871005751986-.828153177968488,0-.828153177968488-.532871005751076,0-.532871005751076.828153177968488,0,.828153177968488h0Z" style="fill:url(#radial-gradient-32)"/><path d="M116.848766104812057,63.860617547679794c.532871005751076,0,.532871005751076-.828153177970307,0-.828153177970307s-.532871005751076.828153177970307,0,.828153177970307h0Z" style="fill:url(#radial-gradient-33)"/><path d="M115.185675343695038,69.566043355283909c.532871005751076,0,.532871005751076-.828153177970307,0-.828153177970307-.532871005751986,0-.532871005751986.828153177970307,0,.828153177970307h0Z" style="fill:url(#radial-gradient-34)"/><g style="opacity:.5"><path d="M157.794785072987906,66.66072282721143c1.065742011503062,0,1.065742011503062-1.656306355940615,0-1.656306355940615s-1.065742011503062,1.656306355940615,0,1.656306355940615h0Z" style="fill:url(#radial-gradient-35)"/><path d="M95.652813512359899,46.075703331534896c1.065742011502152,0,1.065742011502152-1.656306355940615,0-1.656306355940615-1.065742011503062,0-1.065742011503062,1.656306355940615,0,1.656306355940615h0Z" style="fill:url(#radial-gradient-36)"/><path d="M93.921837267984301,16.832423358728192c1.065742011502152,0,1.065742011502152-1.656303766470955,0-1.656303766470955-1.065742011503062,0-1.065742011503062,1.656303766470955,0,1.656303766470955h0Z" style="fill:url(#radial-gradient-37)"/><path d="M119.316249088971745,66.854181953478474c1.065742011503062,0,1.065742011503062-1.656306355940615,0-1.656306355940615-1.065742011502152,0-1.065742011502152,1.656306355940615,0,1.656306355940615h0Z" style="fill:url(#radial-gradient-38)"/><path d="M159.715838598912342,54.156981221918613c1.065742011502152,0,1.065742011502152-1.656306355938796,0-1.656306355938796-1.065742011503062,0-1.065742011503062,1.656306355938796,0,1.656306355938796h0Z" style="fill:url(#radial-gradient-39)"/></g><path d="M162.549876262201906,78.546741751613808c-.040727146806603.529473624228558.784028649639367.597359107485318.82475579644597.064488101734241.040727146806603-.529473624226739-.784028649639367-.597359107485318-.82475579644597-.064488101734241h0Z" style="fill:url(#radial-gradient-40)"/><path d="M149.893407856385238,75.220560229379771c-.040727146806603.529473624226739.784028649639367.597359107485318.82475579644597.064488101734241.040727146806603-.529473624228558-.784028649639367-.597359107485318-.82475579644597-.064488101734241h0Z" style="fill:url(#radial-gradient-41)"/><path d="M140.922870531015178,50.111248793908089c-.040727146806603.529473624226739.784028649639367.597353928549637.82475579644597.064488101734241.040727146806603-.529473624226739-.784028649639367-.597353928549637-.82475579644597-.064488101734241h0Z" style="fill:url(#radial-gradient-42)"/><path d="M135.662066672500259,53.108210581231106c-.040727146806603.529473624226739.784028649639367.597353928549637.82475579644597.064488101734241.040727146806603-.529473624228558-.784028649639367-.597353928551456-.82475579644597-.064488101734241h0Z" style="fill:url(#radial-gradient-43)"/><path d="M130.679578794325607,94.52261763235947c-.040727146806603.529473624226739.784028649639367.597359107485318.82475579644597.064488101734241.040727146806603-.529473624226739-.784028649639367-.597359107485318-.82475579644597-.064488101734241h0Z" style="fill:url(#radial-gradient-44)"/><path d="M120.307321212038914,92.991890098363001c-.040727146806603.529473624228558.784028649639367.597359107485318.82475579644597.064488101734241.040737504677054-.529473624226739-.784028649639367-.597359107485318-.82475579644597-.064488101734241h0Z" style="fill:url(#radial-gradient-45)"/><path d="M125.16421991039897,110.064053350715767c-.040727146806603.529473624226739.784028649639367.597359107485318.82475579644597.064488101734241.040727146806603-.529473624226739-.784028649638458-.597359107485318-.82475579644597-.064488101734241h0Z" style="fill:url(#radial-gradient-46)"/><path d="M119.659053171045343,110.34575635470901c-.040727146806603.529473624226739.784028649639367.597359107485318.82475579644597.064488101734241.040727146806603-.529473624226739-.784028649639367-.597359107485318-.82475579644597-.064488101734241h0Z" style="fill:url(#radial-gradient-47)"/><path d="M109.52776108807484,130.051708559973122c-.040727146806603.529473624226739.784028649639367.597359107485318.82475579644597.064488101732422.040727146806603-.529473624226739-.784028649639367-.597359107485318-.82475579644597-.064488101732422h0Z" style="fill:url(#radial-gradient-48)"/><path d="M126.949502469807157,145.009364339070089c-.040727146806603.529473624226739.784028649639367.597359107485318.82475579644597.064488101732422.040727146806603-.529473624226739-.784028649639367-.597359107485318-.82475579644597-.064488101732422h0Z" style="fill:url(#radial-gradient-49)"/><g style="opacity:.5"><path d="M125.622431385585514,115.348618164158324c-.084851675137543,1.062344629977815,1.568057299278735,1.194707857099274,1.64951159289194.128976203466664.084851675137543-1.062344629977815-1.568057299278735-1.194707857099274-1.64951159289194-.128976203466664h0Z" style="fill:url(#radial-gradient-50)"/><path d="M120.531330877345681,106.456158466617126c-.084851675136633,1.062344629979634,1.568057299278735,1.194707857101093,1.64951159289194.128976203468483.084851675137543-1.062344629977815-1.568057299278735-1.194707857099274-1.64951159289194-.128976203468483h0Z" style="fill:url(#radial-gradient-51)"/><path d="M111.547235099491445,132.383430935486103c-.084851675137543,1.062344629979634,1.568057299278735,1.194707857101093,1.64951159289194.128976203468483.084851675136633-1.062344629977815-1.568057299278735-1.194707857099274-1.64951159289194-.128976203468483h0Z" style="fill:url(#radial-gradient-52)"/><path d="M105.237655421353338,136.517412420158507c-.084851675137543,1.062344629979634,1.568057299278735,1.194707857101093,1.64951159289194.128976203468483.084851675137543-1.062344629977815-1.568057299278735-1.194707857101093-1.64951159289194-.128976203468483h0Z" style="fill:url(#radial-gradient-53)"/><path d="M152.635799081490404,73.666071740455664c-.084851675137543,1.062344629979634,1.568057299278735,1.194707857101093,1.64951159289194.128976203468483.084851675136633-1.062344629977815-1.568057299278735-1.194707857099274-1.64951159289194-.128976203468483h0Z" style="fill:url(#radial-gradient-54)"/><path d="M136.065961474783762,90.504043540800922c-.084851675137543,1.062344629977815,1.568057299278735,1.194707857099274,1.64951159289194.128976203466664.084851675137543-1.062344629977815-1.568057299278735-1.194707857099274-1.64951159289194-.128976203466664h0Z" style="fill:url(#radial-gradient-55)"/><path d="M129.427167240669405,89.017440535135393c-.084851675137543,1.062344629977815,1.568057299277825,1.194707857099274,1.64951159289194.128976203466664.084851675136633-1.062344629977815-1.568057299278735-1.194707857099274-1.64951159289194-.128976203466664h0Z" style="fill:url(#radial-gradient-56)"/><path d="M164.952881502498713,76.56460786335083c-.084851675137543,1.062344629979634,1.568057299278735,1.194707857101093,1.64951159289194.128976203468483.084851675137543-1.062344629979634-1.568057299278735-1.194707857101093-1.64951159289194-.128976203468483h0Z" style="fill:url(#radial-gradient-57)"/></g><path d="M29.743425504059815,86.108722625538576c-.532871005751986-.023760954927639-.570200771034251.804392223042669-.037334944217946.828153177970307.532871005751076.023760954927639.570200771033342-.804392223042669.037334944217946-.828153177970307h0Z" style="fill:url(#radial-gradient-58)"/><path d="M61.871665021001718,121.003124680382825c-.532871005751076-.023760954927639-.570200771034251.804392223042669-.037329765283175.828153177970307.532871005751986.023760954927639.570200771034251-.804392223042669.037329765283175-.828153177970307h0Z" style="fill:url(#radial-gradient-59)"/><path d="M50.416688877462548,120.857182285035378c-.532871005751986-.023760954927639-.570200771034251.804392223042669-.037329765283175.828153177970307.532871005751986.023760954927639.570200771034251-.804392223042669.037329765283175-.828153177970307h0Z" style="fill:url(#radial-gradient-60)"/><path d="M42.247167109351722,70.543536310124182c-.532871005751076-.023760954927639-.570200771034251.804392223042669-.037329765283175.828153177970307.532871005751986.023760954927639.570200771034251-.804392223042669.037329765283175-.828153177970307h0Z" style="fill:url(#radial-gradient-61)"/><path d="M45.135521445544327,57.778450095307562c-.532871005751076-.023760954927639-.570200771033342.804392223042669-.037329765282266.828153177970307s.570200771034251-.804392223042669.037329765282266-.828153177970307h0Z" style="fill:url(#radial-gradient-62)"/><path d="M69.918994990822284,47.945837566079717c-.532871005751986-.023760954927639-.570200771034251.804392223042669-.037329765283175.828153177970307.532871005751986.023760954927639.570200771034251-.804392223042669.037329765283175-.828153177970307h0Z" style="fill:url(#radial-gradient-63)"/><path d="M66.742153245458212,42.7936411586943c-.532871005751076-.023760954927639-.570200771034251.804392223042669-.037329765282266.828153177970307.532871005751076.023760954927639.570200771033342-.804392223042669.037329765282266-.828153177970307h0Z" style="fill:url(#radial-gradient-64)"/><path d="M25.181803798982401,39.240052589628249c-.532871005751076-.023760954927639-.570200771034251.804392223042669-.037334944217946.828153177970307.532871005751076.023760954927639.570200771034251-.804392223042669.037334944217946-.828153177970307h0Z" style="fill:url(#radial-gradient-65)"/><path d="M38.49672721142997,142.124407384400911c-.532871005751076-.023760954927639-.570200771034251.804392223042669-.037329765282266.828153177968488.532871005751076.023760954927639.570200771033342-.804392223042669.037329765282266-.828153177968488h0Z" style="fill:url(#radial-gradient-66)"/><path d="M39.511549931553418,135.268387890155282c-.532871005751076-.023760954927639-.570200771033342.804392223042669-.037329765282266.828153177970307s.570200771034251-.804392223042669.037329765282266-.828153177970307h0Z" style="fill:url(#radial-gradient-67)"/><path d="M113.298564559399892,112.8234314834408c-.532871005751986-.023760954927639-.570200771034251.804392223042669-.037329765283175.828153177970307.532871005751986.023760954927639.570200771034251-.804392223042669.037329765283175-.828153177970307h0Z" style="fill:url(#radial-gradient-68)"/><path d="M115.263732255783907,106.008139136003592c-.532871005751076-.023760954927639-.570200771034251.804392223042669-.037329765282266.828153177970307.532871005751076.023760954927639.570200771033342-.804392223042669.037329765282266-.828153177970307h0Z" style="fill:url(#radial-gradient-69)"/><path d="M107.983464743723744,109.256263746148761c-.532871005751986-.02376095492582-.570200771034251.804392223042669-.037329765283175.828153177970307.532871005751986.023760954927639.570200771034251-.804392223042669.037329765283175-.828153177970307h0Z" style="fill:url(#radial-gradient-70)"/><path d="M111.76105262022611,88.25037807737499c-.532871005751076-.023760954927639-.570200771034251.804392223042669-.037329765282266.828153177970307.532871005751076.023760954927639.570200771033342-.804392223042669.037329765282266-.828153177970307h0Z" style="fill:url(#radial-gradient-71)"/><path d="M94.967215706083152,64.434215700237473c-.532871005751076-.023760954927639-.570200771033342.804392223042669-.037329765282266.828153177970307s.570200771033342-.804392223042669.037329765282266-.828153177970307h0Z" style="fill:url(#radial-gradient-72)"/><path d="M87.564756395732729,65.062114988892063c-.532871005751986-.023760954927639-.570200771034251.804392223042669-.037329765283175.828153177970307.532871005751986.023760954927639.570200771034251-.804392223042669.037329765283175-.828153177970307h0Z" style="fill:url(#radial-gradient-73)"/><path d="M89.479004800738039,59.434751272312496c-.532871005751076-.023760954927639-.570200771034251.804392223042669-.037329765282266.828153177970307.532871005751076.023760954927639.570200771033342-.804392223042669.037329765282266-.828153177970307h0Z" style="fill:url(#radial-gradient-74)"/><path d="M65.306459173300937,127.601191767691489c-.532871005751076-.023760954927639-.570200771033342.804392223042669-.037329765282266.828153177970307s.570200771034251-.804392223042669.037329765282266-.828153177970307h0Z" style="fill:url(#radial-gradient-75)"/><g style="opacity:.5"><path d="M15.858301320577993,103.937756191078734c-1.062344629978725-.047521909855277-1.137014518414617,1.605397422432361-.071277685847235,1.652908974416277,1.062344629978725.047521909853458,1.137014518414617-1.605397422432361.071277685847235-1.652908974416277h0Z" style="fill:url(#radial-gradient-76)"/><path d="M46.781646014783291,60.46655054218536c-1.062344629978725-.047516730919597-1.137014518414617,1.605392243496681-.071272506911555,1.652908974416277,1.062344629977815.047516730919597,1.137014518413707-1.605392243496681.071272506911555-1.652908974416277h0Z" style="fill:url(#radial-gradient-77)"/><path d="M29.383655230107252,44.48728245885286c-1.062344629978725-.047516730919597-1.137014518414617,1.605392243496681-.071277685847235,1.652908974416277,1.062344629978725.047516730917778,1.137014518414617-1.605392243496681.071277685847235-1.652908974416277h0Z" style="fill:url(#radial-gradient-78)"/><path d="M30.639458986352111,37.800971493817997c-1.062344629978725-.047516730919597-1.137014518414617,1.605392243496681-.071277685847235,1.652908974416277,1.062344629978725.047516730919597,1.137014518414617-1.605392243496681.071277685847235-1.652908974416277h0Z" style="fill:url(#radial-gradient-79)"/><path d="M107.959703788796105,83.763421081797787c-1.062344629978725-.047521909855277-1.137014518414617,1.605397422432361-.071272506911555,1.652908974416277,1.062344629978725.047521909855277,1.137014518414617-1.605397422432361.071272506911555-1.652908974416277h0Z" style="fill:url(#radial-gradient-80)"/><path d="M108.404325737886211,113.054225553925789c-1.062344629978725-.047521909855277-1.137014518414617,1.605397422432361-.071272506911555,1.652908974416277,1.062344629978725.047521909855277,1.137014518413707-1.605397422432361.071272506911555-1.652908974416277h0Z" style="fill:url(#radial-gradient-81)"/><path d="M65.353981083156214,124.254646672052331c-1.062344629978725-.047521909853458-1.137014518414617,1.605397422432361-.071272506911555,1.652908974416277,1.062344629978725.047521909855277,1.137014518413707-1.605397422430542.071272506911555-1.652908974416277h0Z" style="fill:url(#radial-gradient-82)"/><path d="M43.577645932968153,137.739268255840216c-1.062344629978725-.047521909855277-1.137014518414617,1.605397422430542-.071272506911555,1.652908974416277,1.062344629977815.047521909853458,1.137014518413707-1.605397422432361.071272506911555-1.652908974416277h0Z" style="fill:url(#radial-gradient-83)"/><path d="M85.233034020217929,61.963335334552539c-1.062344629978725-.047516730919597-1.137014518414617,1.605392243496681-.071272506911555,1.652908974416277,1.062344629978725.047516730919597,1.137014518414617-1.605392243496681.071272506911555-1.652908974416277h0Z" style="fill:url(#radial-gradient-84)"/><path d="M24.000664752237753,127.441670204118054c-1.062344629978725-.047521909853458-1.137014518414617,1.605397422432361-.071277685847235,1.652908974416277,1.065736832567381.047521909855277,1.137014518414617-1.605397422432361.071277685847235-1.652908974416277h0Z" style="fill:url(#radial-gradient-85)"/><path d="M27.998875270393,102.196608517871937c-1.062344629977815-.047521909855277-1.137014518413707,1.605397422432361-.071277685846326,1.652908974416277,1.062344629978725.047521909853458,1.137014518413707-1.605397422432361.071277685846326-1.652908974416277h0Z" style="fill:url(#radial-gradient-86)"/><path d="M44.310765649099267,72.875258685638983c-1.062344629978725-.047521909855277-1.137014518414617,1.605397422432361-.071272506912464,1.652908974416277,1.062344629978725.047521909855277,1.137014518414617-1.605397422432361.071272506912464-1.652908974416277h0Z" style="fill:url(#radial-gradient-87)"/></g><path d="M114.147081310772592,9.898344362927674c-8.447827390579732,7.314215432625133-18.915139150446521,12.62253602205783-30.07483312176646,15.09680859033142-.902823066406199.200248710380038-1.81582791951314.383528639413271-2.732219796273966.563416365856028-7.192028813269644,1.388172162301998-14.713282540386899,2.304569217998505-20.418708347991014,6.560732143090718-10.813502865593364,8.064301340635211-12.232220388001224,25.984976165425905-25.564115171262529,29.219521607345087-7.979449665497668,1.938014538869538-15.629679596083406-2.851014213039889-23.256143392805825-5.488205726409433-.420866173098148-.145942395347447-.845124548784042-.281708182928924-1.272775127059504-.410684386395587,7.310823230035567-17.112885220225508,20.286339941933875-31.490153262649983,36.944421426365807-40.419942725473447,8.037148183118916-4.310464061189123,16.936392285836519-7.351550376843079,26.4635408561453-8.81439242758097,13.89870853064167-2.13486845719126,27.515703699421465-.675419903775037,39.910832674648191,3.692746559236184Z" style="fill:#fff;isolation:isolate;mix-blend-mode:overlay"/><path d="M118.25390445899302,11.469799043730745c-7.589128852504473,7.426217675809312-12.887272834171199,18.073406804251135-23.585368306652526,18.545181910856627-4.877272629633808.213827878606025-9.17756008305696-1.876918639722135-13.335292164785642-4.459803838060907-2.834048021160925-1.76152160447964-5.596813177539843-3.757232071502585-8.427463817176431-5.399961848683233-7.402459310351333-4.303677066543969-16.474804144867448-5.976952203831388-25.139856795576634-5.135222447102933,8.037148183118916-4.310464061189123,16.936392285836519-7.351547787375239,26.463540856144391-8.81439242758097,13.89870853064258-2.13486845719126,27.515703699421465-.675419903775037,39.9108326746491,3.692743969768344,1.384774780778571.488746477420136,2.755980751200696,1.01143310700354,4.106823148220428,1.571452091335232l.006784405177314.00000258946784Z" style="fill:#fff;isolation:isolate;mix-blend-mode:overlay"/><path d="M138.764248887298891,81.587833246203445l-.095043819708735.061090720209904c.084851675136633-.122181440419808.169703350274176-.244373238710978.251157643887382-.366554679130786.016966191878964.057703696556928.030555717975403.115397035242495.047521909855277.173100731799423l-.203635734033924.132373584991001h0v-.000010357869542Z" style="fill:#bda3ce"/><line x1="134.841" x2="134.515" y1="84.147" y2="84.361" style="fill:none"/><path d="M84.557607642773291,122.70355556465438l-.037329765283175-.050908933508254s.016966191879874-.010181786701651.023760954927639-.016966191880783c.006784405177314.02036357340512.010181786701651.04412452833094.013579168225988.067885483258578l-.000010357870451-.000010357869542Z" style="fill:#d91118"/><polygon points="84.497 122.673 84.52 122.656 84.683 122.724 84.571 122.836 84.497 122.673" style="fill:#fff"/><rect width="2.233" height="12.049" x="128.417" y="98.701" transform="translate(-33.34070719637171 139.628274940033748) rotate(-51.049998959976016)" style="fill:#282484"/><path d="M89.526526710592407,64.719316085755054c.437837543912792-.543052792454546,1.235445361777238-.627904467592089,1.778487796360423-.190066923678387h-.003397381524337c-.543052792452727-.441229746502358-1.340660610318082-.356378071364816-1.778487796359514.186674721087911l-3.139511980081807,3.886205685503228h.003397381524337l3.139511980080897-3.882813482912752Z" style="fill:#4b2880"/><path d="M125.547751139279171,100.06852187639015l3.645224649380907-4.510717950503022c.475177667065509-.587177320783667.383531228880202-1.445875858858926-.203635734033014-1.921043168054894l-1.588420872682036-1.282956913761154-11.818143799015161,14.621636102201592,1.656306355939705,1.340660610318082c.546439816106613.441224567566678,1.350842397019733.356372892429135,1.795464346109839-.190066923678387l3.702928345936925-4.581990457414577,1.405148712052323-1.73776064955382,1.405148712051414-1.73776064955382h-.000020715740902Z" style="fill:#282484"/><path d="M145.083999994268197,95.065670424812197l-10.165234824599793,12.575014112204371-1.405148712052323,1.737760649552001-9.371014030388324-7.572162660624599-1.405148712052323,1.73776064955382,9.371014030388324,7.572162660624599-10.165234824599793,12.575014112204371,28.625549523513655,23.137348976038993,23.137348976038993-28.625559881384106-28.625570239254557-23.137359333910354.003438813006142.000020715740902ZM156.484680180645228,134.470790430161287l-6.384239208702638,7.897990192948782-7.898000550819233-6.384239208702638-7.898000550820143-6.384239208702638-7.898000550819233-6.384239208702638,6.384239208702638-7.897990192948782,6.384239208702638-7.897990192948782,6.384239208703548-7.897990192950601,7.898000550819233,6.384239208702638,7.898000550819233,6.384239208704457,7.898000550820143,6.384239208702638-6.384239208703548,7.897990192948782-6.384239208702638,7.897990192948782Z" style="fill:#7455e7"/><polygon points="142.202 135.988 156.481 134.474 148.583 128.09 142.202 135.988" style="fill:#edf1ca"/><polygon points="150.1 142.372 156.481 134.474 142.202 135.988 150.1 142.372" style="fill:#eaea92"/><polygon points="140.685 121.706 134.304 129.604 148.583 128.09 140.685 121.706" style="fill:#edf1ca"/><polygon points="134.304 129.604 142.202 135.988 148.583 128.09 134.304 129.604" style="fill:#eaea92"/><polygon points="132.787 115.321 126.406 123.219 140.685 121.706 132.787 115.321" style="fill:#edf1ca"/><polygon points="126.406 123.219 134.304 129.604 140.685 121.706 126.406 123.219" style="fill:#eaea92"/><polygon points="148.583 128.09 162.866 126.576 154.968 120.192 148.583 128.09" style="fill:#edf1ca"/><polygon points="156.481 134.474 162.866 126.576 148.583 128.09 156.481 134.474" style="fill:#eaea92"/><polygon points="140.685 121.706 154.968 120.192 147.07 113.808 140.685 121.706" style="fill:#edf1ca"/><polygon points="148.583 128.09 154.968 120.192 140.685 121.706 148.583 128.09" style="fill:#eaea92"/><polygon points="147.07 113.808 139.172 107.423 132.787 115.321 147.07 113.808" style="fill:#edf1ca"/><polygon points="147.07 113.808 132.787 115.321 140.685 121.706 147.07 113.808" style="fill:#eaea92"/><polygon points="169.25 118.678 161.352 112.294 154.968 120.192 169.25 118.678" style="fill:#edf1ca"/><polygon points="154.968 120.192 162.866 126.576 169.25 118.678 154.968 120.192" style="fill:#eaea92"/><polygon points="161.352 112.294 153.454 105.91 147.07 113.808 161.352 112.294" style="fill:#edf1ca"/><polygon points="154.968 120.192 161.352 112.294 147.07 113.808 154.968 120.192" style="fill:#eaea92"/><polygon points="145.556 99.525 139.172 107.423 153.454 105.91 145.556 99.525" style="fill:#edf1ca"/><polygon points="153.454 105.91 139.172 107.423 147.07 113.808 153.454 105.91" style="fill:#eaea92"/><path d="M74.921856800270689,62.608205994021773l1.405148712052323-1.737760649552001,10.165234824599793-12.575019291140052-28.625559881384106-23.137354154972854-23.137359333909444,28.625559881384106,28.625559881384106,23.137348976038993,10.165234824599793-12.575019291140052,9.371024388258775,7.572167839562098,1.405148712052323-1.73776064955382-9.371014030388324-7.572162660626418h-.003418097265239ZM69.26394254465049,64.563186724770276l-6.384239208702638,7.897995371884463-7.897990192948782-6.384239208702638-7.897990192949692-6.384239208704457-7.897990192948782-6.384239208702638,6.384239208702638-7.897995371884463,6.384239208703548-7.897995371882644,6.384239208702638-7.897995371884463,7.897990192948782,6.384239208702638,7.897990192948782,6.384239208702638,7.897990192949692,6.384239208702638-6.384239208703548,7.897995371884463-6.384239208702638,7.897995371884463Z" style="fill:#7455e7"/><path d="M92.849310851303926,65.011206055383809h0l-1.588420872682036-1.282956913761154c-.587177320783667-.475167309195967-1.445875858858926-.383531228881111-1.921043168053984.203646091902556l-3.645224649380907,4.51071277156916-9.371014030388324-7.572162660624599-1.405148712052323,1.737760649552001,9.371014030389233,7.572162660626418-1.405148712052323,1.73776064955382-3.702928345937835,4.581990457414577c-.441224567565769.546439816107522-.356372892428226,1.350842397019733.190066923678387,1.795464346110748l1.656306355939705,1.340660610318082h0l11.81814379901607-14.618249078548615.003397381524337-.006789584112994Z" style="fill:#282484"/><polygon points="45.57 45.41 47.084 59.693 53.468 51.795 45.57 45.41" style="fill:#eaea92"/><polygon points="39.186 53.308 47.084 59.693 45.57 45.41 39.186 53.308" style="fill:#edf1ca"/><polygon points="53.468 51.795 54.982 66.077 61.366 58.179 53.468 51.795" style="fill:#eaea92"/><polygon points="47.084 59.693 54.982 66.077 53.468 51.795 47.084 59.693" style="fill:#edf1ca"/><polygon points="62.88 72.461 69.264 64.563 61.366 58.179 62.88 72.461" style="fill:#eaea92"/><polygon points="54.982 66.077 62.88 72.461 61.366 58.179 54.982 66.077" style="fill:#edf1ca"/><polygon points="59.852 43.897 51.954 37.512 53.468 51.795 59.852 43.897" style="fill:#eaea92"/><polygon points="51.954 37.512 45.57 45.41 53.468 51.795 51.954 37.512" style="fill:#edf1ca"/><polygon points="61.366 58.179 67.75 50.281 59.852 43.897 61.366 58.179" style="fill:#eaea92"/><polygon points="53.468 51.795 61.366 58.179 59.852 43.897 53.468 51.795" style="fill:#edf1ca"/><polygon points="75.648 56.665 67.75 50.281 69.264 64.563 75.648 56.665" style="fill:#eaea92"/><polygon points="67.75 50.281 61.366 58.179 69.264 64.563 67.75 50.281" style="fill:#edf1ca"/><polygon points="66.236 35.999 58.338 29.614 59.852 43.897 66.236 35.999" style="fill:#eaea92"/><polygon points="58.338 29.614 51.954 37.512 59.852 43.897 58.338 29.614" style="fill:#edf1ca"/><polygon points="74.134 42.383 66.236 35.999 67.75 50.281 74.134 42.383" style="fill:#eaea92"/><polygon points="67.75 50.281 66.236 35.999 59.852 43.897 67.75 50.281" style="fill:#edf1ca"/><polygon points="82.032 48.767 74.134 42.383 75.648 56.665 82.032 48.767" style="fill:#eaea92"/><polygon points="75.648 56.665 74.134 42.383 67.75 50.281 75.648 56.665" style="fill:#edf1ca"/><path d="M148.237101500445533,144.877001111946811l12.575014112203462,10.165234824600702,3.475521299106731,2.810287066233286,12.575014112203462,10.161827085205005,23.137348976038993-28.625559881384106-28.625570239254557-23.137359333908535-23.137348976038993,28.625559881384106.000020715740902.000010357869542ZM187.642211147924172,133.479718307095027l7.898000550819233,6.380841827178301-6.384239208702638,7.897990192948782-6.380841827179211,7.897990192948782-6.384239208702638,7.898000550820143-7.898000550819233-6.380841827178301-7.898000550820143-6.384239208702638-7.898000550819233-6.384239208704457,6.380841827178301-7.897990192948782,6.384239208703548-7.897990192948782,6.384239208702638-7.897990192948782,7.898000550819233,6.384239208702638,7.898000550820143,6.384239208702638v-.000010357869542Z" style="fill:#7455e7"/><polygon points="189.159 147.759 187.642 133.476 181.261 141.374 189.159 147.759" style="fill:#edf1ca"/><polygon points="195.54 139.861 187.642 133.476 189.159 147.759 195.54 139.861" style="fill:#eaea92"/><polygon points="174.877 149.272 182.775 155.657 181.261 141.374 174.877 149.272" style="fill:#edf1ca"/><polygon points="182.775 155.657 189.159 147.759 181.261 141.374 182.775 155.657" style="fill:#eaea92"/><polygon points="168.493 157.17 176.391 163.555 174.877 149.272 168.493 157.17" style="fill:#edf1ca"/><polygon points="176.391 163.555 182.775 155.657 174.877 149.272 176.391 163.555" style="fill:#eaea92"/><polygon points="181.261 141.374 179.744 127.092 173.36 134.99 181.261 141.374" style="fill:#edf1ca"/><polygon points="187.642 133.476 179.744 127.092 181.261 141.374 187.642 133.476" style="fill:#eaea92"/><polygon points="174.877 149.272 173.36 134.99 166.979 142.888 174.877 149.272" style="fill:#edf1ca"/><polygon points="181.261 141.374 173.36 134.99 174.877 149.272 181.261 141.374" style="fill:#eaea92"/><polygon points="166.979 142.888 160.595 150.789 168.493 157.17 166.979 142.888" style="fill:#edf1ca"/><polygon points="166.979 142.888 168.493 157.17 174.877 149.272 166.979 142.888" style="fill:#eaea92"/><polygon points="171.846 120.711 165.462 128.609 173.36 134.99 171.846 120.711" style="fill:#edf1ca"/><polygon points="173.36 134.99 179.744 127.092 171.846 120.711 173.36 134.99" style="fill:#eaea92"/><polygon points="165.462 128.609 159.081 136.507 166.979 142.888 165.462 128.609" style="fill:#edf1ca"/><polygon points="173.36 134.99 165.462 128.609 166.979 142.888 173.36 134.99" style="fill:#eaea92"/><polygon points="152.697 144.405 160.595 150.789 159.081 136.507 152.697 144.405" style="fill:#edf1ca"/><polygon points="159.081 136.507 160.595 150.789 166.979 142.888 159.081 136.507" style="fill:#eaea92"/><path d="M31.623741525306286,3.884058509613169l-10.165229645665022,12.575017996405222-2.810287066233286,3.475523888573662-10.161837443075456,12.575016701672212,28.625554702448426,23.137354154972854,23.137348976038993-28.625559881384106L31.623741525306286,3.884058509613169ZM43.021024330159889,43.28917722022743l-6.380841827179211,7.897995371884463-7.897995371884463-6.384239208702638-7.897995371884463-6.380847006113981-7.897995371883553-6.384239208702638,6.380847006113981-7.897995371884463,6.384239208702638-7.897995371884463,6.384239208702638-7.897995371884463,7.897990192949692,6.380847006113981,7.897990192948782,6.384239208702638,7.897990192948782,6.384239208704457-6.384239208702638,7.897995371882644-6.384239208702638,7.897995371884463h.000010357870451Z" style="fill:#7455e7"/><polygon points="28.742 44.806 43.024 43.289 35.126 36.908 28.742 44.806" style="fill:#edf1ca"/><polygon points="36.64 51.187 43.024 43.289 28.742 44.806 36.64 51.187" style="fill:#eaea92"/><polygon points="27.228 30.524 20.844 38.422 35.126 36.908 27.228 30.524" style="fill:#edf1ca"/><polygon points="20.844 38.422 28.742 44.806 35.126 36.908 20.844 38.422" style="fill:#eaea92"/><polygon points="19.33 24.14 12.946 32.038 27.228 30.524 19.33 24.14" style="fill:#edf1ca"/><polygon points="12.946 32.038 20.844 38.422 27.228 30.524 12.946 32.038" style="fill:#eaea92"/><polygon points="35.126 36.908 49.409 35.391 41.511 29.01 35.126 36.908" style="fill:#edf1ca"/><polygon points="43.024 43.289 49.409 35.391 35.126 36.908 43.024 43.289" style="fill:#eaea92"/><polygon points="27.228 30.524 41.511 29.01 33.613 22.626 27.228 30.524" style="fill:#edf1ca"/><polygon points="35.126 36.908 41.511 29.01 27.228 30.524 35.126 36.908" style="fill:#eaea92"/><polygon points="33.613 22.626 25.715 16.242 19.33 24.14 33.613 22.626" style="fill:#edf1ca"/><polygon points="33.613 22.626 19.33 24.14 27.228 30.524 33.613 22.626" style="fill:#eaea92"/><polygon points="55.793 27.493 47.892 21.112 41.511 29.01 55.793 27.493" style="fill:#edf1ca"/><polygon points="41.511 29.01 49.409 35.391 55.793 27.493 41.511 29.01" style="fill:#eaea92"/><polygon points="47.892 21.112 39.994 14.728 33.613 22.626 47.892 21.112" style="fill:#edf1ca"/><polygon points="41.511 29.01 47.892 21.112 33.613 22.626 41.511 29.01" style="fill:#eaea92"/><polygon points="32.096 8.344 25.715 16.242 39.994 14.728 32.096 8.344" style="fill:#edf1ca"/><polygon points="39.994 14.728 25.715 16.242 33.613 22.626 39.994 14.728" style="fill:#eaea92"/><rect width="9.32" height="29.892" x="81.535" y="93.478" transform="translate(-52.308339754398332 106.982855831860022) rotate(-50.919999764157289)" style="fill:#28246c"/><polygon points="138.428 41.399 141.048 43.527 133.123 53.295 130.5 51.163 138.428 41.399" style="fill:#282484"/><rect width="14.079" height="3.377" x="121.642" y="54.41" transform="translate(4.046033249106799 120.690161709402432) rotate(-50.950000808897656)" style="fill:#282484"/><polygon points="101.341 54.765 77.325 84.337 77.437 95.293 101.582 114.897 111.581 112.148 135.587 82.572 101.341 54.765" style="fill:#8f84ff"/><polygon points="125.103 95.487 135.587 82.572 101.341 54.765 90.85 67.679 125.103 95.487" style="fill:#8f84ff"/><rect width="6.632" height="44.116" x="113.056" y="49.181" transform="translate(-12.289844948095066 116.664813739749491) rotate(-50.919999764143498)" style="fill:#8f84ff"/><rect width="3.859" height="35.444" x="122.307" y="43.831" transform="translate(-1.854261427614063 119.212557408915856) rotate(-50.929999779542065)" style="fill:#28246c"/><path d="M71.439540738116193,94.461526912149566c.166305968750748-.207033115557351.464985522493407-.237588833533664.675416019574186-.071272506911555l30.695942826309874,24.922631535446271c.203646091903465.166305968750748.237588833532755.471780285541172.071272506911555.678813401098523l-1.822612324690454,2.246870700377258c-.169703350275086.207033115557351-.471780285541172.237588833533664-.68221078262286.071272506911555l-30.692545444785537-24.922631535446271c-.207033115557351-.169703350275086-.237588833532755-.471780285541172-.067885483257669-.678813401098523l1.822612324690454-2.246870700377258h.000010357870451Z" style="fill:#282484"/><polygon points="101.582 114.897 136.782 74.223 135.587 82.572 111.581 112.148 101.582 114.897" style="fill:#7455e7"/><polygon points="109.263 51.883 136.782 74.223 135.587 82.572 101.341 54.765 109.263 51.883" style="fill:#8478ff"/><path d="M162.427694821782097,38.727550336216154c.166305968750748.037334944217946.315645745622533.078062091024549.454814093662208.122186619355489-.135770966516247-.04412452833094-.288487409170557-.084851675137543-.454814093662208-.122186619355489Z" style="fill:#5945b8"/><path d="M163.021656547743987,38.900645889079897c.101817867016507.037334944217946.193464305201815.078062091024549.271521217290683.118794416765013-.081454293613206-.040727146806603-.173100731798513-.081459472547067-.271521217290683-.118794416765013Z" style="fill:#5945b8"/><path d="M163.659742802035908,39.287569320547846c.057693338685567.074669888435892.101817867016507.149339776871784.118784058895471.23079407048499-.016966191878964-.081459472548886-.057693338685567-.159521563573435-.118784058895471-.23079407048499Z" style="fill:#5945b8"/><path d="M163.408564442406714,39.083928407579151c.071282864782006.04412452833094.128976203468483.091641259250537.179895494847187.139157990170133-.050919291378705-.047516730919597-.108612630065181-.095033461839193-.179895494847187-.139157990170133Z" style="fill:#5945b8"/><path d="M175.467694456478966,39.718617280346734c.298679553742659.315645745622533.583769581389788.624507086067752.862085561729145.926578842398158-.27491859881593-.302071756330406-.563406007986487-.607535715251288-.862085561729145-.926578842398158Z" style="fill:#5945b8"/><path d="M167.186162676779531,46.700215596536509c.424258375686804.074669888434073.834947941018072.149339776869965,1.23204798025381.224009665305857-.397100039235738-.074669888435892-.807789604567006-.149339776871784-1.23204798025381-.224009665305857Z" style="fill:#5945b8"/><path d="M156.253886110161147,38.456023939988881c.896038661227976-.030545360104952,1.724191839197374-.04412452833094,2.474267389337001-.037334944217946-.750096265880529-.006789584112994-1.578249443849927.006789584112994-2.474267389337001.037334944217946Z" style="fill:#5945b8"/><path d="M172.321387713350305,36.507832793355192c1.150593686639695,1.137014518413707,2.202746172046318,2.209535756159312,3.142909361605234,3.207392284402886-.940163189558916-.997856528243574-1.995713056488967-2.073775147513516-3.142909361605234-3.207392284402886Z" style="fill:#5945b8"/><path d="M158.809607793111354,38.418688995770935c.325837890194634.003392202588657.63808625429283.010181786701651.933368426511151.023760954927639-.298679553742659-.010181786701651-.607530536316517-.016971370814645-.933368426511151-.023760954927639Z" style="fill:#5945b8"/><path d="M159.973770290106586,38.452631737400225c.244362880840526.010181786701651.475177667065509.023760954927639.699176974502734.040727146806603-.22062264165379-.016971370814645-.454814093662208-.030545360104952-.699176974502734-.040727146806603Z" style="fill:#5945b8"/><path d="M160.900364669310875,38.510330255021472c.227396688960653.020363573403301.441224567565769.040727146806603.644881017339685.067880304322898-.203635734033014-.027153157516295-.41746361263813-.047516730919597-.644881017339685-.067880304322898Z" style="fill:#5945b8"/><path d="M161.684393318949333,38.595181930159015c.240986215057092.033942741629289.464985522493407.071277685847235.668621256527331.112004832653838-.203635734033924-.04412452833094-.427655757211141-.081459472548886-.668621256527331-.112004832653838Z" style="fill:#5945b8"/><path d="M157.316230740139872,16.123064597524717l2.284200465659524,1.907466589296746,7.653616954238714-9.174162701534442c-.393702657711401-.329224913846701-.685608164147197-.729724924074617-.885846516655874-1.164165086462162l-13.891913767594815,12.944971351793356h0l4.843340245875879-4.514110153093498h-.003397381523428Z" style="fill:#28246c"/><path d="M159.600431205799396,18.030531186821463l2.284200465659524,1.907466589294927-3.570565118815466,5.576452193603473h0l10.243291736688661-15.996239454147144c-.464985522493407-.118791827298992-.913004853106941-.336011908493674-1.303330845034907-.665236822342195l-7.653616954238714,9.174162701534442.000020715740902.003394792056497Z" style="fill:#282484"/><path d="M157.316230740139872,16.123064597524717l-4.843340245875879,4.514110153093498c.96730081026908.780636447050711,1.94819114663369,1.588423462149876,2.939252911830408,2.416576640120184l4.188287799704995-5.019825411860438-2.284200465659524-1.907466589296746v-.003394792056497Z" style="fill:#28246c"/><path d="M159.600431205799396,18.030531186821463l-4.188287799704995,5.019825411860438c.991061765196719.828153177968488,1.961780672731038,1.652911563882299,2.901923146549052,2.464093371037961l3.570565118815466-5.576452193603473-2.284200465659524-1.907466589294927Z" style="fill:#282484"/><path d="M168.557379005073017,9.518210515572719c1.204889643801835.3088613404434,2.531981443765289-.071275096379395,3.383874860921424-1.092889990084586,1.177731307349859-1.415325319818294.994459146720146-3.512858832791608-.41746361263904-4.690600498011918-1.408546093575751-1.177741665222129-3.506077017081225-.984279949487245-4.68720570595633.427651873009381-.851914132897036,1.021613598970362-.987664383672382,2.396211771982053-.468382904016835,3.526436706282766.200259068249579.437834954444043.492143858944473.838334964671958.885846516655874,1.164165086462162.393702657710492.325830121792023.838324606800597.546444995043203,1.303330845034907.665236822342195Z" style="fill:#f8433d"/><path d="M171.109703306499796,35.326693746610545c-12.782047227760813,11.899598092628366-31.334029080600885,14.838861362330135-46.973874926579811,8.030363777939783-.264747169983821-.424258375685895-.519302195395539-.845124548783133-.760267694711729-1.27616732964816-6.930689382679702-12.289918905622471-5.970162619717485-28.089299262512213,3.604497502574304-39.564638979454685l.010192144572102.006788289379983s.010192144572102-.027153157516295.020363573403301-.037334944217946c.08824905666188-.105216543275674.223999307437225-.162915060895102.40729218380784-.179885136976736,2.375846903844831-.213826583871196,12.666660550388769,6.621824158033633,24.844574623357403,16.468013266021444,1.299933463511479,1.052160253808324,2.616833118901923,2.13486845719126,3.954096347695668,3.248122020677329,1.333865847270317,1.113253563486069,2.633799310781797,2.216325340272306,3.903177056317872,3.309215330355073,4.13736850832538,3.567165147824198,7.877636977415932,6.974806142608941,10.989990621045763,9.995528884857777l-.000041431482714-.000005178933861Z" style="fill:#8f84ff"/><path d="M124.135828379919985,43.357057524550328c.23079407048499.366559858066466.464985522493407.733119716131114.709369119074836,1.092889990084586.027158336451066.040727146806603.05429595716123.081459472548886.081454293613206.122186619355489.69238221145315,1.018220101646875,1.445875858858017,2.00249746166628,2.253665463425023,2.952837258992076.081454293613206.095033461837374.159511205702074.193464305200905.244362880839617.291889969628755.18666954215405.213827878606025.380133847355864.424258375687714.570200771034251.634688872767583.179895494846278.196856507791381.359770273952563.390315634058425.543042434582276.58377993925933.169703350275086.176492934388079.339406700549262.349588487251822.512507432347775.522684040115564.234191452009327.237583654597984.475177667065509.468382904016835.719540547905126.699176974501825.142545013824019.13236840605714.281713361863694.268129014702936.424258375686804.400497420758256.397100039235738.36316765547781.804392223042669.722937929429463,1.221855835681708,1.072526416681285,3.339771048330476,2.789923492829985,7.049483799445625,4.839937685415862,10.932297282359286,6.187382700911257,13.328507759609238,4.622717604222998,28.703627151344335.851908953962266,38.28167429729001-10.620033381455869l-.006794763047765-.006789584112994s.023760954927639-.013573989290308.033932383758838-.027153157516295c.047521909854368-.054306315032591.074659530564531-.125578821944146.08824905666097-.207038294491213.003397381524337-.023760954927639.003397381524337-.054306315032591.006794763047765-.081459472548886.003397381524337-.061090720209904.003397381524337-.125578821944146-.006794763047765-.196856507791381-.003397381524337-.037334944217946-.013568810355537-.074669888435892-.020363573403301-.112004832653838-.016966191878964-.078062091024549-.040727146806603-.159521563573435-.071282864782006-.247765441299634-.013568810355537-.040727146806603-.027158336451976-.07806209102273-.04412452833094-.12218661935367-.04412452833094-.115397035242495-.101817867016507-.237583654597984-.166305968750748-.369952060655123-.010192144572102-.020363573403301-.016966191878964-.037334944217946-.027158336451066-.061090720209904-.081454293613206-.159521563573435-.179895494847187-.329224913846701-.291884790694894-.509110050823438-.020363573403301-.033942741629289-.04412452833003-.067880304322898-.067885483257669-.105215248540844-.095043819709645-.149339776871784-.196861686726152-.305463958920882-.308850982573858-.468382904016835-.037329765282266-.054306315032591-.074659530565441-.108612630065181-.112010011588609-.162913766162092-.112010011588609-.156129360984778-.23079407048499-.31904312714687-.356372892429135-.488746477420136-.040727146806603-.054306315032591-.078056912088869-.105215248540844-.118784058895471-.159521563573435-.156134539919549-.203646091904375-.322440508670297-.41746879157472-.498917906252245-.63808625429192-.013568810354627-.016971370814645-.027158336451066-.037334944217946-.04412452833003-.054306315032591-.40729218380784-.505717848234781-.872277706301247-1.052162843277983-1.384785138649022-1.632545401012976-.027158336451066-.030545360104952-.057693338685567-.064488101734241-.084851675137543-.095033461839193-.23079407048408-.261344609523803-.471780285541172-.529473624226739-.722937929429463-.804392223042669-.033932383757929-.037334944217946-.067885483257669-.071277685847235-.101817867016507-.108612630063362-.27491859881502-.302071756332225-.563406007985577-.607535715253107-.862085561728236-.926578842398158h0c-.940163189558916-.997856528245393-1.995713056488967-2.073775147513516-3.142909361605234-3.207392284404705-.016966191878964-.013573989290308-.030555717975403-.030545360104952-.047521909854368-.04412452833094-.376736465832437-.373349442177641-.767062457760403-.753483289534415-1.164162496995232-1.140406721002364-12.782047227760813,11.899598092628366-31.337426462125222,14.838861362330135-46.973874926579811,8.033755980530259l.003397381523428.003402560458198Z" style="fill:#7455e7"/><polygon points="76.714 149.126 93.627 128.358 65.262 105.265 48.353 126.037 76.714 149.126" style="fill:#8f84ff"/><rect width="13.79" height="36.578" x="68.196" y="103.866" transform="translate(-67.048607325522283 103.265344926272789) rotate(-50.849996665392688)" style="fill:#8f84ff"/><rect width="5.495" height="36.578" x="74.964" y="100.667" transform="translate(-63.59896709547138 104.09340494895801) rotate(-50.840000289914528)" style="fill:#8f84ff"/><polygon points="71.837 102.886 94.624 121.434 93.627 128.358 65.262 105.265 71.837 102.886" style="fill:#8f84ff"/><polygon points="51.116 128.287 73.955 146.876 67.401 151.339 48.078 135.608 51.116 128.287" style="fill:#8478ff"/><polygon points="49.269 136.575 66.213 150.372 63.521 153.678 46.571 139.881 49.269 136.575" style="fill:#28246c"/><polygon points="94.624 121.434 73.955 146.876 76.714 149.126 94.112 128.392 94.624 121.434" style="fill:#7455e7"/><g style="mix-blend-mode:hard-light;opacity:.870000004768372"><path d="M113.831435565150969,86.675536372918941c.091636080314856-.943550213212802-1.544296344351096-1.758124222957122-3.013933158136751-2.290995228708198-.156124182049098-2.379244285368259-1.18792345192287-4.581990457416396-2.922286719952353-6.228115026653541-2.063588181876185-1.954985909682364-4.867090842932157-2.87137778644319-7.690957077391431-2.511607512491537-.278315980339357.033942741629289-.54983719763095.081454293613206-.814574009744319.139157990170133-1.405148712052323.305463958920882-2.708469199216779.919789258285164-3.825109786357643,1.802248751288062-1.965167696384015-1.140401542068503-3.346545095638248-1.456057645560577-3.896392651139649-.885846516655874-.566813747380365.590564344436643-.122181440419808,2.063588181876185,1.252411553657112,4.150947676551368-.135760608645796.274918598814111-.254555025411719.553234579154378-.3631676554769.841732346194476-.101817867016507.268134193638616-.18666954215405.543052792452727-.261339430589942.817971391268657-2.274029036828324.322440508669388-3.570554760945015.933368426511151-3.645224649380907,1.72757886285217-.07806726995932.804392223042669,1.150593686640605,1.669885524164783,3.461952488751194,2.447119410755477.047521909855277.27491859881593.108612630065181.546439816107522.183282518501073.817971391268657.451406354267419,1.663090761117928,1.357626802197046,3.170057340186759,2.613435737377586,4.361378173633057,1.377990375600348,1.306717868688793,3.061444710121577,2.145052833360751,4.911215371263097,2.457301197458946.234191452008417.040727146806603.475167309195058.071272506911555.716143166381698.091636080314856,1.232047980252901.111999653718158,2.460698578982374-.013579168225988,3.641837625727021-.376736465832437.614325299364282-.18666954215405,1.208287025326172-.441224567566678,1.7717033911822-.753483289534415h0c.892641279703639.522689219049425,1.948191146634599,1.045368080229309,2.786526111306557,1.187923451921961.498928264121787.084851675137543.916402234631278.030545360104952,1.17774166522031-.240975857184822.648268040993571-.675416019576005-.101817867016507-2.294392610232535-.913004853106941-3.614679289275955.512507432347775-.688995187800174.923186639808591-1.442478477334589,1.225253217205136-2.236688913675607,1.615579209133102-.234191452009327,3.512861422259448-.719540547905126,3.607894884098641-1.703817907924531l-.003407739394788-.000020715740902ZM110.773377878683277,86.14946013021472c.04412452833094-.363167655475991.064488101734241-.729722334606777.067885483257669-1.096287371607104,1.377990375600348.526076242704221,2.138258070312986,1.082708203382936,2.094143899852497,1.537511939173783-.04412452833094.471780285541172-.950334618390116.879062111478561-2.487846557563898,1.130219755366852.152737158396121-.509110050825257.261339430589942-1.031799269874682.325827532324183-1.568057299278735l-.000010357870451-.003387023654795ZM108.587597898515924,91.128560984736396c.743301502832765,1.252411553656202.987674741542833,2.148439857013727.67202899592121,2.477664770862248-.332622295371948.346191105727485-1.316899655390444.091636080314856-2.711856222870665-.688995187800174.617722680888619-.403894802282593,1.191320833446298-.875664729954224,1.703817907924531-1.415330498753974.115397035241585-.122181440419808.227407046831104-.247770620233496.336009319024924-.373349442177641v.000010357869542ZM93.256592677240405,80.23021680187594c-.94694759473623-1.483205624141192-1.293138700462805-2.538765848941694-.940152831688465-2.90532052807248.346191105727485-.359770273951654,1.337263228794654-.105215248540844,2.739014559322641.688995187800174-.176487755452399.159521563573435-.346191105727485.325827532324183-.509110050824347.498928264123606-.498928264122696.526076242702402-.929971044986814,1.103071776784418-1.289741318939377,1.7173970761487h-.000010357870451ZM93.073310158740242,81.883125776292218c.064488101734241-.169703350275086.135760608645796-.339406700550171.210430497080779-.505712669299101,1.303320487165365,1.870134234544821,3.166659958662422,4.001607899679584,5.308325768369286,6.078775249781756-2.290995228707288-.322440508669388-4.398707938915322-.767062457760403-6.000707979822437-1.269377745535166-.190066923678387-1.445875858858926-.027147978581525-2.939263269701769.481962072242823-4.303674477076129l-.000010357870451-.000010357871361ZM89.546869568254806,84.3234607818722c.047521909855277-.495530882599269.99107212306717-.916402234632187,2.59645918762817-1.160775473343165-.183282518500164.929971044986814-.227407046831104,1.887100426425604-.128976203467573,2.834048021160925-1.618966232786988-.570200771033342-2.515004894014965-1.174344283695973-2.467482984160597-1.67327254781776ZM107.854467824514359,91.121776579559082c-.546439816106613.576995534082016-1.164162496995232,1.072526416681285-1.836191492916441,1.479808242616855-1.588420872681127-.967311168138622-3.512861422259448-2.453914173804151-5.494995310522427-4.245981138390562.142555371693561.013579168225988.288497767041008.030545360104952.431042780864118.04412452833094,3.227761036742777.312258721969556,6.268842173460143.32922491384852,8.644689077305884.054306315032591-.410679207460817.977492954842091-.997856528244483,1.876918639722135-1.744555412601585,2.664344670885839l.000010357870451.003397381524337ZM99.508458300951133,76.316857958858236c.247770620234405-.054306315032591.50571266930001-.098430843363531.767062457760403-.13237358499282.879062111477651-.111999653718158,1.758124222956212-.091636080314856,2.606640974329821.050908933508254,1.720794457673946.288497767041918,3.332976285282712,1.082708203382936,4.636296772448077,2.314756183635836,1.690249097568994,1.602000040906205,2.67452645758749,3.767416447670257,2.766162537902346,6.095741441660721.020363573403301.475167309195967,0,.95712938143879-.057703696556018,1.435694072157276-.071272506911555.590564344438462-.200248710380038,1.167559878520478-.383531228880202,1.720794457674856-2.27741606048221.285100385515761-5.461052568894047.268134193636797-8.824574214281711-.057703696556928-.441224567566678-.04412452833094-.882459493002898-.091636080314856-1.316899655391353-.142555371694471-.169703350274176-.159521563571616-.336009319024924-.319043127145051-.505712669299101-.478564690718486-2.301177015409849-2.209540935094992-4.317253645302117-4.510717950503022-5.60021055906418-6.380841827178301.366554679130786-.668631614396872.814574009744319-1.289741318940287,1.350842397019733-1.853157684796315,1.235445361777238-1.303320487164456,2.813684447757623-2.192564385344667,4.561626884012185-2.572698232699622ZM104.015778869931637,93.504407888582136c-1.113253563486978.342804082072689-2.270631655304896.46158814096998-3.431396770775791.35298586877434-2.00249746166719-.183282518499254-3.835291573059294-1.014822720122538-5.298133623797185-2.39960785877156-1.184526070398533-1.123435350189538-2.03644020329557-2.542152872596489-2.460698578982374-4.106823148220428-.04412452833094-.159521563573435-.081454293613206-.31904312714687-.115397035242495-.478564690720304,1.327081442092094.40729218380875,2.908717909596817.767062457760403,4.619320222698661,1.052162843277983.675416019574186.111999653718158,1.371205970423034.213827878604206,2.077167350102172.302076935266086,2.080564731626509,1.934622336279062,4.18149303665632,3.58753131069534,5.990526193121696,4.714364042407396-.444621949090106.224009665307676-.906220447929627.414076588986063-1.381387757124685.56001898433351v.003387023652976Z" style="fill:#fff"/></g></g></g></svg>