<svg xmlns="http://www.w3.org/2000/svg" xmlns:svg="http://www.w3.org/2000/svg" id="svg2" width="2500" height="1876" version="1.1" viewBox="0 0 122.88 92.19"><g id="g2" fill-rule="evenodd" clip-rule="evenodd"><path id="path1" fill="red" d="M6.36 0h110.16c3.5 0 6.36 2.86 6.36 6.36v67.08c0 3.5-2.86 6.36-6.36 6.36H6.36C2.86 79.8 0 76.94 0 73.44V6.36C0 2.86 2.86 0 6.36 0zM23.91 82.89h75.06c.09 0 .17.08.17.17v8.96c0 .09-.08.17-.17.17H23.91c-.1 0-.17-.08-.17-.17v-8.96c-.01-.1.07-.17.17-.17z" style="fill:#ff0132;fill-opacity:1"/><path id="path2" fill="#fff" d="M 49.170816,56.92 V 21.64 l 30.24,17.7 z"/></g></svg>