<svg xmlns="http://www.w3.org/2000/svg" style="flex:none;line-height:1" width="1em" height="1em" viewBox="0 0 24 24"><title>Yuanbao</title><path fill="url(#lobe-icons-yuanbao-fill-0)" d="M12 24c6.627 0 12-5.373 12-12S18.627 0 12 0 0 5.373 0 12s5.373 12 12 12z"/><path fill="url(#lobe-icons-yuanbao-fill-1)" fill-rule="evenodd" d="M12 0c.518 0 1.028.033 1.528.096A6.188 6.188 0 0112.12 12.28l-.12.001c-2.99 0-5.242 2.179-5.554 5.11-.223 2.086.353 4.412 2.242 6.146C3.672 22.1 0 17.479 0 12 0 5.373 5.373 0 12 0z" clip-rule="evenodd"/><path fill="url(#lobe-icons-yuanbao-fill-2)" fill-rule="evenodd" d="M5.286 5a2.438 2.438 0 01.682 3.38c-3.962 5.966-3.215 10.743 2.648 15.136C3.636 22.056 0 17.452 0 12c0-1.787.39-3.482 1.09-5.006.253-.435.525-.872.817-1.311A2.438 2.438 0 015.286 5z" clip-rule="evenodd"/><path fill="url(#lobe-icons-yuanbao-fill-3)" fill-rule="evenodd" d="M12.98.04c.272.021.543.053.81.093.583.106 1.117.254 1.538.44 6.638 2.927 8.07 10.052 1.748 15.642a4.126 4.126 0 01-5.822-.358c-1.51-1.706-1.3-4.184.357-5.822.858-.848 3.108-1.223 4.045-2.44 1.257-1.635 2.122-6.01-2.523-7.507L12.98.04z" clip-rule="evenodd"/><path fill="#ECECEE" fill-rule="evenodd" d="M13.528.096A6.187 6.187 0 0112 12.281a5.752 5.752 0 00-1.71.255c.147-.905.595-1.784 1.321-2.501.858-.848 3.108-1.223 4.045-2.441 1.27-1.651 2.14-6.104-2.676-7.554.184.014.367.033.548.056z" clip-rule="evenodd"/><defs><linearGradient id="lobe-icons-yuanbao-fill-0" x1="12" x2="12" y1="0" y2="24" gradientUnits="userSpaceOnUse"><stop stop-color="#02B2FC"/><stop offset=".5" stop-color="#20CBB6"/><stop offset="1" stop-color="#13D363"/></linearGradient><linearGradient id="lobe-icons-yuanbao-fill-1" x1="9.095" x2="9.095" y1="0" y2="23.537" gradientUnits="userSpaceOnUse"><stop stop-color="#C3EBEF"/><stop offset="1" stop-color="#D3F4DD"/></linearGradient><linearGradient id="lobe-icons-yuanbao-fill-2" x1="4.308" x2="4.308" y1="4.593" y2="23.516" gradientUnits="userSpaceOnUse"><stop stop-color="#14D368"/><stop offset=".5" stop-color="#24CEAD"/><stop offset="1" stop-color="#03B4F8"/></linearGradient><linearGradient id="lobe-icons-yuanbao-fill-3" x1="15.685" x2="15.685" y1=".039" y2="17.249" gradientUnits="userSpaceOnUse"><stop stop-color="#61CFFA" stop-opacity=".996"/><stop offset="1" stop-color="#79E3C0"/></linearGradient></defs></svg>