<svg xmlns="http://www.w3.org/2000/svg" xmlns:xlink="http://www.w3.org/1999/xlink" id="Layer_1" x="0" y="0" version="1.1" viewBox="0 0 154.3 154.2" xml:space="preserve" style="enable-background:new 0 0 154.3 154.2"><style type="text/css">.st0{fill:#fff;stroke:#fff;stroke-width:2;stroke-miterlimit:10}.st1{fill:#231f20}.st2{fill:#fff}</style><g><g><ellipse cx="77.2" cy="77.1" class="st0" rx="75.8" ry="75.8"/></g></g><path d="M76.2,125.5c-25.5,0-52.9-5-52.9-16s27.4-16,52.9-16s52.9,5,52.9,16C129.2,120.5,101.7,125.5,76.2,125.5z M76.2,99.8c-13,0-25.2,1.3-34.4,3.7c-10,2.6-12.2,5.4-12.2,6s2.2,3.4,12.2,6c9.1,2.4,21.4,3.7,34.4,3.7s25.2-1.3,34.4-3.7	c10-2.6,12.2-5.4,12.2-6s-2.2-3.4-12.2-6C101.5,101.1,89.2,99.8,76.2,99.8z" class="st1"/><path d="M48.3,102.1c8.2-1.3,28.2-7.4,37.5-11.5l18.9,2.8c-3.9,3.6-6.6,6.8-10.1,9.7L48.3,102.1z" class="st2"/><path d="M76.2,60.8c-25.5,0-52.9-5-52.9-16s27.4-16,52.9-16s52.9,5,52.9,16C129.2,55.8,101.7,60.8,76.2,60.8z M76.2,35.1c-13,0-25.2,1.3-34.4,3.7c-10,2.6-12.2,5.4-12.2,6s2.2,3.4,12.2,6c9.1,2.4,21.4,3.7,34.4,3.7s25.2-1.3,34.4-3.7	c10-2.6,12.2-5.4,12.2-6s-2.2-3.4-12.2-6C101.5,36.4,89.2,35.1,76.2,35.1z" class="st1"/><path d="M120.2,72.6c-36.1,42.3-58.5,48.1-63.5,48.1c-0.3,0-27.2-5.9-27.3-5.9l-0.9-5.3C50,107.2,89.5,100,120.2,72.6z" class="st1"/><path d="M83.8,88.6c7.5-3.5,26.1-20.8,24-32.8l21.3-11C129.2,73.3,90.1,85.2,83.8,88.6z" class="st1"/></svg>